<svg id="Banner_Vector" xmlns="http://www.w3.org/2000/svg" width="709.867" height="528.19" viewBox="0 0 709.867 528.19">
  <g id="freepik--background-complete--inject-8">
    <rect id="Rectangle_13" data-name="Rectangle 13" width="47.022" height="0.355" transform="translate(591.717 487.664)" fill="#ebebeb"/>
    <rect id="Rectangle_14" data-name="Rectangle 14" width="12.337" height="0.355" transform="translate(457.907 491.526)" fill="#ebebeb"/>
    <rect id="Rectangle_15" data-name="Rectangle 15" width="27.245" height="0.355" transform="translate(563.052 474.489)" fill="#ebebeb"/>
    <rect id="Rectangle_16" data-name="Rectangle 16" width="61.318" height="0.355" transform="translate(74.479 476.874)" fill="#ebebeb"/>
    <rect id="Rectangle_17" data-name="Rectangle 17" width="8.987" height="0.355" transform="translate(148.447 476.874)" fill="#ebebeb"/>
    <rect id="Rectangle_18" data-name="Rectangle 18" width="133.001" height="0.355" transform="translate(186.652 482.866)" fill="#ebebeb"/>
    <path id="Path_3" data-name="Path 3" d="M320.439,456.5H46.3a8.107,8.107,0,0,1-8.092-8.107V63.036A8.107,8.107,0,0,1,46.3,55H320.439a8.107,8.107,0,0,1,8.107,8.107V448.394A8.107,8.107,0,0,1,320.439,456.5ZM46.3,55.284a7.752,7.752,0,0,0-7.738,7.752V448.394a7.752,7.752,0,0,0,7.738,7.752H320.439a7.766,7.766,0,0,0,7.752-7.752V63.036a7.766,7.766,0,0,0-7.752-7.752Z" transform="translate(16.038 -55)" fill="#ebebeb"/>
    <path id="Path_4" data-name="Path 4" d="M536.757,456.5H262.607a8.121,8.121,0,0,1-8.107-8.107V63.036A8.121,8.121,0,0,1,262.607,55H536.757a8.107,8.107,0,0,1,8.078,8.036V448.394A8.107,8.107,0,0,1,536.757,456.5ZM262.607,55.284a7.766,7.766,0,0,0-7.752,7.752V448.394a7.766,7.766,0,0,0,7.752,7.752H536.757a7.766,7.766,0,0,0,7.752-7.752V63.036a7.766,7.766,0,0,0-7.752-7.752Z" transform="translate(106.822 -55)" fill="#ebebeb"/>
    <rect id="Rectangle_19" data-name="Rectangle 19" width="709.867" height="0.355" transform="translate(0 464.821)" fill="#ebebeb"/>
    <rect id="Rectangle_20" data-name="Rectangle 20" width="31.802" height="134.818" transform="translate(179.994 266.37)" fill="#e6e6e6"/>
    <rect id="Rectangle_21" data-name="Rectangle 21" width="31.802" height="180.789" transform="translate(233.007 220.399)" fill="#e0e0e0"/>
    <rect id="Rectangle_22" data-name="Rectangle 22" width="31.802" height="134.818" transform="translate(286.02 266.37)" fill="#ebebeb"/>
    <rect id="Rectangle_23" data-name="Rectangle 23" width="31.802" height="88.847" transform="translate(73.968 312.327)" fill="#f0f0f0"/>
    <rect id="Rectangle_24" data-name="Rectangle 24" width="31.802" height="111.037" transform="translate(126.981 290.137)" fill="#ebebeb"/>
    <rect id="Rectangle_25" data-name="Rectangle 25" width="31.802" height="88.847" transform="translate(339.032 312.327)" fill="#f5f5f5"/>
    <rect id="Rectangle_26" data-name="Rectangle 26" width="31.802" height="226.76" transform="translate(604.083 174.429)" fill="#e0e0e0"/>
    <rect id="Rectangle_27" data-name="Rectangle 27" width="31.802" height="134.818" transform="translate(392.045 266.37)" fill="#f0f0f0"/>
    <rect id="Rectangle_28" data-name="Rectangle 28" width="31.802" height="180.789" transform="translate(551.07 220.399)" fill="#e6e6e6"/>
    <rect id="Rectangle_29" data-name="Rectangle 29" width="31.802" height="157.008" transform="translate(498.071 244.166)" fill="#ebebeb"/>
    <rect id="Rectangle_30" data-name="Rectangle 30" width="31.802" height="111.037" transform="translate(445.058 290.137)" fill="#f0f0f0"/>
    <circle id="Ellipse_1" data-name="Ellipse 1" cx="22.19" cy="22.19" r="22.19" transform="translate(69.72 239.961) rotate(-76.72)" fill="#e0e0e0"/>
    <circle id="Ellipse_2" data-name="Ellipse 2" cx="22.19" cy="22.19" r="22.19" transform="translate(67.7 223.467) rotate(-45)" fill="#e6e6e6"/>
    <circle id="Ellipse_3" data-name="Ellipse 3" cx="16.611" cy="16.611" r="16.611" transform="translate(82.472 206.855)" fill="#f0f0f0"/>
    <path id="Path_5" data-name="Path 5" d="M79.635,219.717c.639,3.677-1.888,6.133-6.431,6.517l-.071,3.038H70.364l.085-3.038a15.418,15.418,0,0,1-6.73-2.13l1.249-3.422a12.55,12.55,0,0,0,5.565,2.03l.128-4.657c-2.712-.781-5.679-1.8-6.289-5.139-.639-3.677,1.931-6.162,6.573-6.488V203.39h2.825v3.067a14.07,14.07,0,0,1,5.367,1.576l-1.164,3.322a10.619,10.619,0,0,0-4.359-1.42L73.5,214.79C76.171,215.614,79.067,216.551,79.635,219.717Zm-8.9-5.679.114-3.975c-1.519.3-2.257,1.15-2.1,2.2S69.669,213.612,70.733,214.038Zm4.543,6.4c-.128-.809-.852-1.306-1.888-1.661l-.085,3.776C74.751,222.258,75.475,221.492,75.277,220.441Z" transform="translate(26.745 7.284)" fill="#fff"/>
    <rect id="Rectangle_31" data-name="Rectangle 31" width="136.82" height="64.939" rx="7.49" transform="translate(498.568 36.175)" fill="#f0f0f0"/>
    <rect id="Rectangle_32" data-name="Rectangle 32" width="11.67" height="48.157" rx="0.72" transform="translate(523.442 45.02)" fill="#fff"/>
    <rect id="Rectangle_33" data-name="Rectangle 33" width="11.67" height="48.157" rx="0.72" transform="translate(602.237 45.02)" fill="#fff"/>
    <rect id="Rectangle_34" data-name="Rectangle 34" width="11.67" height="32.285" rx="0.72" transform="translate(564.202 60.907)" fill="#fff"/>
    <rect id="Rectangle_35" data-name="Rectangle 35" width="11.67" height="24.533" rx="0.72" transform="translate(543.999 68.644)" fill="#fff"/>
    <rect id="Rectangle_36" data-name="Rectangle 36" width="11.67" height="5.679" rx="0.72" transform="translate(583.227 87.498)" fill="#fff"/>
    <path id="Path_6" data-name="Path 6" d="M452.547,86.727a1.036,1.036,0,0,0-1.42.539l-17.037,36.913a1.036,1.036,0,0,1-1.846.142L416.457,100.3a1.036,1.036,0,0,0-1.42-.327l-19.876,7.951a1.022,1.022,0,0,1-1.065,0L372.446,86.116a1.022,1.022,0,0,0-1.42.483v.114a1.037,1.037,0,0,0,.44,1.32l22.815,22.474a.994.994,0,0,0,1.065,0l19-7.468a1.022,1.022,0,0,1,1.42.327l16.8,25.655a1.036,1.036,0,0,0,1.846-.128L453,88.076A1.051,1.051,0,0,0,452.547,86.727Z" transform="translate(155.695 -41.991)" fill="#e0e0e0"/>
    <circle id="Ellipse_4" data-name="Ellipse 4" cx="23.156" cy="23.156" r="23.156" transform="translate(290.889 53.197)" fill="#e0e0e0"/>
    <circle id="Ellipse_5" data-name="Ellipse 5" cx="18.584" cy="18.584" r="18.584" transform="translate(295.191 57.769)" fill="#fff" opacity="0.8"/>
    <circle id="Ellipse_6" data-name="Ellipse 6" cx="1.888" cy="1.888" r="1.888" transform="translate(311.83 76.013)" fill="#e0e0e0"/>
    <path id="Path_7" data-name="Path 7" d="M223.183,114.2l-7.993-7.525.781-.823,7.241,6.815L236.188,101.2l.752.852Z" transform="translate(90.323 -35.608)" fill="#e0e0e0"/>
  </g>
  <g id="freepik--Shadow--inject-8" transform="translate(79.959 496.048)">
    <ellipse id="freepik--path--inject-8" cx="275.272" cy="16.071" rx="275.272" ry="16.071" fill="#f5f5f5"/>
  </g>
  <rect id="Rectangle_37" data-name="Rectangle 37" width="93.731" height="246.65" transform="translate(308.366 266.484)" fill="#5b96c4"/>
  <rect id="Rectangle_38" data-name="Rectangle 38" width="69.894" height="246.65" transform="translate(332.502 266.484)" fill="#105e9b" opacity="0.5"/>
  <rect id="Rectangle_39" data-name="Rectangle 39" width="93.731" height="162.545" transform="translate(430.818 350.575)" fill="#5b96c4"/>
  <rect id="Rectangle_40" data-name="Rectangle 40" width="69.894" height="162.943" transform="translate(454.656 350.192)" fill="#105e9b" opacity="0.3"/>
  <rect id="Rectangle_41" data-name="Rectangle 41" width="93.731" height="202.653" transform="translate(185.318 310.467)" fill="#5b96c4"/>
  <rect id="Rectangle_42" data-name="Rectangle 42" width="69.894" height="203.15" transform="translate(209.155 309.97)" fill="#105e9b" opacity="0.4"/>
  <path id="Path_8" data-name="Path 8" d="M156.23,417.976c-.128,3.024,9.427,5.878,21.3,6.389s21.679-1.533,21.807-4.557-9.427-5.863-21.3-6.375S156.358,414.966,156.23,417.976Z" transform="translate(65.575 95.414)" fill="#105e9b"/>
  <rect id="Rectangle_43" data-name="Rectangle 43" width="5.466" height="43.188" transform="translate(221.805 513.373) rotate(-87.57)" fill="#105e9b"/>
  <path id="Path_9" data-name="Path 9" d="M156.39,414.126c-.128,3.024,9.427,5.878,21.3,6.389s21.679-1.533,21.807-4.557-9.427-5.863-21.3-6.375S156.518,411.116,156.39,414.126Z" transform="translate(65.642 93.798)" fill="#94c0e2"/>
  <path id="Path_11" data-name="Path 11" d="M158.33,413.594a.88.88,0,0,0,.185.54c1.42-1.775,9.328-2.84,18.755-2.428s17.221,2.115,18.457,4a.767.767,0,0,0,.227-.525c.085-2.044-8.263-4.089-18.669-4.529S158.415,411.549,158.33,413.594Z" transform="translate(66.456 94.245)" fill="#105e9b"/>
  <path id="Path_13" data-name="Path 13" d="M158.46,413.824c1.292,1.888,9.058,3.592,18.457,3.99s17.335-.639,18.755-2.414c-1.264-1.888-9.03-3.592-18.457-4S159.908,412.049,158.46,413.824Z" transform="translate(66.511 94.555)" fill="#105e9b" opacity="0.4"/>
  <path id="Path_14" data-name="Path 14" d="M153,412.146c-.128,3.024,9.427,5.878,21.3,6.389S195.976,417,196.1,413.992s-9.427-5.878-21.3-6.389S153.185,409.137,153,412.146Z" transform="translate(64.219 92.967)" fill="#105e9b"/>
  <rect id="Rectangle_44" data-name="Rectangle 44" width="5.466" height="43.188" transform="translate(217.276 505.124) rotate(-87.57)" fill="#105e9b"/>
  <path id="Path_15" data-name="Path 15" d="M153.2,408.311c-.128,3.01,9.427,5.864,21.3,6.375s21.679-1.533,21.807-4.543-9.427-5.878-21.3-6.389S153.328,405.286,153.2,408.311Z" transform="translate(64.303 91.351)" fill="#94c0e2"/>
  <path id="Path_17" data-name="Path 17" d="M155.14,407.764a.81.81,0,0,0,.185.54c1.42-1.775,9.328-2.839,18.755-2.414s17.221,2.1,18.457,3.989a.88.88,0,0,0,.227-.511c.085-2.044-8.263-4.1-18.669-4.543S155.225,405.719,155.14,407.764Z" transform="translate(65.117 91.798)" fill="#105e9b"/>
  <path id="Path_19" data-name="Path 19" d="M155.27,407.989c1.278,1.888,9.058,3.592,18.457,3.989s17.335-.639,18.755-2.414c-1.264-1.888-9.03-3.592-18.457-3.989S156.7,406.214,155.27,407.989Z" transform="translate(65.172 92.113)" fill="#105e9b" opacity="0.4"/>
  <path id="Path_20" data-name="Path 20" d="M153.45,405.126c-.128,3.024,9.427,5.878,21.3,6.389s21.679-1.533,21.807-4.557-9.427-5.864-21.3-6.375S153.578,402.116,153.45,405.126Z" transform="translate(64.408 90.02)" fill="#105e9b"/>
  <rect id="Rectangle_45" data-name="Rectangle 45" width="5.466" height="43.188" transform="translate(217.863 495.148) rotate(-87.57)" fill="#105e9b"/>
  <path id="Path_21" data-name="Path 21" d="M153.61,401.276c-.128,3.024,9.427,5.878,21.3,6.389s21.665-1.533,21.793-4.543-9.427-5.878-21.3-6.389S153.738,398.267,153.61,401.276Z" transform="translate(64.475 88.404)" fill="#94c0e2"/>
  <path id="Path_23" data-name="Path 23" d="M155.55,400.744a.88.88,0,0,0,.185.54c1.42-1.775,9.328-2.84,18.755-2.414s17.221,2.1,18.457,3.99a.739.739,0,0,0,.227-.511c.085-2.044-8.263-4.1-18.669-4.543S155.635,398.7,155.55,400.744Z" transform="translate(65.29 88.852)" fill="#105e9b"/>
  <path id="Path_25" data-name="Path 25" d="M155.68,400.968c1.292,1.888,9.058,3.592,18.457,3.989s17.335-.639,18.755-2.414c-1.264-1.888-9.029-3.592-18.457-3.99S157.128,399.222,155.68,400.968Z" transform="translate(65.344 89.167)" fill="#105e9b" opacity="0.4"/>
  <path id="Path_26" data-name="Path 26" d="M150.26,399.311c-.128,3.01,9.427,5.863,21.3,6.375s21.679-1.533,21.807-4.543-9.427-5.878-21.3-6.389S150.388,396.286,150.26,399.311Z" transform="translate(63.069 87.573)" fill="#105e9b"/>
  <rect id="Rectangle_46" data-name="Rectangle 46" width="5.466" height="43.188" transform="translate(213.32 486.842) rotate(-87.57)" fill="#105e9b"/>
  <path id="Path_27" data-name="Path 27" d="M150.42,395.46c-.128,3.01,9.427,5.864,21.3,6.375s21.679-1.533,21.807-4.543-9.427-5.878-21.3-6.389S150.548,392.493,150.42,395.46Z" transform="translate(63.136 85.958)" fill="#94c0e2"/>
  <path id="Path_29" data-name="Path 29" d="M152.36,394.893a.781.781,0,0,0,.185.54c1.42-1.775,9.328-2.839,18.755-2.414s17.221,2.1,18.457,3.989a.88.88,0,0,0,.227-.511c.085-2.044-8.263-4.1-18.67-4.543S152.445,392.877,152.36,394.893Z" transform="translate(63.95 86.396)" fill="#105e9b"/>
  <path id="Path_31" data-name="Path 31" d="M152.49,395.139c1.278,1.888,9.058,3.592,18.457,3.989s17.335-.639,18.755-2.414c-1.264-1.888-9.03-3.592-18.457-3.989S153.924,393.364,152.49,395.139Z" transform="translate(64.005 86.719)" fill="#105e9b" opacity="0.4"/>
  <path id="Path_32" data-name="Path 32" d="M155.13,394.371c-.128,3.01,9.427,5.863,21.3,6.375s21.679-1.533,21.807-4.543-9.427-5.878-21.3-6.389S155.258,391.346,155.13,394.371Z" transform="translate(65.113 85.5)" fill="#105e9b"/>
  <rect id="Rectangle_47" data-name="Rectangle 47" width="5.466" height="43.188" transform="translate(220.25 479.864) rotate(-87.57)" fill="#105e9b"/>
  <path id="Path_33" data-name="Path 33" d="M155.3,390.521c-.128,3.01,9.427,5.864,21.3,6.375s21.679-1.533,21.807-4.543-9.427-5.878-21.3-6.389S155.428,387.468,155.3,390.521Z" transform="translate(65.184 83.883)" fill="#94c0e2"/>
  <path id="Path_35" data-name="Path 35" d="M157.23,389.974a.951.951,0,0,0,.185.54c1.42-1.775,9.342-2.839,18.755-2.414s17.236,2.1,18.457,3.989a.823.823,0,0,0,.241-.511c.085-2.044-8.263-4.1-18.669-4.543S157.329,387.929,157.23,389.974Z" transform="translate(65.995 84.331)" fill="#105e9b"/>
  <path id="Path_37" data-name="Path 37" d="M157.36,390.2c1.292,1.888,9.058,3.592,18.457,3.989s17.349-.639,18.755-2.414c-1.249-1.888-9.03-3.592-18.457-3.989S158.808,388.424,157.36,390.2Z" transform="translate(66.049 84.646)" fill="#105e9b" opacity="0.4"/>
  <path id="Path_38" data-name="Path 38" d="M151.94,388.541c-.128,3.01,9.427,5.878,21.3,6.375s21.679-1.533,21.807-4.543-9.427-5.878-21.3-6.389S152.026,385.46,151.94,388.541Z" transform="translate(63.774 83.052)" fill="#105e9b"/>
  <rect id="Rectangle_48" data-name="Rectangle 48" width="5.466" height="43.188" transform="translate(215.707 471.573) rotate(-87.57)" fill="#105e9b"/>
  <path id="Path_39" data-name="Path 39" d="M152.1,384.691c-.128,3.01,9.427,5.878,21.3,6.375s21.679-1.519,21.807-4.543-9.427-5.878-21.3-6.389S152.228,381.666,152.1,384.691Z" transform="translate(63.841 81.437)" fill="#94c0e2"/>
  <path id="Path_41" data-name="Path 41" d="M154,384.145a.824.824,0,0,0,.185.54c1.42-1.775,9.328-2.84,18.755-2.414s17.221,2.1,18.457,4a.8.8,0,0,0,.227-.525c.085-2.044-8.263-4.089-18.669-4.543S154.142,382.1,154,384.145Z" transform="translate(64.639 81.883)" fill="#105e9b"/>
  <path id="Path_43" data-name="Path 43" d="M154.17,384.369c1.292,1.888,9.058,3.592,18.457,4s17.335-.639,18.755-2.414c-1.264-1.9-9.03-3.606-18.457-4S155.618,382.594,154.17,384.369Z" transform="translate(64.71 82.199)" fill="#105e9b" opacity="0.4"/>
  <path id="Path_44" data-name="Path 44" d="M110.91,416.115c-.142,3.024,9.413,5.878,21.3,6.375s21.665-1.519,21.793-4.543-9.413-5.878-21.3-6.375S111.038,413.091,110.91,416.115Z" transform="translate(46.552 94.634)" fill="#105e9b"/>
  <rect id="Rectangle_49" data-name="Rectangle 49" width="5.466" height="43.188" transform="translate(157.449 510.718) rotate(-87.57)" fill="#105e9b"/>
  <path id="Path_45" data-name="Path 45" d="M111.07,412.265c-.128,3.024,9.427,5.878,21.3,6.389s21.679-1.533,21.807-4.557-9.427-5.878-21.3-6.375S111.2,409.241,111.07,412.265Z" transform="translate(46.619 93.018)" fill="#94c0e2"/>
  <path id="Path_47" data-name="Path 47" d="M113,411.72a.753.753,0,0,0,.185.54c1.42-1.775,9.328-2.839,18.755-2.414s17.221,2.115,18.457,4a.923.923,0,0,0,.227-.525c.085-2.044-8.263-4.089-18.669-4.529S113.1,409.675,113,411.72Z" transform="translate(47.429 93.464)" fill="#105e9b"/>
  <path id="Path_49" data-name="Path 49" d="M113.14,411.948c1.278,1.888,9.058,3.606,18.457,4s17.335-.639,18.755-2.414c-1.264-1.888-9.03-3.606-18.457-4S114.574,410.23,113.14,411.948Z" transform="translate(47.489 93.776)" fill="#105e9b" opacity="0.4"/>
  <path id="Path_50" data-name="Path 50" d="M124.142,411.681c-.71,2.939,8.135,7.553,19.734,10.307s21.58,2.612,22.276-.327S158,414.108,146.4,411.354,124.837,408.742,124.142,411.681Z" transform="translate(52.09 93.745)" fill="#105e9b"/>
  <rect id="Rectangle_50" data-name="Rectangle 50" width="5.466" height="43.188" transform="matrix(0.231, -0.973, 0.973, 0.231, 176.23, 505.453)" fill="#105e9b"/>
  <path id="Path_51" data-name="Path 51" d="M125.012,407.945c-.71,2.939,8.135,7.553,19.734,10.321s21.58,2.612,22.276-.327-8.107-7.51-19.72-10.35S125.736,405.006,125.012,407.945Z" transform="translate(52.455 92.156)" fill="#94c0e2"/>
  <path id="Path_53" data-name="Path 53" d="M126.935,407.938a.809.809,0,0,0,.085.568c1.746-1.42,9.7-.994,18.868,1.193s16.512,5.338,17.392,7.425a.838.838,0,0,0,.327-.469c.469-1.988-7.34-5.579-17.477-7.993S127.418,405.95,126.935,407.938Z" transform="translate(53.271 92.59)" fill="#105e9b"/>
  <path id="Path_55" data-name="Path 55" d="M127,408.26c.909,2.1,8.206,5.253,17.392,7.425s17.136,2.669,18.868,1.193c-.88-2.087-8.192-5.239-17.392-7.425S128.732,406.713,127,408.26Z" transform="translate(53.306 92.906)" fill="#105e9b" opacity="0.4"/>
  <circle id="Ellipse_7" data-name="Ellipse 7" cx="19.45" cy="19.45" r="19.45" transform="translate(211.54 430.889)" fill="#105e9b"/>
  <circle id="Ellipse_8" data-name="Ellipse 8" cx="19.45" cy="19.45" r="19.45" transform="translate(213.869 430.889)" fill="#94c0e2"/>
  <circle id="Ellipse_10" data-name="Ellipse 10" cx="14.566" cy="14.566" r="14.566" transform="translate(212.723 450.339) rotate(-45)" fill="#105e9b"/>
  <path id="Path_56" data-name="Path 56" d="M173.2,379.479a6.062,6.062,0,0,1-4.557,1.846,6.332,6.332,0,0,1-6.076-3.961h7.837v-1.675h-8.263a6.932,6.932,0,0,1,0-.767,6.735,6.735,0,0,1,0-.767h8.249V372.48H162.57a6.332,6.332,0,0,1,6.091-3.961,6.062,6.062,0,0,1,4.557,1.832l.227.227,1.576-1.547-.213-.227a8.235,8.235,0,0,0-6.233-2.47,8.518,8.518,0,0,0-8.518,6.148h-2.768v1.675h2.442v1.533h-2.47v1.675h2.768a8.518,8.518,0,0,0,8.518,6.147,8.248,8.248,0,0,0,6.233-2.5l.213-.227-1.576-1.547Z" transform="translate(66.007 75.674)" fill="#fff" opacity="0.3"/>
  <path id="Path_57" data-name="Path 57" d="M369.03,420.353c-.114,3.01-9.853,5.111-21.779,4.685s-21.481-3.223-21.381-6.233,9.867-5.125,21.779-4.7S369.144,417.329,369.03,420.353Z" transform="translate(136.778 95.706)" fill="#105e9b"/>
  <rect id="Rectangle_51" data-name="Rectangle 51" width="5.466" height="43.188" transform="matrix(0.036, -0.999, 0.999, 0.036, 462.631, 514.461)" fill="#105e9b"/>
  <path id="Path_58" data-name="Path 58" d="M369.17,416.5c-.114,3.01-9.853,5.111-21.779,4.685s-21.481-3.223-21.381-6.233,9.853-5.125,21.779-4.7S369.284,413.479,369.17,416.5Z" transform="translate(136.837 94.09)" fill="#94c0e2"/>
  <path id="Path_60" data-name="Path 60" d="M365.6,415.743a.8.8,0,0,1-.227.525c-1.292-1.888-9.072-3.549-18.457-3.876s-17.335.752-18.74,2.527a.837.837,0,0,1-.2-.525c.085-2.044,8.518-3.436,18.968-3.067S365.674,413.727,365.6,415.743Z" transform="translate(137.664 94.538)" fill="#105e9b"/>
  <path id="Path_62" data-name="Path 62" d="M365.317,415.952c-1.42,1.775-9.313,2.839-18.741,2.527s-17.236-1.988-18.457-3.876c1.42-1.775,9.285-2.839,18.741-2.527S364.025,414.064,365.317,415.952Z" transform="translate(137.723 94.854)" fill="#105e9b" opacity="0.4"/>
  <path id="Path_63" data-name="Path 63" d="M372.67,414.793c-.114,3.01-9.853,5.111-21.779,4.685s-21.481-3.223-21.381-6.247,9.867-5.111,21.779-4.685S372.8,411.769,372.67,414.793Z" transform="translate(138.306 93.372)" fill="#105e9b"/>
  <rect id="Rectangle_52" data-name="Rectangle 52" width="5.466" height="43.188" transform="matrix(0.036, -0.999, 0.999, 0.036, 467.843, 506.649)" fill="#105e9b"/>
  <path id="Path_64" data-name="Path 64" d="M372.81,410.943c-.114,3.01-9.853,5.111-21.779,4.685s-21.495-3.223-21.381-6.247,9.853-5.111,21.779-4.685S372.91,407.99,372.81,410.943Z" transform="translate(138.365 91.756)" fill="#94c0e2"/>
  <path id="Path_66" data-name="Path 66" d="M369.243,410.183a.738.738,0,0,1-.227.511c-1.292-1.874-9.072-3.535-18.457-3.862s-17.349.752-18.74,2.527a.838.838,0,0,1-.2-.525c.085-2.044,8.518-3.436,18.968-3.067S369.314,408.139,369.243,410.183Z" transform="translate(139.192 92.204)" fill="#105e9b"/>
  <path id="Path_68" data-name="Path 68" d="M369,410.378c-1.42,1.789-9.313,2.839-18.741,2.541s-17.236-1.988-18.457-3.876c1.42-1.775,9.285-2.839,18.741-2.527S367.648,408.5,369,410.378Z" transform="translate(139.268 92.52)" fill="#105e9b" opacity="0.4"/>
  <path id="Path_69" data-name="Path 69" d="M372.81,407.749c-.114,3.024-9.867,5.125-21.779,4.7s-21.495-3.223-21.381-6.247,9.853-5.111,21.779-4.685S372.91,404.739,372.81,407.749Z" transform="translate(138.365 90.422)" fill="#105e9b"/>
  <rect id="Rectangle_53" data-name="Rectangle 53" width="5.466" height="43.188" transform="matrix(0.036, -0.999, 0.999, 0.036, 468.027, 496.664)" fill="#105e9b"/>
  <path id="Path_70" data-name="Path 70" d="M372.95,403.859c-.114,3.024-9.867,5.125-21.779,4.7s-21.495-3.223-21.381-6.247,9.853-5.111,21.765-4.685S373.05,400.906,372.95,403.859Z" transform="translate(138.424 88.789)" fill="#94c0e2"/>
  <path id="Path_72" data-name="Path 72" d="M369.379,403.153a.88.88,0,0,1-.227.511c-1.306-1.874-9.086-3.535-18.457-3.876s-17.335.752-18.741,2.541a.823.823,0,0,1-.185-.539c0-2.044,8.518-3.422,18.968-3.052S369.45,401.109,369.379,403.153Z" transform="translate(139.255 89.253)" fill="#105e9b"/>
  <path id="Path_74" data-name="Path 74" d="M369.1,403.351c-1.42,1.789-9.313,2.839-18.741,2.541s-17.236-1.988-18.457-3.876c1.42-1.789,9.285-2.839,18.741-2.541S367.791,401.477,369.1,403.351Z" transform="translate(139.31 89.567)" fill="#105e9b" opacity="0.4"/>
  <path id="Path_75" data-name="Path 75" d="M376.45,402.189c-.114,3.024-9.867,5.125-21.779,4.7s-21.495-3.223-21.381-6.247,9.853-5.111,21.779-4.685S376.55,399.179,376.45,402.189Z" transform="translate(139.893 88.088)" fill="#105e9b"/>
  <rect id="Rectangle_54" data-name="Rectangle 54" width="5.466" height="43.188" transform="matrix(0.036, -0.999, 0.999, 0.036, 473.146, 488.7)" fill="#105e9b"/>
  <path id="Path_76" data-name="Path 76" d="M376.576,398.339c-.1,3.024-9.853,5.125-21.764,4.7s-21.495-3.223-21.381-6.247,9.853-5.111,21.765-4.685S376.69,395.329,376.576,398.339Z" transform="translate(139.952 86.472)" fill="#94c0e2"/>
  <path id="Path_78" data-name="Path 78" d="M373.019,397.593a.881.881,0,0,1-.227.511c-1.306-1.874-9.086-3.535-18.457-3.876s-17.335.752-18.741,2.541a.823.823,0,0,1-.185-.539c.071-2.044,8.518-3.422,18.968-3.052S373.161,395.549,373.019,397.593Z" transform="translate(140.783 86.92)" fill="#105e9b"/>
  <path id="Path_80" data-name="Path 80" d="M372.737,397.791c-1.42,1.789-9.313,2.839-18.741,2.541s-17.236-1.988-18.457-3.876c1.42-1.789,9.285-2.839,18.741-2.541S371.431,395.917,372.737,397.791Z" transform="translate(140.837 87.233)" fill="#105e9b" opacity="0.4"/>
  <path id="Path_81" data-name="Path 81" d="M243,415.575c-.128,3.024,9.413,5.878,21.3,6.389s21.665-1.533,21.793-4.557-9.413-5.878-21.3-6.375S243.086,412.565,243,415.575Z" transform="translate(101.995 94.407)" fill="#105e9b"/>
  <rect id="Rectangle_55" data-name="Rectangle 55" width="5.466" height="43.188" transform="translate(344.924 509.96) rotate(-87.57)" fill="#105e9b"/>
  <path id="Path_82" data-name="Path 82" d="M243.13,411.725c-.128,3.024,9.427,5.878,21.3,6.389s21.679-1.533,21.807-4.557-9.427-5.878-21.3-6.375S243.258,408.715,243.13,411.725Z" transform="translate(102.05 92.791)" fill="#94c0e2"/>
  <path id="Path_84" data-name="Path 84" d="M245.07,411.194a.753.753,0,0,0,.185.525c1.42-1.775,9.328-2.839,18.755-2.414s17.221,2.115,18.457,4a.923.923,0,0,0,.227-.525c.085-2.044-8.263-4.089-18.669-4.529S245.155,409.149,245.07,411.194Z" transform="translate(102.864 93.238)" fill="#105e9b"/>
  <path id="Path_86" data-name="Path 86" d="M245.2,411.41c1.278,1.9,9.058,3.606,18.457,4s17.335-.639,18.755-2.414c-1.264-1.888-9.029-3.592-18.457-4S246.634,409.635,245.2,411.41Z" transform="translate(102.919 93.547)" fill="#105e9b" opacity="0.4"/>
  <path id="Path_87" data-name="Path 87" d="M239.77,409.745c-.128,3.024,9.427,5.878,21.3,6.389s21.679-1.533,21.807-4.557-9.427-5.878-21.3-6.375S239.9,406.735,239.77,409.745Z" transform="translate(100.639 91.96)" fill="#105e9b"/>
  <rect id="Rectangle_56" data-name="Rectangle 56" width="5.466" height="43.188" transform="translate(340.409 501.725) rotate(-87.57)" fill="#105e9b"/>
  <path id="Path_88" data-name="Path 88" d="M239.94,405.9c-.128,3.024,9.427,5.878,21.3,6.389s21.679-1.533,21.807-4.557-9.427-5.864-21.3-6.375S240.026,402.886,239.94,405.9Z" transform="translate(100.711 90.343)" fill="#94c0e2"/>
  <path id="Path_90" data-name="Path 90" d="M241.87,405.364a.994.994,0,0,0,.185.54c1.42-1.775,9.342-2.839,18.755-2.428s17.236,2.115,18.457,4a.852.852,0,0,0,.241-.525c.085-2.044-8.263-4.089-18.67-4.529S241.969,403.277,241.87,405.364Z" transform="translate(101.521 90.79)" fill="#105e9b"/>
  <path id="Path_92" data-name="Path 92" d="M242,405.594c1.292,1.888,9.058,3.592,18.457,3.989s17.349-.639,18.755-2.414c-1.249-1.888-9.029-3.592-18.457-4S243.42,403.819,242,405.594Z" transform="translate(101.576 91.1)" fill="#105e9b" opacity="0.4"/>
  <path id="Path_93" data-name="Path 93" d="M240.19,402.725c-.128,3.024,9.427,5.878,21.3,6.389s21.679-1.533,21.807-4.557-9.427-5.878-21.3-6.375S240.318,399.715,240.19,402.725Z" transform="translate(100.815 89.014)" fill="#105e9b"/>
  <rect id="Rectangle_57" data-name="Rectangle 57" width="5.466" height="43.188" transform="translate(340.997 491.734) rotate(-87.57)" fill="#105e9b"/>
  <path id="Path_94" data-name="Path 94" d="M240.35,398.875c-.128,3.024,9.427,5.878,21.3,6.389s21.679-1.533,21.807-4.557-9.427-5.878-21.3-6.375S240.478,395.865,240.35,398.875Z" transform="translate(100.883 87.398)" fill="#94c0e2"/>
  <path id="Path_96" data-name="Path 96" d="M242.29,398.344a.752.752,0,0,0,.185.525c1.42-1.76,9.328-2.839,18.755-2.414s17.221,2.115,18.457,4a.922.922,0,0,0,.227-.525c.085-2.044-8.263-4.089-18.669-4.529S242.375,396.285,242.29,398.344Z" transform="translate(101.697 87.844)" fill="#105e9b"/>
  <path id="Path_98" data-name="Path 98" d="M242.42,398.56c1.278,1.9,9.058,3.606,18.457,4s17.335-.639,18.755-2.414c-1.264-1.888-9.029-3.592-18.457-4S243.854,396.8,242.42,398.56Z" transform="translate(101.752 88.154)" fill="#105e9b" opacity="0.4"/>
  <path id="Path_99" data-name="Path 99" d="M237,396.9c-.128,3.024,9.427,5.878,21.3,6.389s21.679-1.533,21.807-4.557-9.427-5.863-21.3-6.375S237.114,393.886,237,396.9Z" transform="translate(99.477 86.566)" fill="#105e9b"/>
  <rect id="Rectangle_58" data-name="Rectangle 58" width="5.466" height="43.188" transform="translate(336.453 483.444) rotate(-87.57)" fill="#105e9b"/>
  <path id="Path_100" data-name="Path 100" d="M237.16,393.046c-.128,3.024,9.427,5.878,21.3,6.389s21.679-1.533,21.807-4.557-9.427-5.864-21.3-6.375S237.288,390.036,237.16,393.046Z" transform="translate(99.544 84.95)" fill="#94c0e2"/>
  <path id="Path_102" data-name="Path 102" d="M239.1,392.514a.866.866,0,0,0,.17.54c1.42-1.775,9.342-2.839,18.769-2.414s17.221,2.1,18.457,3.989a.881.881,0,0,0,.227-.525c.085-2.03-8.263-4.089-18.669-4.529S239.185,390.469,239.1,392.514Z" transform="translate(100.358 85.397)" fill="#105e9b"/>
  <path id="Path_105" data-name="Path 105" d="M241.87,391.956c-.128,3.024,9.427,5.878,21.3,6.389s21.679-1.533,21.807-4.557-9.427-5.863-21.3-6.375S242.055,388.946,241.87,391.956Z" transform="translate(101.521 84.492)" fill="#105e9b"/>
  <rect id="Rectangle_59" data-name="Rectangle 59" width="5.466" height="43.188" transform="translate(343.398 476.451) rotate(-87.57)" fill="#105e9b"/>
  <path id="Path_106" data-name="Path 106" d="M242,388.106c-.128,3.024,9.427,5.878,21.3,6.389s21.679-1.533,21.807-4.557-9.427-5.864-21.3-6.375S242.171,385.1,242,388.106Z" transform="translate(101.575 82.876)" fill="#94c0e2"/>
  <path id="Path_108" data-name="Path 108" d="M244,387.574a.881.881,0,0,0,.185.54c1.42-1.775,9.328-2.84,18.755-2.414s17.221,2.1,18.457,3.989a.738.738,0,0,0,.227-.525c.085-2.03-8.263-4.089-18.669-4.529S244,385.529,244,387.574Z" transform="translate(102.415 83.324)" fill="#105e9b"/>
  <path id="Path_110" data-name="Path 110" d="M244.1,387.8c1.292,1.888,9.058,3.592,18.457,3.989s17.335-.639,18.755-2.414c-1.264-1.888-9.029-3.592-18.457-3.989S245.548,386.024,244.1,387.8Z" transform="translate(102.457 83.638)" fill="#105e9b" opacity="0.4"/>
  <path id="Path_452" data-name="Path 452" d="M244.1,387.8c1.292,1.888,9.058,3.592,18.457,3.989s17.335-.639,18.755-2.414c-1.264-1.888-9.029-3.592-18.457-3.989S245.548,386.024,244.1,387.8Z" transform="matrix(0.995, 0.105, -0.105, 0.995, 137.287, 66.806)" fill="#105e9b" opacity="0.4"/>
  <path id="Path_111" data-name="Path 111" d="M238.68,386.141c-.128,3.01,9.427,5.864,21.3,6.375s21.665-1.533,21.807-4.543-9.427-5.878-21.3-6.389S238.808,383.117,238.68,386.141Z" transform="translate(100.182 82.045)" fill="#105e9b"/>
  <rect id="Rectangle_60" data-name="Rectangle 60" width="5.466" height="43.188" transform="translate(338.84 468.16) rotate(-87.57)" fill="#105e9b"/>
  <path id="Path_112" data-name="Path 112" d="M238.84,382.291c-.128,3.01,9.427,5.864,21.3,6.375s21.679-1.533,21.807-4.543-9.427-5.878-21.3-6.389S238.968,379.266,238.84,382.291Z" transform="translate(100.249 80.429)" fill="#94c0e2"/>
  <path id="Path_114" data-name="Path 114" d="M240.78,381.744a.781.781,0,0,0,.185.54c1.42-1.775,9.328-2.839,18.755-2.414s17.221,2.1,18.457,3.989a.88.88,0,0,0,.227-.511c.085-2.044-8.263-4.1-18.67-4.543S240.865,379.7,240.78,381.744Z" transform="translate(101.063 80.877)" fill="#105e9b"/>
  <path id="Path_116" data-name="Path 116" d="M240.91,381.968c1.278,1.888,9.058,3.592,18.457,3.989s17.335-.639,18.755-2.414c-1.264-1.888-9.03-3.592-18.457-3.989S242.344,380.222,240.91,381.968Z" transform="translate(101.118 81.192)" fill="#105e9b" opacity="0.4"/>
  <path id="Path_117" data-name="Path 117" d="M285.007,382c.128,3.01-9.427,5.878-21.3,6.375s-21.651-1.59-21.85-4.543,9.413-5.878,21.3-6.389S284.865,378.976,285.007,382Z" transform="translate(101.516 80.307)" fill="#105e9b"/>
  <rect id="Rectangle_61" data-name="Rectangle 61" width="43.188" height="5.466" transform="matrix(1, -0.04, 0.04, 1, 343.137, 458.993)" fill="#105e9b"/>
  <path id="Path_118" data-name="Path 118" d="M284.823,378.15c.128,3.01-9.427,5.878-21.3,6.375s-21.679-1.519-21.807-4.543,9.427-5.878,21.3-6.389S284.71,375.126,284.823,378.15Z" transform="translate(101.458 78.691)" fill="#94c0e2"/>
  <path id="Path_120" data-name="Path 120" d="M281.263,377.6a.753.753,0,0,1-.185.539c-1.42-1.775-9.328-2.839-18.755-2.414s-17.221,2.1-18.457,4a.965.965,0,0,1-.227-.525c-.085-2.044,8.263-4.089,18.669-4.529S281.178,375.555,281.263,377.6Z" transform="translate(102.264 79.143)" fill="#105e9b"/>
  <path id="Path_122" data-name="Path 122" d="M281,377.829c-1.278,1.888-9.058,3.592-18.457,4s-17.335-.639-18.755-2.414c1.264-1.9,9.03-3.606,18.457-4S279.581,376.054,281,377.829Z" transform="translate(102.327 79.454)" fill="#105e9b" opacity="0.4"/>
  <path id="Path_123" data-name="Path 123" d="M288.184,376.165c.128,3.024-9.427,5.878-21.3,6.375S245.208,381.021,245.08,378s9.427-5.878,21.3-6.375S288.056,373.141,288.184,376.165Z" transform="translate(102.868 77.866)" fill="#105e9b"/>
  <rect id="Rectangle_62" data-name="Rectangle 62" width="43.188" height="5.466" transform="translate(347.671 450.382) rotate(-2.43)" fill="#105e9b"/>
  <path id="Path_124" data-name="Path 124" d="M288.009,372.366c.128,3.024-9.413,5.878-21.3,6.389s-21.665-1.533-21.793-4.557,9.413-5.878,21.3-6.375S287.882,369.271,288.009,372.366Z" transform="translate(102.801 76.27)" fill="#94c0e2"/>
  <path id="Path_126" data-name="Path 126" d="M284.463,371.77a.923.923,0,0,1-.185.539c-1.42-1.775-9.342-2.839-18.755-2.414s-17.236,2.115-18.457,4a.767.767,0,0,1-.227-.525c-.1-2.044,8.263-4.089,18.655-4.529S284.364,369.725,284.463,371.77Z" transform="translate(103.607 76.696)" fill="#105e9b"/>
  <path id="Path_128" data-name="Path 128" d="M284.211,372c-1.292,1.888-9.058,3.606-18.457,4s-17.349-.639-18.755-2.414c1.249-1.888,9.03-3.606,18.457-4S282.763,370.21,284.211,372Z" transform="translate(103.674 77.006)" fill="#105e9b" opacity="0.4"/>
  <path id="Path_129" data-name="Path 129" d="M287.739,369.151c.128,3.01-9.413,5.878-21.3,6.375s-21.665-1.519-21.793-4.543,9.413-5.878,21.3-6.389S287.64,366.126,287.739,369.151Z" transform="translate(102.688 74.914)" fill="#105e9b"/>
  <rect id="Rectangle_63" data-name="Rectangle 63" width="43.188" height="5.466" transform="translate(347.079 440.435) rotate(-2.43)" fill="#105e9b"/>
  <path id="Path_130" data-name="Path 130" d="M287.6,365.3c.128,3.024-9.427,5.878-21.3,6.375s-21.679-1.519-21.807-4.543,9.427-5.878,21.3-6.375S287.476,362.271,287.6,365.3Z" transform="translate(102.625 73.303)" fill="#94c0e2"/>
  <path id="Path_132" data-name="Path 132" d="M284.043,364.75a.752.752,0,0,1-.185.539c-1.42-1.775-9.328-2.839-18.755-2.414s-17.221,2.115-18.457,4a.965.965,0,0,1-.227-.525c-.085-2.044,8.263-4.089,18.669-4.529S283.958,362.705,284.043,364.75Z" transform="translate(103.431 73.749)" fill="#105e9b"/>
  <path id="Path_134" data-name="Path 134" d="M283.791,364.978c-1.278,1.888-9.058,3.606-18.457,4s-17.335-.639-18.755-2.414c1.264-1.888,9.03-3.606,18.457-4S282.357,363.218,283.791,364.978Z" transform="translate(103.498 74.06)" fill="#105e9b" opacity="0.4"/>
  <path id="Path_135" data-name="Path 135" d="M290.964,363.366c.128,3.024-9.427,5.878-21.3,6.389s-21.679-1.533-21.807-4.557,9.427-5.878,21.3-6.375S290.836,360.271,290.964,363.366Z" transform="translate(104.035 72.492)" fill="#105e9b"/>
  <rect id="Rectangle_64" data-name="Rectangle 64" width="43.188" height="5.466" transform="translate(351.579 432.172) rotate(-2.43)" fill="#105e9b"/>
  <path id="Path_136" data-name="Path 136" d="M290.793,359.465c.128,3.024-9.427,5.878-21.3,6.389s-21.679-1.533-21.807-4.557,9.427-5.878,21.3-6.375S290.723,356.484,290.793,359.465Z" transform="translate(103.963 70.856)" fill="#94c0e2"/>
  <path id="Path_138" data-name="Path 138" d="M287.247,358.893a.908.908,0,0,1-.185.525c-1.42-1.775-9.342-2.839-18.755-2.414s-17.236,2.115-18.457,4a.852.852,0,0,1-.241-.525c-.085-2.044,8.263-4.089,18.669-4.529S287.148,356.905,287.247,358.893Z" transform="translate(104.77 71.286)" fill="#105e9b"/>
  <path id="Path_140" data-name="Path 140" d="M287,359.149c-1.292,1.9-9.058,3.606-18.457,4s-17.349-.639-18.755-2.414c1.249-1.888,9.03-3.606,18.457-4S285.581,357.374,287,359.149Z" transform="translate(104.845 71.613)" fill="#105e9b" opacity="0.4"/>
  <path id="Path_141" data-name="Path 141" d="M286.075,358.361c.128,3.024-9.427,5.878-21.3,6.389S243,363.231,243,360.207s9.427-5.878,21.3-6.375S285.947,355.365,286.075,358.361Z" transform="translate(101.995 70.399)" fill="#105e9b"/>
  <rect id="Rectangle_65" data-name="Rectangle 65" width="43.188" height="5.466" transform="translate(344.701 425.131) rotate(-2.43)" fill="#105e9b"/>
  <path id="Path_142" data-name="Path 142" d="M285.923,354.526c.128,3.024-9.427,5.878-21.3,6.389s-21.679-1.533-21.807-4.557,9.427-5.878,21.3-6.375S285.8,351.459,285.923,354.526Z" transform="translate(101.919 68.782)" fill="#94c0e2"/>
  <path id="Path_144" data-name="Path 144" d="M282.363,353.994a.752.752,0,0,1-.185.525c-1.42-1.775-9.328-2.839-18.755-2.414s-17.221,2.115-18.457,4a.838.838,0,0,1-.227-.525c-.085-2.044,8.263-4.089,18.67-4.529S282.278,351.949,282.363,353.994Z" transform="translate(102.725 69.229)" fill="#105e9b"/>
  <path id="Path_146" data-name="Path 146" d="M282.111,354.21c-1.292,1.9-9.058,3.606-18.457,4s-17.335-.639-18.755-2.414c1.264-1.888,9.03-3.592,18.457-4S280.663,352.435,282.111,354.21Z" transform="translate(102.793 69.538)" fill="#105e9b" opacity="0.4"/>
  <path id="Path_147" data-name="Path 147" d="M289.279,352.545c.128,3.024-9.427,5.878-21.3,6.389s-21.665-1.533-21.793-4.557,9.413-5.878,21.3-6.375S289.137,349.535,289.279,352.545Z" transform="translate(103.334 67.952)" fill="#105e9b"/>
  <rect id="Rectangle_66" data-name="Rectangle 66" width="43.188" height="5.466" transform="translate(349.216 416.883) rotate(-2.43)" fill="#105e9b"/>
  <path id="Path_148" data-name="Path 148" d="M289.113,348.7c.128,3.024-9.427,5.878-21.3,6.389s-21.679-1.533-21.807-4.557,9.427-5.864,21.3-6.375S288.986,345.686,289.113,348.7Z" transform="translate(103.258 66.335)" fill="#94c0e2"/>
  <path id="Path_150" data-name="Path 150" d="M285.553,348.164a.809.809,0,0,1-.185.54c-1.42-1.775-9.328-2.84-18.755-2.428s-17.221,2.115-18.457,4a.922.922,0,0,1-.227-.525c-.085-2.044,8.263-4.089,18.669-4.529S285.468,346.119,285.553,348.164Z" transform="translate(104.064 66.782)" fill="#105e9b"/>
  <path id="Path_152" data-name="Path 152" d="M285.3,348.394c-1.278,1.888-9.058,3.592-18.457,3.989s-17.335-.639-18.755-2.414c1.264-1.888,9.03-3.592,18.457-4S283.867,346.619,285.3,348.394Z" transform="translate(104.132 67.091)" fill="#105e9b" opacity="0.4"/>
  <circle id="Ellipse_11" data-name="Ellipse 11" cx="19.45" cy="19.45" r="19.45" transform="translate(342.763 384.717) rotate(-20.55)" fill="#105e9b"/>
  <circle id="Ellipse_12" data-name="Ellipse 12" cx="19.45" cy="19.45" r="19.45" transform="matrix(0.648, -0.762, 0.762, 0.648, 342.531, 399.265)" fill="#94c0e2"/>
  <path id="Path_153" data-name="Path 153" d="M278.129,344.976A14.552,14.552,0,1,1,270.9,325.7,14.552,14.552,0,0,1,278.129,344.976Z" transform="translate(105.072 58.072)" fill="#105e9b"/>
  <path id="Path_154" data-name="Path 154" d="M270.056,341.975a4.387,4.387,0,0,0-1.42-2.272,3.932,3.932,0,0,0,2.073-.7,4.1,4.1,0,0,0,1.42-1.7,3.691,3.691,0,0,0-.17-3.521A6.644,6.644,0,0,0,269.5,331.5l.5-1.093-1.675-.752-.454,1.008-1.675-.767.454-1.008-1.675-.767-.454,1.022-3.635-1.661-6.815,15.007,3.62,1.661-.483,1.065,1.675.752.483-1.065,1.675.767-.483,1.065,1.675.752.511-1.107a7.6,7.6,0,0,0,4.032.61,3.8,3.8,0,0,0,2.839-2.328,4.118,4.118,0,0,0,.44-2.683Zm-6.871-10.307,3.45,1.576a3.862,3.862,0,0,1,1.746,1.32,1.6,1.6,0,0,1,0,1.618,1.576,1.576,0,0,1-1.264,1.022,3.748,3.748,0,0,1-2.158-.426l-3.45-1.576Zm1.874,12.11a4.174,4.174,0,0,1-2.272-.5l-4.046-1.831,1.675-3.72,4.06,1.846c1.831.838,2.47,1.888,1.917,3.123a1.7,1.7,0,0,1-1.335,1.136Z" transform="translate(106.642 59.369)" fill="#fff" opacity="0.3"/>
  <path id="Path_155" data-name="Path 155" d="M397.187,414.5c-.44,1.775-6.46,1.789-13.445,0s-12.295-4.614-11.855-6.375,6.474-1.789,13.459,0S397.613,412.766,397.187,414.5Z" transform="translate(156.083 92.659)" fill="#407bff"/>
  <rect id="Rectangle_67" data-name="Rectangle 67" width="3.308" height="26.081" transform="matrix(0.243, -0.97, 0.97, 0.243, 527.986, 500.84)" fill="#407bff"/>
  <path id="Path_156" data-name="Path 156" d="M397.757,412.28c-.454,1.775-6.474,1.789-13.459,0s-12.281-4.6-11.841-6.375,6.46-1.789,13.445,0S398.2,410.462,397.757,412.28Z" transform="translate(156.322 91.726)" fill="#407bff"/>
  <path id="Path_157" data-name="Path 157" d="M397.757,412.28c-.454,1.775-6.474,1.789-13.459,0s-12.281-4.6-11.841-6.375,6.46-1.789,13.445,0S398.2,410.462,397.757,412.28Z" transform="translate(156.322 91.726)" fill="#fff" opacity="0.4"/>
  <path id="Path_158" data-name="Path 158" d="M395.658,411.448a.44.44,0,0,1-.2.284c-.525-1.278-4.912-3.237-10.435-4.614s-10.336-1.732-11.358-.852a.709.709,0,0,1,0-.341c.312-1.207,5.494-.951,11.6.568S395.97,410.255,395.658,411.448Z" transform="translate(156.832 91.976)" fill="#407bff"/>
  <path id="Path_159" data-name="Path 159" d="M395.658,411.448a.44.44,0,0,1-.2.284c-.525-1.278-4.912-3.237-10.435-4.614s-10.336-1.732-11.358-.852a.709.709,0,0,1,0-.341c.312-1.207,5.494-.951,11.6.568S395.97,410.255,395.658,411.448Z" transform="translate(156.832 91.976)" fill="#407bff" opacity="0.4"/>
  <path id="Path_160" data-name="Path 160" d="M395.447,411.549c-1.065.866-5.849.525-11.358-.852s-9.938-3.351-10.449-4.614c1.065-.88,5.849-.539,11.358.852S394.936,410.271,395.447,411.549Z" transform="translate(156.829 92.158)" fill="#407bff" opacity="0.4"/>
  <path id="Path_161" data-name="Path 161" d="M405.962,417.149c.085,1.817-5.679,3.549-12.891,3.847s-13.09-.923-13.161-2.74,5.679-3.549,12.891-3.862S405.891,415.275,405.962,417.149Z" transform="translate(159.461 95.829)" fill="#105e9b"/>
  <rect id="Rectangle_68" data-name="Rectangle 68" width="26.081" height="3.308" transform="translate(539.198 510.808) rotate(-2.43)" fill="#105e9b"/>
  <path id="Path_162" data-name="Path 162" d="M405.862,414.823c.085,1.831-5.679,3.549-12.877,3.862s-13.09-.923-13.175-2.754,5.679-3.549,12.891-3.847S405.791,412.992,405.862,414.823Z" transform="translate(159.419 94.861)" fill="#94c0e2"/>
  <path id="Path_164" data-name="Path 164" d="M403.733,414.529a.412.412,0,0,1-.114.327c-.866-1.065-5.679-1.7-11.358-1.42s-10.407,1.278-11.173,2.414a.482.482,0,0,1-.128-.312c0-1.235,4.983-2.47,11.273-2.74S403.733,413.223,403.733,414.529Z" transform="translate(159.902 95.155)" fill="#105e9b"/>
  <path id="Path_166" data-name="Path 166" d="M403.567,414.616c-.767,1.136-5.466,2.172-11.159,2.414s-10.463-.383-11.358-1.42c.767-1.136,5.466-2.172,11.173-2.414S402.7,413.551,403.567,414.616Z" transform="translate(159.94 95.325)" fill="#105e9b" opacity="0.4"/>
  <circle id="Ellipse_14" data-name="Ellipse 14" cx="19.45" cy="19.45" r="19.45" transform="translate(508.517 501.386) rotate(-56.72)" fill="#105e9b"/>
  <path id="Path_167" data-name="Path 167" d="M398.663,424.056a19.45,19.45,0,1,1-1.576-27.458,19.45,19.45,0,0,1,1.576,27.458Z" transform="translate(153.073 86.31)" fill="#94c0e2"/>
  <path id="Path_169" data-name="Path 169" d="M393.522,419.361a14.552,14.552,0,1,1,3.672-10.523A14.566,14.566,0,0,1,393.522,419.361Z" transform="translate(154.495 87.754)" fill="#105e9b"/>
  <g id="Group_8" data-name="Group 8" transform="translate(526.948 488.246)" opacity="0.3">
    <path id="Path_170" data-name="Path 170" d="M384.136,414.659c-1.732,2.839-4.813,2.91-8.007.511l-1.817,1.945-1.817-1.6,1.831-1.945a13.346,13.346,0,0,1-3.166-5.31L374,406.737a11.1,11.1,0,0,0,2.5,4.529l2.839-2.981c-1.32-2.073-2.683-4.5-1.122-7.028,1.718-2.768,4.856-2.839,8.078-.412l1.831-1.945,1.8,1.619-1.831,1.959a12.167,12.167,0,0,1,2.584,4.16l-2.712,1.59a9.468,9.468,0,0,0-2.016-3.492l-2.91,3.123C384.293,409.9,385.613,412.245,384.136,414.659Zm-2.5-8.9,2.385-2.541c-1.178-.7-2.158-.568-2.669.213a2.343,2.343,0,0,0,.284,2.314Zm-.767,6.843a2.172,2.172,0,0,0-.27-2.186l-2.272,2.414c1.122.625,2.044.539,2.541-.241Z" transform="translate(-371.16 -398.9)" fill="#fff"/>
  </g>
  <path id="Path_171" data-name="Path 171" d="M208.78,418.419c-.071,1.817,5.679,3.549,12.891,3.847s13.09-.923,13.161-2.74-5.679-3.549-12.877-3.862S208.865,416.587,208.78,418.419Z" transform="translate(87.632 96.363)" fill="#105e9b"/>
  <rect id="Rectangle_69" data-name="Rectangle 69" width="3.308" height="26.081" transform="translate(296.422 514.794) rotate(-87.57)" fill="#105e9b"/>
  <path id="Path_172" data-name="Path 172" d="M208.88,416.083c-.085,1.831,5.679,3.549,12.891,3.862s13.09-.923,13.161-2.754-5.679-3.549-12.891-3.847S208.951,414.294,208.88,416.083Z" transform="translate(87.674 95.39)" fill="#94c0e2"/>
  <path id="Path_174" data-name="Path 174" d="M210.05,415.743a.539.539,0,0,0,.114.327c.866-1.065,5.679-1.7,11.358-1.42s10.392,1.278,11.159,2.428a.568.568,0,0,0,.142-.327c0-1.235-5-2.47-11.273-2.726S210.107,414.508,210.05,415.743Z" transform="translate(88.165 95.674)" fill="#105e9b"/>
  <path id="Path_176" data-name="Path 176" d="M210.13,415.891c.781,1.15,5.466,2.172,11.159,2.414s10.478-.383,11.358-1.42c-.767-1.15-5.452-2.172-11.159-2.428S211,414.826,210.13,415.891Z" transform="translate(88.199 95.852)" fill="#105e9b" opacity="0.4"/>
  <path id="Path_177" data-name="Path 177" d="M206.85,414.9c0,1.817,5.679,3.549,12.891,3.847s13.09-.923,13.161-2.74-5.679-3.549-12.877-3.862S206.935,413.081,206.85,414.9Z" transform="translate(86.822 94.885)" fill="#105e9b"/>
  <rect id="Rectangle_70" data-name="Rectangle 70" width="3.308" height="26.081" transform="translate(293.656 509.752) rotate(-87.57)" fill="#105e9b"/>
  <path id="Path_178" data-name="Path 178" d="M207,412.563c0,1.831,5.679,3.549,12.891,3.862s13.09-.923,13.161-2.754-5.679-3.549-12.877-3.847S207,410.746,207,412.563Z" transform="translate(86.885 93.913)" fill="#94c0e2"/>
  <path id="Path_180" data-name="Path 180" d="M208.12,412.227a.539.539,0,0,0,.114.327c.866-1.065,5.679-1.689,11.358-1.42s10.392,1.264,11.159,2.414a.567.567,0,0,0,.142-.327c0-1.221-5-2.47-11.273-2.726S208.177,410.992,208.12,412.227Z" transform="translate(87.355 94.192)" fill="#105e9b"/>
  <path id="Path_182" data-name="Path 182" d="M208.2,412.366c.781,1.15,5.466,2.172,11.159,2.414s10.478-.383,11.358-1.42c-.767-1.15-5.452-2.172-11.159-2.414S209.066,411.3,208.2,412.366Z" transform="translate(87.389 94.38)" fill="#105e9b" opacity="0.4"/>
  <rect id="Rectangle_74" data-name="Rectangle 74" width="26.081" height="3.308" transform="matrix(0.97, -0.243, 0.243, 0.97, 276.308, 511.274)" fill="#105e9b"/>
  <path id="Path_213" data-name="Path 213" d="M281.46,418.334c-.085,1.874,5.849,3.649,13.246,3.961s13.459-.951,13.544-2.839-5.864-3.634-13.26-3.961S281.531,416.46,281.46,418.334Z" transform="translate(118.138 96.291)" fill="#105e9b"/>
  <rect id="Rectangle_76" data-name="Rectangle 76" width="3.393" height="26.819" transform="translate(399.568 514.58) rotate(-87.57)" fill="#105e9b"/>
  <path id="Path_214" data-name="Path 214" d="M281.56,415.944c-.085,1.874,5.849,3.649,13.246,3.961s13.459-.951,13.544-2.839-5.849-3.634-13.26-3.961S281.631,414.07,281.56,415.944Z" transform="translate(118.18 95.288)" fill="#94c0e2"/>
  <path id="Path_216" data-name="Path 216" d="M282.76,415.613a.611.611,0,0,0,.114.341c.894-1.107,5.792-1.746,11.656-1.5s10.691,1.306,11.471,2.485a.483.483,0,0,0,.142-.327c0-1.264-5.125-2.541-11.585-2.839S282.817,414.349,282.76,415.613Z" transform="translate(118.684 95.562)" fill="#407bff"/>
  <path id="Path_217" data-name="Path 217" d="M282.76,415.613a.611.611,0,0,0,.114.341c.894-1.107,5.792-1.746,11.656-1.5s10.691,1.306,11.471,2.485a.483.483,0,0,0,.142-.327c0-1.264-5.125-2.541-11.585-2.839S282.817,414.349,282.76,415.613Z" transform="translate(118.684 95.562)" fill="#407bff" opacity="0.4"/>
  <path id="Path_218" data-name="Path 218" d="M282.84,415.751c.809,1.164,5.679,2.229,11.486,2.484s10.762-.4,11.642-1.5c-.781-1.178-5.608-2.229-11.471-2.485S283.734,414.644,282.84,415.751Z" transform="translate(118.718 95.765)" fill="#105e9b" opacity="0.4"/>
  <path id="Path_219" data-name="Path 219" d="M279.47,414.714c-.071,1.874,5.863,3.649,13.26,3.975s13.459-.951,13.53-2.839-5.849-3.649-13.246-3.975S279.555,412.84,279.47,414.714Z" transform="translate(117.303 94.771)" fill="#105e9b"/>
  <rect id="Rectangle_77" data-name="Rectangle 77" width="3.393" height="26.819" transform="translate(396.77 509.476) rotate(-87.57)" fill="#105e9b"/>
  <path id="Path_220" data-name="Path 220" d="M279.58,412.324c-.085,1.874,5.849,3.649,13.246,3.975s13.459-.951,13.544-2.839-5.863-3.649-13.26-3.975S279.651,410.45,279.58,412.324Z" transform="translate(117.349 93.768)" fill="#94c0e2"/>
  <path id="Path_222" data-name="Path 222" d="M280.78,411.993a.611.611,0,0,0,.114.341c.894-1.107,5.793-1.746,11.642-1.5s10.7,1.306,11.486,2.485a.568.568,0,0,0,.142-.327c0-1.264-5.139-2.541-11.6-2.839S280.837,410.729,280.78,411.993Z" transform="translate(117.853 94.043)" fill="#105e9b"/>
  <path id="Path_224" data-name="Path 224" d="M280.86,412.131c.8,1.164,5.679,2.229,11.471,2.485s10.776-.4,11.656-1.5c-.781-1.178-5.608-2.229-11.486-2.484S281.754,411.024,280.86,412.131Z" transform="translate(117.886 94.245)" fill="#105e9b" opacity="0.4"/>
  <path id="Path_225" data-name="Path 225" d="M283.73,412.043c-.085,1.86,5.849,3.635,13.246,3.961s13.459-.951,13.544-2.839-5.863-3.649-13.26-3.961S283.8,410.169,283.73,412.043Z" transform="translate(119.091 93.652)" fill="#105e9b"/>
  <rect id="Rectangle_78" data-name="Rectangle 78" width="3.393" height="26.819" transform="translate(402.793 505.657) rotate(-87.57)" fill="#105e9b"/>
  <path id="Path_226" data-name="Path 226" d="M283.83,409.639c-.085,1.874,5.849,3.649,13.246,3.975s13.459-.951,13.544-2.839-5.863-3.649-13.26-3.961S283.9,407.779,283.83,409.639Z" transform="translate(119.133 92.648)" fill="#94c0e2"/>
  <path id="Path_228" data-name="Path 228" d="M285,409.313a.61.61,0,0,0,.114.341c.894-1.107,5.793-1.746,11.642-1.5s10.7,1.306,11.486,2.485a.568.568,0,0,0,.142-.327c0-1.264-5.139-2.541-11.6-2.839S285.1,408.049,285,409.313Z" transform="translate(119.624 92.918)" fill="#105e9b"/>
  <path id="Path_230" data-name="Path 230" d="M285.11,409.461c.8,1.178,5.679,2.229,11.471,2.485s10.776-.4,11.656-1.5c-.781-1.178-5.608-2.229-11.486-2.484S286,408.34,285.11,409.461Z" transform="translate(119.67 93.124)" fill="#105e9b" opacity="0.4"/>
  <path id="Path_231" data-name="Path 231" d="M283.78,408.423c-.085,1.874,5.849,3.649,13.246,3.961s13.459-.951,13.544-2.839-5.864-3.649-13.26-3.961S283.851,406.549,283.78,408.423Z" transform="translate(119.112 92.132)" fill="#105e9b"/>
  <rect id="Rectangle_79" data-name="Rectangle 79" width="3.393" height="26.819" transform="matrix(0.04, -1, 1, 0.04, 402.881, 500.866)" fill="#105e9b"/>
  <path id="Path_232" data-name="Path 232" d="M283.88,406.033c-.085,1.874,5.849,3.649,13.246,3.961s13.459-.951,13.544-2.839-5.863-3.649-13.26-3.961S283.951,404.159,283.88,406.033Z" transform="translate(119.154 91.129)" fill="#94c0e2"/>
  <path id="Path_234" data-name="Path 234" d="M285.08,405.707a.568.568,0,0,0,.114.327c.894-1.107,5.792-1.746,11.642-1.5s10.7,1.32,11.486,2.485a.483.483,0,0,0,.142-.327c0-1.264-5.125-2.541-11.6-2.839S285.137,404.429,285.08,405.707Z" transform="translate(119.658 91.399)" fill="#105e9b"/>
  <path id="Path_236" data-name="Path 236" d="M285.16,405.831c.8,1.178,5.679,2.229,11.486,2.485s10.762-.4,11.642-1.5c-.781-1.164-5.608-2.229-11.486-2.485S286.054,404.724,285.16,405.831Z" transform="translate(119.691 91.601)" fill="#105e9b" opacity="0.4"/>
  <path id="Path_237" data-name="Path 237" d="M279.9,405.463c-.085,1.874,5.849,3.649,13.246,3.961s13.459-.951,13.544-2.839-5.849-3.649-13.246-3.961S280.042,403.589,279.9,405.463Z" transform="translate(117.483 90.89)" fill="#105e9b"/>
  <rect id="Rectangle_80" data-name="Rectangle 80" width="3.393" height="26.819" transform="translate(397.397 496.382) rotate(-87.56)" fill="#105e9b"/>
  <path id="Path_238" data-name="Path 238" d="M280,403.073c-.085,1.874,5.849,3.649,13.246,3.961s13.459-.951,13.544-2.839-5.849-3.649-13.246-3.961S280.085,401.2,280,403.073Z" transform="translate(117.525 89.887)" fill="#94c0e2"/>
  <path id="Path_240" data-name="Path 240" d="M281.2,402.743a.568.568,0,0,0,.114.327c.909-1.093,5.807-1.746,11.656-1.491s10.691,1.306,11.471,2.47a.455.455,0,0,0,.142-.312c0-1.278-5.125-2.541-11.585-2.839S281.257,401.465,281.2,402.743Z" transform="translate(118.029 90.16)" fill="#105e9b"/>
  <path id="Path_242" data-name="Path 242" d="M281.28,402.866c.809,1.178,5.679,2.243,11.486,2.484s10.762-.4,11.642-1.5c-.781-1.164-5.608-2.229-11.471-2.47S282.189,401.773,281.28,402.866Z" transform="translate(118.063 90.364)" fill="#105e9b" opacity="0.4"/>
  <path id="Path_243" data-name="Path 243" d="M304.285,412.032c-.781,1.661,3.876,5.48,10.392,8.518s12.437,4.259,13.2,2.555-3.876-5.466-10.392-8.518S305.052,410.385,304.285,412.032Z" transform="translate(127.683 94.543)" fill="#105e9b"/>
  <rect id="Rectangle_81" data-name="Rectangle 81" width="3.308" height="26.081" transform="translate(431.974 506.632) rotate(-64.83)" fill="#105e9b"/>
  <path id="Path_244" data-name="Path 244" d="M305.275,409.933c-.781,1.647,3.876,5.466,10.392,8.518s12.437,4.259,13.2,2.555-3.876-5.48-10.392-8.518S306.042,408.272,305.275,409.933Z" transform="translate(128.098 93.66)" fill="#94c0e2"/>
  <path id="Path_246" data-name="Path 246" d="M306.349,410.238a.469.469,0,0,0,0,.341c1.207-.639,5.849.61,11,3.038s9.1,5.2,9.37,6.545a.5.5,0,0,0,.241-.241c.525-1.122-3.649-4.259-9.342-6.886S306.875,409.131,306.349,410.238Z" transform="translate(128.572 93.938)" fill="#105e9b"/>
  <path id="Path_248" data-name="Path 248" d="M306.33,410.409c.27,1.42,4.259,4.117,9.356,6.545s9.81,3.691,11.017,3.038c-.27-1.349-4.259-4.117-9.37-6.545S307.537,409.77,306.33,410.409Z" transform="translate(128.577 94.108)" fill="#105e9b" opacity="0.4"/>
  <path id="Path_249" data-name="Path 249" d="M294.61,416.769c-.071,1.817,5.679,3.535,12.891,3.847s13.09-.923,13.175-2.74-5.679-3.549-12.891-3.862S294.7,414.937,294.61,416.769Z" transform="translate(123.657 95.67)" fill="#105e9b"/>
  <rect id="Rectangle_82" data-name="Rectangle 82" width="3.308" height="26.081" transform="translate(418.251 512.39) rotate(-87.57)" fill="#105e9b"/>
  <path id="Path_250" data-name="Path 250" d="M294.71,414.433c0,1.817,5.679,3.549,12.891,3.862s13.09-.937,13.161-2.754-5.679-3.549-12.877-3.847S294.8,412.616,294.71,414.433Z" transform="translate(123.7 94.697)" fill="#94c0e2"/>
  <path id="Path_252" data-name="Path 252" d="M295.88,414.1a.539.539,0,0,0,.114.327c.88-1.079,5.679-1.7,11.358-1.42s10.407,1.278,11.159,2.414a.454.454,0,0,0,.142-.312c0-1.235-5-2.47-11.273-2.74S295.937,412.863,295.88,414.1Z" transform="translate(124.191 94.976)" fill="#105e9b"/>
  <path id="Path_254" data-name="Path 254" d="M296,414.237c.781,1.136,5.466,2.172,11.159,2.414s10.478-.383,11.358-1.42c-.752-1.136-5.452-2.172-11.159-2.414S296.823,413.1,296,414.237Z" transform="translate(124.241 95.164)" fill="#105e9b" opacity="0.4"/>
  <g id="freepik--chart-1--inject-8" transform="translate(152.494 147.652)">
    <path id="Path_255" data-name="Path 255" d="M132.93,159v8.518a25.555,25.555,0,0,1,14.552,6.034l6.062-6.062A34.073,34.073,0,0,0,132.93,159Z" transform="translate(-96.698 -159)" fill="#8fbada"/>
    <path id="Path_256" data-name="Path 256" d="M139.465,208.037a25.626,25.626,0,0,1-23.5-23.5H107.45a34.187,34.187,0,0,0,32.015,32.072Z" transform="translate(-107.393 -148.28)" fill="#87b1d2"/>
    <path id="Path_257" data-name="Path 257" d="M116.014,191.085a25.655,25.655,0,0,1,23.468-23.5V159.07a34.2,34.2,0,0,0-32.072,32.072Z" transform="translate(-107.41 -158.971)" fill="#a8d1f2"/>
    <path id="Path_259" data-name="Path 259" d="M156.469,167.118l-6.062,6.062a25.64,25.64,0,0,1-17.477,42.18v8.518a34.2,34.2,0,0,0,23.539-56.789Z" transform="translate(-96.698 -155.604)" fill="#105e9b"/>
  </g>
  <g id="freepik--Arrow--inject-8" transform="translate(248.879 94.824)">
    <path id="Path_264" data-name="Path 264" d="M175.3,165.617l10.861,14.737,62.582-25.981,61.006,21.694,55.27-35.735,3.961,5.253,13.133-21.495-29.431-2.3,4.515,5.949-55.313,35.408-60.1-21.324Z" transform="translate(-175.3 -121.79)" fill="#105e9b"/>
  </g>
  <g id="freepik--Symbol--inject-8" transform="translate(491.654 147.823)">
    <path id="Path_266" data-name="Path 266" d="M360.071,159.12a13.771,13.771,0,1,0,13.771,13.771A13.771,13.771,0,0,0,360.071,159.12Zm0,20.657a6.886,6.886,0,1,1,6.872-6.886A6.886,6.886,0,0,1,360.071,179.777Z" transform="translate(-346.3 -159.12)" fill="#87b1d2"/>
    <path id="Path_267" data-name="Path 267" d="M384.526,187.58a13.771,13.771,0,1,0,13.757,13.771A13.771,13.771,0,0,0,384.526,187.58Zm0,20.643a6.886,6.886,0,1,1,6.871-6.871,6.886,6.886,0,0,1-6.871,6.871Z" transform="translate(-336.042 -147.174)" fill="#87b1d2"/>
    <path id="Path_268" data-name="Path 268" d="M362.337,227.068H353.18L385,159.12h9.157Z" transform="translate(-343.412 -159.12)" fill="#87b1d2"/>
  </g>
  <g id="freepik--Character--inject-2--inject-8" transform="translate(295.219 93.166)">
    <path id="Path_272" data-name="Path 272" d="M245,164.413c.369,1.76.724,3.294,1.136,4.9s.852,3.109,1.32,4.728c.923,3.109,1.988,6.2,3.166,9.342a77.076,77.076,0,0,0,9.583,18.343,35,35,0,0,0,3.918,4.415,22.2,22.2,0,0,0,5.409,3.819,24.135,24.135,0,0,0,12.252,2.371,34.23,34.23,0,0,0,10.747-2.527,46.11,46.11,0,0,0,4.713-2.243,23.928,23.928,0,0,0,2.215-1.42c.71-.525,1.42-.965,2.215-1.547l-3.791-6.687-1.988.525-2.087.5c-1.42.312-2.839.582-4.259.767a29.416,29.416,0,0,1-7.738.156,12.679,12.679,0,0,1-5.764-2.073,13.179,13.179,0,0,1-2.044-1.817,26.189,26.189,0,0,1-2.073-2.839,50.535,50.535,0,0,1-3.762-7.1c-1.164-2.57-2.186-5.281-3.152-8.064s-1.831-5.679-2.7-8.518L261.1,165.18c-.383-1.42-.809-2.925-1.107-4.16Z" transform="translate(-192.385 -103.666)" fill="#ff8b7b"/>
    <path id="Path_273" data-name="Path 273" d="M244.906,158.7c6.446-8.192,16.213-5.2,21.708,7.837a127.619,127.619,0,0,1,7.212,21.481l-22.915,8.05C244.891,183.755,238.29,167.088,244.906,158.7Z" transform="translate(-193.582 -106.554)" fill="#94c0e2"/>
    <path id="Path_275" data-name="Path 275" d="M253.059,167.042c-1.874-1.278-5.75,6.176-7.539,14.95,1.264,3.067,2.612,6.005,3.961,8.731l13.786-4.841C261.009,177.634,257.3,169.882,253.059,167.042Z" transform="translate(-192.166 -101.198)" fill="#105e9b" opacity="0.7"/>
    <path id="Path_276" data-name="Path 276" d="M284.254,185.44l5.012-2.74,1.76,11.188s-8.376,5.054-10.776.88l.256-2.839A9.2,9.2,0,0,1,284.254,185.44Z" transform="translate(-177.589 -94.566)" fill="#ff8b7b"/>
    <path id="Path_277" data-name="Path 277" d="M292.9,182.31l4.387,9-8.958,2.754-1.76-11.2Z" transform="translate(-174.936 -94.73)" fill="#ff8b7b"/>
    <path id="Path_278" data-name="Path 278" d="M255.365,152.689,243.666,151l-14.609,1.278a10.165,10.165,0,0,0-9.115,8.291,259.982,259.982,0,0,0-2.91,32.214c-.511,12.139.838,30.056,2.839,46.241l48.81-5.906c.469-42.592,3.691-55.781,4.089-67.068a10.123,10.123,0,0,0-7.1-10.023Z" transform="translate(-204.169 -107.872)" fill="#407bff"/>
    <path id="Path_279" data-name="Path 279" d="M254.42,308.161l10.392,2.882,9.3-24.405-10.364-2.868Z" transform="translate(-188.431 -52.144)" fill="#ff8b7b"/>
    <path id="Path_280" data-name="Path 280" d="M270.491,301.92a5.424,5.424,0,0,0-3.336-2.03l-10.691-2.073a.98.98,0,0,0-1.15.653l-3.28,9.754a2.158,2.158,0,0,0,1.306,2.726h.114c3.947,1.562,6.616,1.022,12.778,2.215,3.791.738,11.77,3.265,17.037,3.052s5.324-5.494,3.081-5.892C278.4,309.09,272.308,304.32,270.491,301.92Z" transform="translate(-189.481 -46.258)" fill="#263238"/>
    <g id="Group_14" data-name="Group 14" transform="translate(70.504 231.626)" opacity="0.2">
      <path id="Path_281" data-name="Path 281" d="M272.777,286.652l-4.955,12.976-10.222-3.28,4.8-12.579Z" transform="translate(-257.6 -283.77)"/>
    </g>
    <path id="Path_282" data-name="Path 282" d="M309.109,239.076a71.78,71.78,0,0,1-2.1,11.443c-2.74,10.591-7.425,21.381-11.358,31.9-7.61,20.785-14.283,38.844-14.283,38.844l-14.2-4.912s12.778-60.14,21.4-66.287H235.723a21.935,21.935,0,0,1-2.953-.2c9.1-1.178,23.284-6.786,36.445-12.394,11.628-4.969,22.5-9.938,28.395-11.812h0C304.821,228.741,309.663,233.014,309.109,239.076Z" transform="translate(-197.518 -76.535)" fill="#263238"/>
    <path id="Path_283" data-name="Path 283" d="M309.109,239.076a71.78,71.78,0,0,1-2.1,11.443c-2.74,10.591-7.425,21.381-11.358,31.9-7.61,20.785-14.283,38.844-14.283,38.844l-14.2-4.912s12.778-60.14,21.4-66.287H235.723a21.935,21.935,0,0,1-2.953-.2c9.1-1.178,23.284-6.786,36.445-12.394,11.628-4.969,22.5-9.938,28.395-11.812h0C304.821,228.741,309.663,233.014,309.109,239.076Z" transform="translate(-197.518 -76.535)" opacity="0.1"/>
    <path id="Path_284" data-name="Path 284" d="M301.947,230.779c-5.906,1.917-16.781,6.843-28.395,11.812-13.161,5.608-27.344,11.216-36.445,12.394-15.333-2.044-21.1-20.316-5.068-41.385,10.407,0,20.87,9.938,20.87,9.938S284.371,223.382,301.947,230.779Z" transform="translate(-201.841 -81.597)" opacity="0.6"/>
    <path id="Path_285" data-name="Path 285" d="M307.887,294.8H319.5L307.334,265.64l-7.894,13.388Z" transform="translate(-169.534 -59.754)" fill="#ff8b7b"/>
    <path id="Path_286" data-name="Path 286" d="M318.419,285.169l-13.644-3.109a.937.937,0,0,0-1.136.611l-3.8,10.492a2.1,2.1,0,0,0,1.42,2.6h.071c4.785,1.008,7.1,1.249,13.133,2.6,3.691.852,13.033,3.294,18.13,4.458s6.431-3.833,4.4-4.784c-9.086-4.259-14.027-8.234-16.668-11.67A3.266,3.266,0,0,0,318.419,285.169Z" transform="translate(-169.404 -52.875)" fill="#263238"/>
    <g id="Group_15" data-name="Group 15" transform="translate(129.906 205.886)" opacity="0.2">
      <path id="Path_287" data-name="Path 287" d="M307.334,265.64l5.182,12.423L302.052,283.9l-2.612-4.87Z" transform="translate(-299.44 -265.64)"/>
    </g>
    <path id="Path_288" data-name="Path 288" d="M347.3,297.522l-12.778,7.738s-10.662-22.389-20.856-47.646a71.773,71.773,0,0,0,2.1-11.443c.554-6.062-4.259-10.336-11.471-13.346h0c-5.906,1.917-16.781,6.843-28.395,11.812-13.161,5.608-27.344,11.216-36.445,12.394a25.718,25.718,0,0,1-3.152.227c-17.491,0-23.525-15.333-16.469-41.343,10.407,0,28.224-1.122,28.224-1.122s34.386-8.263,59.132-5.452A27.926,27.926,0,0,1,331.325,231.7C337.7,263.278,347.3,297.522,347.3,297.522Z" transform="translate(-204.159 -83.628)" fill="#263238"/>
    <path id="Path_289" data-name="Path 289" d="M347.3,297.522l-12.778,7.738s-10.662-22.389-20.856-47.646a71.773,71.773,0,0,0,2.1-11.443c.554-6.062-4.259-10.336-11.471-13.346h0c-5.906,1.917-16.781,6.843-28.395,11.812-13.161,5.608-27.344,11.216-36.445,12.394a25.718,25.718,0,0,1-3.152.227c-17.491,0-23.525-15.333-16.469-41.343,10.407,0,28.224-1.122,28.224-1.122s34.386-8.263,59.132-5.452A27.926,27.926,0,0,1,331.325,231.7C337.7,263.278,347.3,297.522,347.3,297.522Z" transform="translate(-204.159 -83.628)" fill="#263238"/>
    <path id="Path_290" data-name="Path 290" d="M255.365,152.689,243.666,151l-14.609,1.278a10.165,10.165,0,0,0-9.115,8.291,259.982,259.982,0,0,0-2.91,32.214c-.511,12.139.838,30.056,2.839,46.241l48.81-5.906c.469-42.592,3.691-55.781,4.089-67.068a10.123,10.123,0,0,0-7.1-10.023Z" transform="translate(-204.169 -107.872)" fill="#94c0e2"/>
    <path id="Path_291" data-name="Path 291" d="M219.3,212.065l-1.264,3.961c-.156.3.185.625.71.639l48.725-2.91c.4,0,.738-.185.767-.44l.525-3.975c0-.284-.312-.525-.738-.539l-47.944,2.939a.838.838,0,0,0-.781.327Z" transform="translate(-203.716 -83.611)" fill="#263238"/>
    <path id="Path_292" data-name="Path 292" d="M219.3,212.065l-1.264,3.961c-.156.3.185.625.71.639l48.725-2.91c.4,0,.738-.185.767-.44l.525-3.975c0-.284-.312-.525-.738-.539l-47.944,2.939a.838.838,0,0,0-.781.327Z" transform="translate(-203.716 -83.611)" opacity="0.1"/>
    <path id="Path_293" data-name="Path 293" d="M225,154.967c9.725-1.7,9.242,20.4,4.813,36.572-1.278,4.685-6.815,2.726-8.689,1.5C214.977,189.126,212.9,162.038,225,154.967Z" transform="translate(-204.471 -106.246)" fill="#105e9b" opacity="0.71"/>
    <path id="Path_294" data-name="Path 294" d="M226.6,179.589c.369,9.555-2.669,14.566,2.428,17.761s35.209,13.175,35.948,11.926c-1.42,2.3-2.839,4.259-4.259,6.588q-13.019-1.959-26.052-3.62c-6.346-.8-16.582-2.428-21.552-6.46-4.515-3.635-3.706-19.592-2.939-31.092C214.166,172.32,226.6,179.589,226.6,179.589Z" transform="translate(-207.252 -98.128)" fill="#ff8b7b"/>
    <path id="Path_295" data-name="Path 295" d="M224.693,152.379c9.938-2.939,13.786,5.068,10.747,18.826a125.474,125.474,0,0,1-6.573,21.708l-20.927-6.6C210.212,172.809,214.442,155.389,224.693,152.379Z" transform="translate(-207.94 -107.547)" fill="#94c0e2"/>
    <path id="Path_296" data-name="Path 296" d="M230.019,153.7a8.519,8.519,0,0,0,1.519,6.005,25.555,25.555,0,0,0,4.259,4.643c1.973,1.8,4.33,3.748,7,3.393,2.456-.327,3.862-1.562,4.855-4.486,2.1,3.393,2.2,5.083,4.515,5.3a5.2,5.2,0,0,0,3.847-2.03,8.4,8.4,0,0,0,3.024-5.679c.554-4.259-2.925-8.263-6.985-9.782a51.111,51.111,0,0,0-12.778-2.527C235.485,148.134,230.715,149.312,230.019,153.7Z" transform="translate(-198.7 -108.938)" fill="#105e9b"/>
    <path id="Path_298" data-name="Path 298" d="M238.52,137.64l5.3,6.119,7.2,8.32a9.3,9.3,0,0,0-1.42,2.953,5.1,5.1,0,0,0,2,6.375c1.093.511,1.661,6.261-5.58,5.679A15.021,15.021,0,0,1,235.1,162.1c-1.32-1.775-1.675-2.726-.312-4.671C238.648,151.937,238.96,143.972,238.52,137.64Z" transform="translate(-197.035 -113.479)" fill="#ff8b7b"/>
    <path id="Path_299" data-name="Path 299" d="M246.273,148.135l-4.543-6.005a2.536,2.536,0,0,1-.17.568,15.869,15.869,0,0,0-.454,2.584c-.27,2.981,2.527,6.8,5.253,8.433l.213-.6a11.23,11.23,0,0,1,1.42-2.839.54.54,0,0,1,.128-.128Z" transform="translate(-194.027 -111.595)" opacity="0.2"/>
    <path id="Path_300" data-name="Path 300" d="M237.716,133.524c-.823,9.867-1.732,15.617,2.5,21.211,6.4,8.518,19.152,5.48,22.872-4,3.351-8.518,4.046-23.241-5.012-28.395a13.743,13.743,0,0,0-18.669,5.381A13.572,13.572,0,0,0,237.716,133.524Z" transform="translate(-195.734 -120.622)" fill="#ff8b7b"/>
    <path id="Path_301" data-name="Path 301" d="M238.227,141.705l4.259,1.831h0c1.42-.6,1.746-2.314,1.647-3.876-.426-6.02,10.435-13.374,10.435-13.374s-11.486-3.777-14.936-4.344c-1.207-.2-5.551,2.953-6.218,4.259a11.358,11.358,0,0,0,1.42,11.883A25.556,25.556,0,0,0,238.227,141.705Z" transform="translate(-197.694 -120.072)" fill="#263238"/>
    <path id="Path_302" data-name="Path 302" d="M233.936,135.9a9.072,9.072,0,0,0,2.839,5.764c2.1,1.931,4.671-.17,4.983-2.981.256-2.5-1.008-6.147-3.564-6.985S233.695,133.15,233.936,135.9Z" transform="translate(-197.037 -116.046)" fill="#ff8b7b"/>
    <path id="Path_303" data-name="Path 303" d="M247.952,134.254c-.156.809.142,1.562.667,1.675s1.022-.44,1.235-1.249a1.311,1.311,0,0,0-.681-1.675C248.648,132.891,248.037,133.43,247.952,134.254Z" transform="translate(-191.163 -115.432)" fill="#263238"/>
    <path id="Path_304" data-name="Path 304" d="M254.362,135.66c-.156.823.142,1.576.681,1.689s1.065-.454,1.221-1.249-.156-1.562-.681-1.675S254.518,134.85,254.362,135.66Z" transform="translate(-188.472 -114.836)" fill="#263238"/>
    <path id="Path_305" data-name="Path 305" d="M252.693,135.26a27.187,27.187,0,0,0,1.732,6.758,3.947,3.947,0,0,1-3.365-.327Z" transform="translate(-189.841 -114.478)" fill="#ff5652"/>
    <path id="Path_306" data-name="Path 306" d="M250.658,144.208a7.013,7.013,0,0,1-4.1-3.762.241.241,0,0,1,.128-.312.27.27,0,0,1,.327.142,6.744,6.744,0,0,0,4.671,3.748.241.241,0,0,1,.213.27.256.256,0,0,1-.284.213h0a5.323,5.323,0,0,1-.951-.3Z" transform="translate(-191.739 -112.438)" fill="#263238"/>
    <path id="Path_307" data-name="Path 307" d="M247.16,132.17a.327.327,0,0,1-.2-.128.483.483,0,0,1,0-.681,4.628,4.628,0,0,1,4.259-1.036.483.483,0,0,1,.327.6h0a.483.483,0,0,1-.61.3,3.762,3.762,0,0,0-3.322.838A.44.44,0,0,1,247.16,132.17Z" transform="translate(-191.62 -116.613)" fill="#263238"/>
    <path id="Path_308" data-name="Path 308" d="M255.085,131.767a.454.454,0,0,1,0-.241.483.483,0,0,1,.6-.341,4.671,4.671,0,0,1,3.265,2.839.5.5,0,0,1-.327.61.483.483,0,0,1-.6-.327,3.72,3.72,0,0,0-2.6-2.257.469.469,0,0,1-.341-.284Z" transform="translate(-188.159 -116.196)" fill="#263238"/>
  </g>
  <path id="Path_309" data-name="Path 309" d="M258.285,222.065l62.3.185a4.458,4.458,0,0,0,4.359-3.975l2.839-31.547a3.62,3.62,0,0,0-3.649-4l-62.3-.185a4.472,4.472,0,0,0-4.359,3.989l-2.839,31.532a3.62,3.62,0,0,0,3.649,4Z" transform="translate(106.871 -1.467)" fill="#105e9b"/>
  <path id="Path_311" data-name="Path 311" d="M259.571,221.975l62.3.185a4.458,4.458,0,0,0,4.359-3.989l2.84-31.532a3.606,3.606,0,0,0-3.635-4l-62.3-.185a4.486,4.486,0,0,0-4.359,3.989l-2.839,31.532a3.606,3.606,0,0,0,3.634,4Z" transform="translate(107.416 -1.505)" fill="#94c0e2"/>
  <path id="Path_313" data-name="Path 313" d="M287.366,198.184a4.4,4.4,0,1,1-3.933-4.827A4.4,4.4,0,0,1,287.366,198.184Z" transform="translate(116.932 3.063)" fill="#fff"/>
  <path id="Path_314" data-name="Path 314" d="M323.118,210.47c0,1.888-1.122,3.422-2.485,3.422h0l-64.3-.256c-.7,0-1.264-.767-1.264-1.7s.568-1.732,1.264-1.732Z" transform="translate(107.062 10.143)" fill="#105e9b"/>
  <path id="Path_316" data-name="Path 316" d="M265.712,213.65h-30.95a2.981,2.981,0,0,1-2.981-2.981h0a.454.454,0,0,1,.454-.469h33.477a1.718,1.718,0,0,1,1.718,1.732h0A1.718,1.718,0,0,1,265.712,213.65Z" transform="translate(97.286 10.143)" fill="#5b96c4"/>
  <path id="Path_317" data-name="Path 317" d="M246.024,196.245l5.139-1.5-.469,12.65s-11.159,2.627-11.855-2.513l1.42-2.768C241.495,199.723,243.2,196.941,246.024,196.245Z" transform="translate(100.249 3.654)" fill="#ff8b7b"/>
  <path id="Path_318" data-name="Path 318" d="M255.353,198.247l-1.519,7.1-6.644,2.03.469-12.636Z" transform="translate(103.754 3.654)" fill="#ff8b7b"/>
  <path id="Path_319" data-name="Path 319" d="M254.37,291.488l21.3,7.226,4.359-8.8-23.553-7.482Z" transform="translate(106.768 40.46)" fill="#94c0e2"/>
  <path id="Path_320" data-name="Path 320" d="M299.03,283.9l19.635-10.96-3.606-9.129L293.72,276.275Z" transform="translate(123.284 32.645)" fill="#94c0e2"/>
  <path id="Path_321" data-name="Path 321" d="M268.138,136.132c2.925-.17,4.117-3.62,3.762-5.1a7.581,7.581,0,0,0-3.294-4.728c.937-2.839-.327-6.3-3.848-8.7a9.8,9.8,0,0,0-8.518-.625c0-2.57-4.728-4.259-7.766-1.051a6.815,6.815,0,0,0-8.135.724,2.839,2.839,0,0,0-.909,2.74,6.715,6.715,0,0,0-5.509,10.435c.951,1.42,3.209,1.42,4.912,1.051a6.829,6.829,0,0,0,4.387,3.223c5.608,1.86,13.317.114,14.68,0a5.679,5.679,0,0,1,3.933.781,2.981,2.981,0,0,1-2.229,1.235,8.4,8.4,0,0,1-2.527-.128,8.845,8.845,0,0,0,6.446,1.32,30.011,30.011,0,0,1,2.953-1.292A15.955,15.955,0,0,1,268.138,136.132Z" transform="translate(97.713 -30.163)" fill="#263238"/>
  <g id="Group_80" data-name="Group 80" transform="translate(-898 -180.922)">
    <path id="Path_453" data-name="Path 453" d="M208.12,404.159c-.085,1.817,5.679,3.549,12.891,3.847s13.09-.923,13.161-2.74-5.679-3.549-12.891-3.862S208.191,402.271,208.12,404.159Z" transform="translate(982.25 281.028)" fill="#105e9b"/>
    <rect id="Rectangle_135" data-name="Rectangle 135" width="3.308" height="26.081" transform="translate(1190.344 685.15) rotate(-87.57)" fill="#105e9b"/>
    <path id="Path_454" data-name="Path 454" d="M208.22,401.823c-.085,1.831,5.679,3.549,12.877,3.862s13.09-.923,13.175-2.754-5.679-3.549-12.891-3.847S208.291,400.006,208.22,401.823Z" transform="translate(982.292 280.056)" fill="#94c0e2"/>
    <path id="Path_456" data-name="Path 456" d="M209.391,401.529a.412.412,0,0,0,.114.327c.866-1.065,5.679-1.7,11.358-1.42s10.407,1.278,11.173,2.414a.483.483,0,0,0,.128-.312c0-1.235-4.983-2.47-11.273-2.74S209.433,400.237,209.391,401.529Z" transform="translate(982.782 280.351)" fill="#105e9b"/>
    <path id="Path_455" data-name="Path 455" d="M209.47,401.626c.767,1.136,5.466,2.172,11.159,2.414s10.463-.383,11.358-1.42c-.767-1.136-5.466-2.172-11.173-2.414S210.336,400.561,209.47,401.626Z" transform="translate(982.817 280.524)" fill="#105e9b" opacity="0.4"/>
  </g>
  <path id="Path_189" data-name="Path 189" d="M205.17,407.139c0,1.817,5.679,3.549,12.891,3.847s13.09-.923,13.175-2.74-5.679-3.549-12.891-3.862S205.255,405.279,205.17,407.139Z" transform="translate(86.117 91.628)" fill="#105e9b"/>
  <rect id="Rectangle_72" data-name="Rectangle 72" width="3.308" height="26.081" transform="translate(291.279 498.748) rotate(-87.57)" fill="#105e9b"/>
  <path id="Path_190" data-name="Path 190" d="M205.27,404.825c-.071,1.831,5.679,3.549,12.891,3.862s13.09-.923,13.161-2.754-5.679-3.535-12.877-3.847S205.355,402.979,205.27,404.825Z" transform="translate(86.159 90.663)" fill="#94c0e2"/>
  <path id="Path_192" data-name="Path 192" d="M206.44,404.467a.539.539,0,0,0,.114.327c.88-1.065,5.679-1.69,11.358-1.42s10.407,1.264,11.159,2.414a.483.483,0,0,0,.142-.312c0-1.235-5-2.484-11.273-2.74S206.5,403.246,206.44,404.467Z" transform="translate(86.65 90.935)" fill="#105e9b"/>
  <path id="Path_194" data-name="Path 194" d="M206.52,404.605c.781,1.15,5.466,2.172,11.159,2.414s10.478-.383,11.358-1.42c-.752-1.15-5.452-2.172-11.159-2.414S207.4,403.541,206.52,404.605Z" transform="translate(86.683 91.123)" fill="#105e9b" opacity="0.4"/>
  <path id="Path_195" data-name="Path 195" d="M208.12,404.159c-.085,1.817,5.679,3.549,12.891,3.847s13.09-.923,13.161-2.74-5.679-3.549-12.891-3.862S208.191,402.271,208.12,404.159Z" transform="translate(87.355 90.377)" fill="#105e9b"/>
  <rect id="Rectangle_73" data-name="Rectangle 73" width="3.308" height="26.081" transform="translate(295.449 494.498) rotate(-87.57)" fill="#105e9b"/>
  <path id="Path_196" data-name="Path 196" d="M208.22,401.823c-.085,1.831,5.679,3.549,12.877,3.862s13.09-.923,13.175-2.754-5.679-3.549-12.891-3.847S208.291,400.006,208.22,401.823Z" transform="translate(87.397 89.405)" fill="#94c0e2"/>
  <path id="Path_198" data-name="Path 198" d="M209.391,401.529a.412.412,0,0,0,.114.327c.866-1.065,5.679-1.7,11.358-1.42s10.407,1.278,11.173,2.414a.483.483,0,0,0,.128-.312c0-1.235-4.983-2.47-11.273-2.74S209.433,400.237,209.391,401.529Z" transform="translate(87.887 89.699)" fill="#105e9b"/>
  <path id="Path_200" data-name="Path 200" d="M209.47,401.626c.767,1.136,5.466,2.172,11.159,2.414s10.463-.383,11.358-1.42c-.767-1.136-5.466-2.172-11.173-2.414S210.336,400.561,209.47,401.626Z" transform="translate(87.922 89.872)" fill="#105e9b" opacity="0.4"/>
  <g id="Group_81" data-name="Group 81" transform="translate(-899 -179.922)">
    <path id="Path_201" data-name="Path 201" d="M195.188,419.66c.44,1.775,6.474,1.789,13.459,0s12.281-4.6,11.841-6.375-6.46-1.789-13.445,0S194.747,417.9,195.188,419.66Z" transform="translate(980.916 274.746)" fill="#105e9b"/>
    <path id="Path_202" data-name="Path 202" d="M194.628,417.4c.44,1.76,6.46,1.789,13.445,0s12.295-4.6,11.841-6.36-6.46-1.789-13.445,0S194.174,415.629,194.628,417.4Z" transform="translate(980.681 273.807)" fill="#94c0e2"/>
    <path id="Path_204" data-name="Path 204" d="M195.734,416.62a.469.469,0,0,0,.2.27c.525-1.264,4.912-3.223,10.449-4.614s10.321-1.732,11.358-.852a.468.468,0,0,0,0-.341c-.3-1.193-5.494-.951-11.585.582S195.436,415.413,195.734,416.62Z" transform="translate(981.15 274.066)" fill="#105e9b"/>
    <path id="Path_206" data-name="Path 206" d="M195.87,416.758c1.065.88,5.863.539,11.358-.852s9.938-3.336,10.449-4.614c-1.065-.88-5.849-.525-11.358.852S196.4,415.423,195.87,416.758Z" transform="translate(981.213 274.269)" fill="#105e9b" opacity="0.4"/>
  </g>
  <path id="Path_207" data-name="Path 207" d="M186.67,418.419c0,1.817,5.679,3.549,12.891,3.847s13.09-.923,13.161-2.74-5.679-3.549-12.877-3.862S186.755,416.587,186.67,418.419Z" transform="translate(78.352 96.363)" fill="#105e9b"/>
  <rect id="Rectangle_75" data-name="Rectangle 75" width="3.308" height="26.081" transform="translate(265.007 514.751) rotate(-87.57)" fill="#105e9b"/>
  <path id="Path_208" data-name="Path 208" d="M186.77,416.083c-.071,1.831,5.679,3.549,12.891,3.862s13.09-.923,13.161-2.754-5.679-3.549-12.877-3.847S186.855,414.294,186.77,416.083Z" transform="translate(78.394 95.39)" fill="#94c0e2"/>
  <path id="Path_210" data-name="Path 210" d="M187.94,415.743a.539.539,0,0,0,.114.327c.866-1.065,5.679-1.7,11.358-1.42s10.392,1.278,11.159,2.428a.568.568,0,0,0,.142-.327c0-1.235-5-2.47-11.273-2.726S188.025,414.508,187.94,415.743Z" transform="translate(78.885 95.674)" fill="#105e9b"/>
  <path id="Path_212" data-name="Path 212" d="M188,415.891c.781,1.15,5.466,2.172,11.159,2.414s10.478-.383,11.358-1.42c-.767-1.15-5.452-2.172-11.159-2.428S188.894,414.826,188,415.891Z" transform="translate(78.91 95.852)" fill="#105e9b" opacity="0.4"/>
</svg>
