<svg id="bonds" xmlns="http://www.w3.org/2000/svg" width="38.972" height="32.38" viewBox="0 0 38.972 32.38">
  <path id="Path_328" data-name="Path 328" d="M13.389,33H3.059A1.559,1.559,0,0,1,1.5,31.442V11.347A1.559,1.559,0,0,1,3.059,9.788H38.913a1.559,1.559,0,0,1,1.559,1.559V31.442A1.559,1.559,0,0,1,38.913,33H28.583l2.936,4.711a1.559,1.559,0,0,1-1.708,2.335l-1.169-.3-.247,1.18a1.559,1.559,0,0,1-2.849.5l-3.383-5.429a2.764,2.764,0,0,1-2.355,0l-3.383,5.429a1.559,1.559,0,0,1-2.849-.5l-.247-1.18-1.168.3a1.559,1.559,0,0,1-1.708-2.335L13.389,33Zm1.982-.233-3.595,5.769,2.745-.7.581,2.772,3.22-5.167a2.775,2.775,0,0,1-2.936-2.668l-.016-.007Zm11.23,0-.016.007a2.775,2.775,0,0,1-2.936,2.668l3.22,5.167.582-2.772,2.745.7L26.6,32.768ZM19.95,23.337a1.217,1.217,0,0,1,2.073,0h0a1.145,1.145,0,0,0,1.345.484h0a1.209,1.209,0,0,1,1.6,1.161.005.005,0,0,0,0,0,1.146,1.146,0,0,0,.876,1.129h0a1.217,1.217,0,0,1,.64,1.971h0a1.145,1.145,0,0,0-.045,1.428l0,0a1.209,1.209,0,0,1-.61,1.879h0a1.145,1.145,0,0,0-.8,1.182h0A1.217,1.217,0,0,1,23.348,33.8h0a1.146,1.146,0,0,0-1.373.4v0A1.208,1.208,0,0,1,20,34.2l0,0a1.146,1.146,0,0,0-1.372-.4h0a1.217,1.217,0,0,1-1.677-1.218h0a1.145,1.145,0,0,0-.8-1.182h0a1.209,1.209,0,0,1-.61-1.879l0,0a1.146,1.146,0,0,0-.045-1.428h0a1.217,1.217,0,0,1,.641-1.971h0A1.145,1.145,0,0,0,17,24.984v0a1.209,1.209,0,0,1,1.6-1.161h0a1.145,1.145,0,0,0,1.345-.484h0Zm1.036,2.1a3.345,3.345,0,1,0,3.345,3.345A3.347,3.347,0,0,0,20.986,25.437Zm6.981,6H38.913V11.347H3.059V31.442H14.005a2.73,2.73,0,0,1-.139-.346,2.765,2.765,0,0,1,.243-2.252,2.775,2.775,0,0,1,1.349-4.153A2.767,2.767,0,0,1,18.8,22.261a2.775,2.775,0,0,1,4.367,0,2.767,2.767,0,0,1,3.344,2.429,2.775,2.775,0,0,1,1.349,4.153,2.766,2.766,0,0,1,.243,2.252,2.854,2.854,0,0,1-.139.346ZM20.986,27A1.786,1.786,0,1,1,19.2,28.782,1.787,1.787,0,0,1,20.986,27ZM6.974,13.507v-.477a.779.779,0,1,1,1.559,0v.477H9.717a.779.779,0,1,1,0,1.559H8.533v1.583H8.6a2.29,2.29,0,0,1,2.29,2.29v.12A2.29,2.29,0,0,1,8.6,21.35H8.533V21.7a.779.779,0,1,1-1.559,0V21.35H5.79a.779.779,0,1,1,0-1.559H6.974V18.208H6.908a2.29,2.29,0,0,1-2.29-2.29V15.8a2.29,2.29,0,0,1,2.29-2.29h.066Zm1.559,4.7v1.583H8.6a.731.731,0,0,0,.731-.731v-.12a.731.731,0,0,0-.731-.731Zm4.659.755H36.575a.779.779,0,0,0,0-1.559H13.192a.779.779,0,0,0,0,1.559Zm-6.218-3.9H6.908a.731.731,0,0,0-.731.731v.12a.731.731,0,0,0,.731.731h.066Zm6.218,0H36.575a.779.779,0,1,0,0-1.559H13.192a.779.779,0,1,0,0,1.559Z" transform="translate(-1.5 -9.788)" fill="#105e9b" fill-rule="evenodd"/>
</svg>
