<svg width="14" height="17" viewBox="0 0 14 17" fill="none" xmlns="http://www.w3.org/2000/svg">
<path d="M0 15.4062C0 16.2861 0.671875 17 1.5 17H12.5C13.3281 17 14 16.2861 14 15.4062V6.375H0V15.4062ZM10 8.89844C10 8.6793 10.1687 8.5 10.375 8.5H11.625C11.8313 8.5 12 8.6793 12 8.89844V10.2266C12 10.4457 11.8313 10.625 11.625 10.625H10.375C10.1687 10.625 10 10.4457 10 10.2266V8.89844ZM10 13.1484C10 12.9293 10.1687 12.75 10.375 12.75H11.625C11.8313 12.75 12 12.9293 12 13.1484V14.4766C12 14.6957 11.8313 14.875 11.625 14.875H10.375C10.1687 14.875 10 14.6957 10 14.4766V13.1484ZM6 8.89844C6 8.6793 6.16875 8.5 6.375 8.5H7.625C7.83125 8.5 8 8.6793 8 8.89844V10.2266C8 10.4457 7.83125 10.625 7.625 10.625H6.375C6.16875 10.625 6 10.4457 6 10.2266V8.89844ZM6 13.1484C6 12.9293 6.16875 12.75 6.375 12.75H7.625C7.83125 12.75 8 12.9293 8 13.1484V14.4766C8 14.6957 7.83125 14.875 7.625 14.875H6.375C6.16875 14.875 6 14.6957 6 14.4766V13.1484ZM2 8.89844C2 8.6793 2.16875 8.5 2.375 8.5H3.625C3.83125 8.5 4 8.6793 4 8.89844V10.2266C4 10.4457 3.83125 10.625 3.625 10.625H2.375C2.16875 10.625 2 10.4457 2 10.2266V8.89844ZM2 13.1484C2 12.9293 2.16875 12.75 2.375 12.75H3.625C3.83125 12.75 4 12.9293 4 13.1484V14.4766C4 14.6957 3.83125 14.875 3.625 14.875H2.375C2.16875 14.875 2 14.6957 2 14.4766V13.1484ZM12.5 2.125H11V0.53125C11 0.239062 10.775 0 10.5 0H9.5C9.225 0 9 0.239062 9 0.53125V2.125H5V0.53125C5 0.239062 4.775 0 4.5 0H3.5C3.225 0 3 0.239062 3 0.53125V2.125H1.5C0.671875 2.125 0 2.83887 0 3.71875V5.3125H14V3.71875C14 2.83887 13.3281 2.125 12.5 2.125Z" fill="#0F5E9A"/>
</svg>
