<svg xmlns="http://www.w3.org/2000/svg" width="216.371" height="216.6" viewBox="0 0 216.371 216.6">
  <g id="calendar" transform="translate(-151.527 -151.055)">
    <path id="Path_8" data-name="Path 8" d="M343.02,168.629H321.109v-10.5a7.11,7.11,0,0,0-7.075-7.075H294.861a7.11,7.11,0,0,0-7.075,7.075v10.5H231.64v-10.5a7.11,7.11,0,0,0-7.075-7.075H205.392a7.11,7.11,0,0,0-7.075,7.075v10.5H176.406a24.938,24.938,0,0,0-24.879,24.879V342.776a24.938,24.938,0,0,0,24.879,24.879H343.019A24.938,24.938,0,0,0,367.9,342.776V193.508a24.938,24.938,0,0,0-24.879-24.879Zm0,182.6H176.407a8.183,8.183,0,0,1-8.218-8.218V214.51h183.28V342.78a8.571,8.571,0,0,1-8.444,8.445Z" fill="#105e9b"/>
    <path id="Path_9" data-name="Path 9" d="M255.145,318.7H225.931a4.82,4.82,0,0,0-4.793,4.793v13.694a4.82,4.82,0,0,0,4.793,4.793h29.214a4.82,4.82,0,0,0,4.793-4.793V323.493A4.68,4.68,0,0,0,255.145,318.7Z" transform="translate(-36.062 -86.849)" fill="#105e9b"/>
    <path id="Path_10" data-name="Path 10" d="M370.233,318.7H341.017a4.82,4.82,0,0,0-4.793,4.793v13.694a4.82,4.82,0,0,0,4.793,4.793h29.214a4.82,4.82,0,0,0,4.793-4.793V323.493a4.677,4.677,0,0,0-4.791-4.793Z" transform="translate(-95.683 -86.849)" fill="#105e9b"/>
    <path id="Path_11" data-name="Path 11" d="M485.3,318.7H456.091a4.82,4.82,0,0,0-4.793,4.793v13.694a4.82,4.82,0,0,0,4.793,4.793H485.3a4.82,4.82,0,0,0,4.793-4.793V323.493A4.68,4.68,0,0,0,485.3,318.7Z" transform="translate(-155.297 -86.849)" fill="#105e9b"/>
    <path id="Path_12" data-name="Path 12" d="M255.145,401.1H225.931a4.82,4.82,0,0,0-4.793,4.793v13.694a4.82,4.82,0,0,0,4.793,4.793h29.214a4.82,4.82,0,0,0,4.793-4.793V405.893A4.82,4.82,0,0,0,255.145,401.1Z" transform="translate(-36.062 -129.537)" fill="#105e9b"/>
    <path id="Path_13" data-name="Path 13" d="M370.233,401.1H341.017a4.82,4.82,0,0,0-4.793,4.793v13.694a4.82,4.82,0,0,0,4.793,4.793h29.214a4.82,4.82,0,0,0,4.793-4.793V405.893a4.818,4.818,0,0,0-4.791-4.793Z" transform="translate(-95.683 -129.537)" fill="#105e9b"/>
    <path id="Path_14" data-name="Path 14" d="M485.3,401.1H456.091a4.82,4.82,0,0,0-4.793,4.793v13.694a4.82,4.82,0,0,0,4.793,4.793H485.3a4.82,4.82,0,0,0,4.793-4.793V405.893A4.82,4.82,0,0,0,485.3,401.1Z" transform="translate(-155.297 -129.537)" fill="#105e9b"/>
    <path id="Path_15" data-name="Path 15" d="M255.145,483.98H225.931a4.82,4.82,0,0,0-4.793,4.793v13.694a4.82,4.82,0,0,0,4.793,4.793h29.214a4.82,4.82,0,0,0,4.793-4.793V488.773A4.68,4.68,0,0,0,255.145,483.98Z" transform="translate(-36.062 -172.473)" fill="#105e9b"/>
    <path id="Path_16" data-name="Path 16" d="M370.233,483.98H341.017a4.82,4.82,0,0,0-4.793,4.793v13.694a4.82,4.82,0,0,0,4.793,4.793h29.214a4.82,4.82,0,0,0,4.793-4.793V488.773a4.677,4.677,0,0,0-4.791-4.793Z" transform="translate(-95.683 -172.473)" fill="#105e9b"/>
    <path id="Path_17" data-name="Path 17" d="M485.3,483.98H456.091a4.82,4.82,0,0,0-4.793,4.793v13.694a4.82,4.82,0,0,0,4.793,4.793H485.3a4.821,4.821,0,0,0,4.793-4.793V488.773A4.68,4.68,0,0,0,485.3,483.98Z" transform="translate(-155.297 -172.473)" fill="#105e9b"/>
  </g>
</svg>
