<svg width="19" height="16" viewBox="0 0 19 16" fill="none" xmlns="http://www.w3.org/2000/svg">
<path d="M9.5 0C4.25273 0 0 3.325 0 7.42857C0 9.2 0.794141 10.8214 2.11523 12.0964C1.65137 13.8964 0.100195 15.5 0.0816406 15.5179C0 15.6 -0.0222656 15.7214 0.0259766 15.8286C0.0742188 15.9357 0.178125 16 0.296875 16C2.75723 16 4.60156 14.8643 5.51445 14.1643C6.72793 14.6036 8.075 14.8571 9.5 14.8571C14.7473 14.8571 19 11.5321 19 7.42857C19 3.325 14.7473 0 9.5 0ZM4.75 8.57143C4.09316 8.57143 3.5625 8.06071 3.5625 7.42857C3.5625 6.79643 4.09316 6.28571 4.75 6.28571C5.40684 6.28571 5.9375 6.79643 5.9375 7.42857C5.9375 8.06071 5.40684 8.57143 4.75 8.57143ZM9.5 8.57143C8.84316 8.57143 8.3125 8.06071 8.3125 7.42857C8.3125 6.79643 8.84316 6.28571 9.5 6.28571C10.1568 6.28571 10.6875 6.79643 10.6875 7.42857C10.6875 8.06071 10.1568 8.57143 9.5 8.57143ZM14.25 8.57143C13.5932 8.57143 13.0625 8.06071 13.0625 7.42857C13.0625 6.79643 13.5932 6.28571 14.25 6.28571C14.9068 6.28571 15.4375 6.79643 15.4375 7.42857C15.4375 8.06071 14.9068 8.57143 14.25 8.57143Z" fill="#0F5E9A"/>
</svg>
