<svg id="Dollar_Simbol" data-name="Dollar Simbol" xmlns="http://www.w3.org/2000/svg" width="21.34" height="21.3" viewBox="0 0 21.34 21.3">
  <g id="_20-dollar_simbol" data-name="20-dollar simbol" transform="translate(0 0)">
    <path id="Vector" d="M2.916,4.733H5.921a1.183,1.183,0,0,0,0-2.367H4.738V1.183a1.183,1.183,0,0,0-2.367,0V2.426a2.958,2.958,0,0,0,.544,5.857H4.194a.58.58,0,0,1,.544.639.556.556,0,0,1-.544.544H1.188a1.183,1.183,0,1,0,0,2.367H2.371v1.183a1.183,1.183,0,1,0,2.367,0V11.774a2.958,2.958,0,0,0-.544-5.858H2.916a.58.58,0,0,1-.544-.639.556.556,0,0,1,.544-.544Z" transform="translate(7.093 3.55)" fill="#fff"/>
    <path id="Vector-2" data-name="Vector" d="M10.647,0a10.65,10.65,0,1,0,8.035,17.643A1.187,1.187,0,1,0,16.9,16.082a8.283,8.283,0,1,1,2.035-5.432,7.916,7.916,0,0,1-.154,1.586,1.2,1.2,0,0,0,2.367.45A10.65,10.65,0,0,0,10.647,0Z" transform="translate(0)" fill="#fff"/>
  </g>
</svg>
