<svg id="Financial_Planing" data-name="Financial Planing" xmlns="http://www.w3.org/2000/svg" width="64.816" height="83.756" viewBox="0 0 64.816 83.756">
  <path id="Path_337" data-name="Path 337" d="M53.161,40.576V38.631a1.081,1.081,0,0,0-1.081-1.081H51v4.58h.594a1.567,1.567,0,0,0,1.567-1.554Z" transform="translate(-17.241 -12.491)" fill="#bf944f"/>
  <path id="Path_338" data-name="Path 338" d="M48.141,51.19a7.227,7.227,0,0,1,0,13.658A26.883,26.883,0,0,0,32.768,78.6c11.05-1.81,22.965-16.616,23.154-16.778a1.351,1.351,0,0,1,2.107,0c.122.162,12.158,14.968,23.154,16.778A26.883,26.883,0,0,0,65.811,64.861a7.227,7.227,0,0,1,0-13.658A26.923,26.923,0,0,0,83.832,27.13H30.12A26.923,26.923,0,0,0,48.141,51.19Zm6.4-9.983a3.783,3.783,0,0,1-3.783-3.783V35.479a4.269,4.269,0,0,1,4.269-4.269h.594V30.129a1.351,1.351,0,1,1,2.7,0V31.21h1.081a3.783,3.783,0,0,1,3.783,3.85,1.351,1.351,0,0,1-2.7,0,1.081,1.081,0,0,0-1.081-1.081H58.327v4.58h1.081a3.783,3.783,0,0,1,3.783,3.783v1.945a4.269,4.269,0,0,1-4.269,4.269h-.594v1.081a1.351,1.351,0,1,1-2.7,0V48.555H54.544a3.783,3.783,0,0,1-3.783-3.783,1.351,1.351,0,1,1,2.7,0,1.081,1.081,0,0,0,1.081,1.081h1.081V41.206Z" transform="translate(-24.568 -16.147)" fill="#bf944f"/>
  <path id="Path_339" data-name="Path 339" d="M49.561,32.15h-.594A1.567,1.567,0,0,0,47.4,33.717v1.945a1.081,1.081,0,0,0,1.081,1.081h1.081Z" transform="translate(-18.504 -14.386)" fill="#bf944f"/>
  <path id="Path_340" data-name="Path 340" d="M90.826,74.87H26.01v8.281H90.826Z" transform="translate(-26.01 0.605)" fill="#bf944f"/>
  <path id="Path_341" data-name="Path 341" d="M26.01,27.281H90.826V19H26.01Z" transform="translate(-26.01 -19)" fill="#bf944f"/>
  <path id="Path_342" data-name="Path 342" d="M82.359,71.63C71.633,70.941,60.434,58.985,56.976,55c-3.458,4.053-14.657,15.954-25.383,16.657a26.815,26.815,0,0,0-1.472,7.511H83.832A26.8,26.8,0,0,0,82.359,71.63Z" transform="translate(-24.568 -6.368)" fill="#bf944f"/>
</svg>
