<svg id="Goal_Planning" data-name="Goal Planning" xmlns="http://www.w3.org/2000/svg" width="70.962" height="87.779" viewBox="0 0 70.962 87.779">
  <path id="Path_343" data-name="Path 343" d="M37.88,33.412a1.468,1.468,0,0,1-1.056-.439l-4.294-4.308a6.27,6.27,0,1,0,5.351-3,6.174,6.174,0,0,0-3.238.906l4.281,4.308a1.468,1.468,0,0,1,0,2.113A1.372,1.372,0,0,1,37.88,33.412Z" transform="translate(3.475 9.515)" fill="#bf944f"/>
  <path id="Path_344" data-name="Path 344" d="M41.092,17A18.07,18.07,0,0,0,29.4,21.281l6.311,6.339a9.234,9.234,0,0,1,14.612,7.505,9.248,9.248,0,1,1-18.481,0,9.11,9.11,0,0,1,1.77-5.406L27.289,23.38A18.111,18.111,0,1,0,41.092,17Z" transform="translate(0.262 6.293)" fill="#bf944f"/>
  <path id="Path_345" data-name="Path 345" d="M66.808,64.162h0A29.888,29.888,0,0,0,27.417,19.2l-3.595-3.554.686-5.653a1.523,1.523,0,0,0-.4-1.235L16.289.527a1.509,1.509,0,0,0-2.634.974l-.233,5.886-5.9.11A1.525,1.525,0,0,0,6.493,10.1l7.725,7.629a1.564,1.564,0,0,0,1.1.439h.1l6.2-.439L25.29,21.4a29.828,29.828,0,0,0,2.744,42.78h0L18.567,84.646a2.154,2.154,0,0,0-.069,1.7,2.2,2.2,0,0,0,1.125,1.221,2.154,2.154,0,0,0,.96.233,2.25,2.25,0,0,0,2.031-1.372L31.656,66.8h0a29.54,29.54,0,0,0,15.737,4.541,29.841,29.841,0,0,0,15.283-4.212,1.605,1.605,0,0,1,.385-.234h0l9.11,19.538A2.264,2.264,0,0,0,74.2,87.72a2.044,2.044,0,0,0,.906-.206,2.223,2.223,0,0,0,1.18-1.262,2.154,2.154,0,0,0-.082-1.7ZM47.394,62.556A21.075,21.075,0,0,1,31.505,27.611l-2.374-2.374L25.29,21.368l2.1-2.086,3.842,3.869L33.6,25.525A21.075,21.075,0,1,1,47.394,62.57Z" transform="translate(-6.039 -0.023)" fill="#bf944f"/>
  <line id="Line_5" data-name="Line 5" y1="1.921" x2="2.058" transform="translate(34.59 42.913)"/>
  <line id="Line_6" data-name="Line 6" x1="1.948" y2="1.921" transform="translate(34.645 42.913)"/>
</svg>
