<svg xmlns="http://www.w3.org/2000/svg" width="39.314" height="44.134" viewBox="0 0 39.314 44.134">
  <g id="icon-secure-currency" transform="translate(-5.6 -0.1)">
    <path id="Path_14413" data-name="Path 14413" d="M79.587,59.4H70.3v4.82h9.331A1.38,1.38,0,0,0,81,62.849V60.771A1.388,1.388,0,0,0,79.587,59.4Zm0,6.9H70.3v4.82h9.331A1.38,1.38,0,0,0,81,69.748V67.67A1.388,1.388,0,0,0,79.587,66.3Z" transform="translate(-36.088 -33.076)" fill="#105e9b" fill-rule="evenodd"/>
    <path id="Path_14414" data-name="Path 14414" d="M13.162,18.01V11.465A11.382,11.382,0,0,1,32.576,3.417a11.293,11.293,0,0,1,3.317,8.049V18.01H30.409V11.465a5.888,5.888,0,0,0-5.882-5.882A5.926,5.926,0,0,0,20.37,7.308a5.846,5.846,0,0,0-1.725,4.157V18.01Zm27.02,2.078H8.917a2,2,0,0,0-1.99,1.548,42.413,42.413,0,0,0,0,21.05,2.071,2.071,0,0,0,1.99,1.548H40.182a2,2,0,0,0,1.99-1.548,24.831,24.831,0,0,0,.575-2.609h-9.6a1,1,0,0,1-1.017-1.017v-13.8a1,1,0,0,1,1.017-1.017h9.6c-.177-.884-.354-1.769-.575-2.609A2,2,0,0,0,40.182,20.089ZM18.6,32.736c-1.99-.663-3.405-1.636-3.405-3.494a3.409,3.409,0,0,1,2.786-3.317.479.479,0,0,0,.354-.486V24.6a.571.571,0,0,1,.531-.531h.84a.571.571,0,0,1,.531.531v.663a.455.455,0,0,0,.442.486,5.235,5.235,0,0,1,1.9.442.46.46,0,0,1,.265.575l-.265,1.194a.6.6,0,0,1-.265.31.423.423,0,0,1-.4,0,5.377,5.377,0,0,0-2.211-.442c-1.238,0-1.592.531-1.592,1.106,0,.619.663,1.017,2.3,1.636,2.255.8,3.14,1.857,3.14,3.582a3.461,3.461,0,0,1-2.919,3.405.479.479,0,0,0-.354.486V39.06a.571.571,0,0,1-.531.531h-.84a.571.571,0,0,1-.531-.531v-.84a.443.443,0,0,0-.442-.442,6.971,6.971,0,0,1-2.388-.619.482.482,0,0,1-.265-.575l.31-1.282a.468.468,0,0,1,.265-.31.614.614,0,0,1,.4,0,6.669,6.669,0,0,0,2.609.575c1.106,0,1.813-.442,1.813-1.194C20.592,33.665,20.017,33.223,18.6,32.736Z" fill="#bf944f" fill-rule="evenodd"/>
  </g>
</svg>
