<svg xmlns="http://www.w3.org/2000/svg" width="40.872" height="40.85" viewBox="0 0 40.872 40.85">
  <g id="icon-currency-plan" transform="translate(-0.147 -0.2)">
    <path id="Path_14398" data-name="Path 14398" d="M35.906,63.572a2.545,2.545,0,1,0,2.541,2.541,2.55,2.55,0,0,0-2.541-2.541Zm-15.328,0a2.545,2.545,0,1,0,2.541,2.541,2.55,2.55,0,0,0-2.541-2.541Zm-3.606-1.025a5.331,5.331,0,0,1,2.336-1.352v-4.3H11.931A5.445,5.445,0,0,0,6.6,61.236a5.1,5.1,0,1,1-2.582-.041,8,8,0,0,1,7.951-6.844h7.336V51.4c.41.041.861.082,1.27.082a12.412,12.412,0,0,0,1.27-.082v2.951h7.377a8.018,8.018,0,0,1,7.91,6.844,5.109,5.109,0,1,1-2.582.041,5.445,5.445,0,0,0-5.328-4.344H21.849v4.3a5.114,5.114,0,1,1-4.877,1.352Zm-9.918,1.8a2.546,2.546,0,1,0,0,3.606,2.5,2.5,0,0,0,0-3.606Z" transform="translate(0 -30.217)" fill="#bf944f"/>
    <path id="Path_14399" data-name="Path 14399" d="M36.19.2A9.59,9.59,0,1,1,26.6,9.79,9.6,9.6,0,0,1,36.19.2Zm-.574,10.41C33.772,9.954,32.5,9.093,32.5,7.372A3.159,3.159,0,0,1,35.083,4.3a.444.444,0,0,0,.328-.451V3.52a.529.529,0,0,1,.492-.492h.779a.529.529,0,0,1,.492.492v.164a.421.421,0,0,0,.41.451,4.851,4.851,0,0,1,1.762.41.41.41,0,0,1,.246.533L39.3,6.183a.551.551,0,0,1-.246.287.392.392,0,0,1-.369,0,4.983,4.983,0,0,0-2.049-.41c-1.148,0-1.475.492-1.475.984,0,.574.615.943,2.09,1.475,2.09.738,2.91,1.721,2.91,3.32a3.207,3.207,0,0,1-2.7,3.156.444.444,0,0,0-.328.451v.492a.529.529,0,0,1-.492.492h-.779a.529.529,0,0,1-.492-.492v-.328a.411.411,0,0,0-.41-.41,6.46,6.46,0,0,1-2.213-.574.447.447,0,0,1-.246-.533l.287-1.188a.433.433,0,0,1,.246-.287.569.569,0,0,1,.369,0,6.18,6.18,0,0,0,2.418.533c1.025,0,1.68-.41,1.68-1.107,0-.574-.574-.984-1.885-1.434Z" transform="translate(-15.612)" fill="#105e9b" fill-rule="evenodd"/>
  </g>
</svg>
