<svg xmlns="http://www.w3.org/2000/svg" width="40.529" height="40.563" viewBox="0 0 40.529 40.563">
  <g id="icon-barchart-growth" transform="translate(0.014)">
    <path id="Path_14404" data-name="Path 14404" d="M.8,67.09H8.418V60.728H.8Zm32.3,0h7.618V44.6H33.1Zm-10.779,0h7.618V49.99H22.318Zm-10.779,0h7.618V55.339H11.539V67.09Z" transform="translate(-0.484 -26.527)" fill="#bf944f"/>
    <path id="Path_14405" data-name="Path 14405" d="M40.514,0,34.436,1.054,28.358,2.148l2.877,2.877L26.048,10.86l-10.9,3.89a1.827,1.827,0,0,0-.567.405l-6.4,7.861-7.456,3.4a1.193,1.193,0,0,0-.648,1.54,1.264,1.264,0,0,0,1.621.77L9.96,25.854a1.59,1.59,0,0,0,.567-.324l6.848-7.091,11.63-3.4a1.106,1.106,0,0,0,.527-.284l6-5.471,2.877,2.877Z" transform="translate(0)" fill="#105e9b" fill-rule="evenodd"/>
  </g>
</svg>
