<svg xmlns="http://www.w3.org/2000/svg" width="45.315" height="45.27" viewBox="0 0 45.315 45.27">
  <g id="icon-currency-process" transform="translate(0.1)">
    <g id="Group_16105" data-name="Group 16105" transform="translate(-0.1)">
      <path id="Path_14408" data-name="Path 14408" d="M69.362,7.745a2.821,2.821,0,1,0-.226-3.984A2.8,2.8,0,0,0,69.362,7.745Zm4.255,16.025,2.761,6.881,4.8-5.659-2.4-.407a19.33,19.33,0,0,0-.226-7.741,19.793,19.793,0,0,0-3.3-7.153,1.2,1.2,0,0,0,.226-.272,5.655,5.655,0,1,0-7.967.453A5.54,5.54,0,0,0,72.8,11.1a16.864,16.864,0,0,1,2.988,6.383,17.322,17.322,0,0,1,.226,6.655Z" transform="translate(-35.862 -0.004)" fill="#105e9b" fill-rule="evenodd"/>
      <path id="Path_14409" data-name="Path 14409" d="M55.161,69.362a2.821,2.821,0,1,0,3.984-.226A2.8,2.8,0,0,0,55.161,69.362Zm-15.98,4.255L32.3,76.378l5.659,4.8.407-2.4a19.33,19.33,0,0,0,7.741-.226,19.793,19.793,0,0,0,7.153-3.3,1.2,1.2,0,0,0,.272.226,5.655,5.655,0,1,0-.453-7.967,5.54,5.54,0,0,0-1.222,5.3,16.864,16.864,0,0,1-6.383,2.988,17.322,17.322,0,0,1-6.655.226l.362-2.4Z" transform="translate(-17.633 -35.907)" fill="#105e9b" fill-rule="evenodd"/>
      <path id="Path_14410" data-name="Path 14410" d="M11.715,55.161a2.821,2.821,0,1,0,.226,3.984A2.8,2.8,0,0,0,11.715,55.161ZM7.46,39.181,4.7,32.3-.1,37.959l2.4.407a19.33,19.33,0,0,0,.226,7.741,19.793,19.793,0,0,0,3.3,7.153,1.2,1.2,0,0,0-.226.272,5.655,5.655,0,1,0,7.967-.453,5.54,5.54,0,0,0-5.3-1.222,16.864,16.864,0,0,1-2.988-6.383,17.322,17.322,0,0,1-.226-6.655l2.4.362Z" transform="translate(0.1 -17.678)" fill="#105e9b" fill-rule="evenodd"/>
      <path id="Path_14411" data-name="Path 14411" d="M7.691,11.815a2.821,2.821,0,1,0-3.984.226,2.892,2.892,0,0,0,3.984-.226Zm15.98-4.3,6.881-2.761L24.893,0l-.407,2.4a19.33,19.33,0,0,0-7.741.226,19.793,19.793,0,0,0-7.153,3.3A1.2,1.2,0,0,0,9.32,5.7a5.655,5.655,0,1,0,.453,7.967A5.54,5.54,0,0,0,11,8.375a16.864,16.864,0,0,1,6.383-2.988,17.322,17.322,0,0,1,6.655-.226l-.362,2.354Z" transform="translate(0.096)" fill="#105e9b" fill-rule="evenodd"/>
    </g>
    <path id="Path_14412" data-name="Path 14412" d="M37.093,26.5A10.616,10.616,0,1,1,26.5,37.138,10.626,10.626,0,0,1,37.093,26.5Zm-.77,11.589c-2.082-.724-3.486-1.675-3.486-3.576a3.49,3.49,0,0,1,2.852-3.4.491.491,0,0,0,.362-.5v-.543a.584.584,0,0,1,.543-.543H37.5a.584.584,0,0,1,.543.543v.362a.465.465,0,0,0,.453.5,5.359,5.359,0,0,1,1.947.453.471.471,0,0,1,.272.589L40.4,33.2a.609.609,0,0,1-.272.317.433.433,0,0,1-.407,0,5.68,5.68,0,0,0-2.263-.453c-1.268,0-1.675.543-1.675,1.132,0,.634.679,1.041,2.354,1.675,2.309.815,3.214,1.9,3.214,3.667a3.622,3.622,0,0,1-3.033,3.531.491.491,0,0,0-.362.5v.543a.584.584,0,0,1-.543.543H36.5a.584.584,0,0,1-.543-.543v-.362a.454.454,0,0,0-.453-.453,7.71,7.71,0,0,1-2.49-.634.494.494,0,0,1-.272-.589l.317-1.313a.479.479,0,0,1,.272-.317.628.628,0,0,1,.407,0,6.827,6.827,0,0,0,2.671.589c1.132,0,1.856-.453,1.856-1.222C38.361,39.04,37.772,38.542,36.324,38.089Z" transform="translate(-14.558 -14.504)" fill="#bf944f" fill-rule="evenodd"/>
  </g>
</svg>
