<svg xmlns="http://www.w3.org/2000/svg" width="36.646" height="36.537" viewBox="0 0 36.646 36.537">
  <g id="icon-money-withdrawal" transform="translate(0.2)">
    <path id="Path_14406" data-name="Path 14406" d="M20.634,62.5h1.134v4.133a4.553,4.553,0,0,1,3.292,3.292H36.214a4.553,4.553,0,0,1,3.292-3.292V62.5h1.134a1.141,1.141,0,0,1,1.134,1.134v7.424a1.141,1.141,0,0,1-1.134,1.134H20.634A1.141,1.141,0,0,1,19.5,71.058V63.634A1.141,1.141,0,0,1,20.634,62.5ZM19.5,73.911H41.81v1.134a1.141,1.141,0,0,1-1.134,1.134H20.634A1.141,1.141,0,0,1,19.5,75.045ZM30.655,62.719a3.072,3.072,0,1,1-3.072,3.072,3.043,3.043,0,0,1,3.072-3.072Z" transform="translate(-12.495 -39.642)" fill="#105e9b" fill-rule="evenodd"/>
    <path id="Path_14407" data-name="Path 14407" d="M31,23.3a2.243,2.243,0,0,0-2.3-2.158H7.554a2.267,2.267,0,0,0-2.3,2.158v6.8q-2-.217-3.986-.549A1.723,1.723,0,0,1-.2,27.869V3A1.7,1.7,0,0,1,1.263,1.317,105.784,105.784,0,0,1,18.16,0,108.947,108.947,0,0,1,34.983,1.28a1.723,1.723,0,0,1,1.463,1.682v24.87a1.7,1.7,0,0,1-1.463,1.682Q33,29.846,31,30.063ZM27.449,4.974a.734.734,0,0,1,.731.731v7.132a.734.734,0,0,1-.731.731H8.87a.7.7,0,0,1-.695-.731V5.705a.727.727,0,0,1,.695-.731H27.449ZM16.733,17.409A.734.734,0,0,1,16,18.14H14.576a.7.7,0,0,1-.695-.731V15.982a.727.727,0,0,1,.695-.731H16a.734.734,0,0,1,.731.731Zm5.705,0a.734.734,0,0,1-.731.731H20.281a.7.7,0,0,1-.695-.731V15.982a.727.727,0,0,1,.695-.731h1.426a.734.734,0,0,1,.731.731Zm5.705,0a.734.734,0,0,1-.731.731H25.986a.7.7,0,0,1-.695-.731V15.982a.727.727,0,0,1,.695-.731h1.426a.734.734,0,0,1,.731.731Zm-17.153,0a.734.734,0,0,1-.731.731H8.834a.7.7,0,0,1-.695-.731V15.982a.727.727,0,0,1,.695-.731H10.26a.734.734,0,0,1,.731.731Z" fill="#bf944f" fill-rule="evenodd"/>
  </g>
</svg>
