<svg id="icon-hold-money" xmlns="http://www.w3.org/2000/svg" width="40.391" height="41.786" viewBox="0 0 40.391 41.786">
  <path id="Path_14396" data-name="Path 14396" d="M51.978,10.958a2.959,2.959,0,0,0-3.341,2.506,3.12,3.12,0,0,0,6.181.543,2.984,2.984,0,0,0-2.84-3.049Zm-6.85-5.638a4.068,4.068,0,0,1-2.047,2.631l1,6.516v2.59L45.42,5.361h-.292ZM57.992,7.157A4.14,4.14,0,0,1,55.82,4.15l-5.054-.919a4.094,4.094,0,0,1-2.715,2.047L46.3,20.815a.952.952,0,0,1-.125.459c2.757.752,6.056.251,9.439-.877.418-.125.459-.919.543-1.253L57.992,7.157ZM39.865,4.233a1.326,1.326,0,0,1,1.378-1.5h4.469L45.88,1.1A1.313,1.313,0,0,1,47.425-.027l12.53,2.255a1.379,1.379,0,0,1,1.211,1.5L58.827,18.977c1.8.543,2.715,2.255,1.879,4.385,2,.418,2.3,3.55.919,4.845,1.5,1,1.211,3.675-.626,4.8a2.693,2.693,0,0,1-1.8,4.051s-8.353,2.047-10.066,2.214c-3.467.209-4.469-.543-9.23-.752L36.9,23.321l1.754-2.757c.794-1.253,1.671-1.462,2.924-1.838V14.759L39.865,4.233Z" transform="translate(-22.198 0.046)" fill="#bf944f"/>
  <path id="Path_14397" data-name="Path 14397" d="M14.23,54.8,1.7,57.014,5.292,73.678H18.072ZM11.014,70.922a2.062,2.062,0,0,1-2.047-1.963A1.935,1.935,0,0,1,10.93,67a2.062,2.062,0,0,1,2.047,1.963A1.961,1.961,0,0,1,11.014,70.922Z" transform="translate(-1.7 -31.893)" fill="#105e9b"/>
</svg>
