<svg xmlns="http://www.w3.org/2000/svg" width="39.348" height="39.348" viewBox="0 0 39.348 39.348">
  <g id="icon-currency-report" transform="translate(0 0)">
    <path id="Path_14400" data-name="Path 14400" d="M16.872,5.351,21.79.433A1.52,1.52,0,0,1,22.853,0H47.76a1.511,1.511,0,0,1,1.535,1.535V37.813a1.511,1.511,0,0,1-1.535,1.535H17.934A1.511,1.511,0,0,1,16.4,37.813V34.075a10.571,10.571,0,0,0,2.754.354h.315v1.849H46.225V3.069H24.545V6.61A1.511,1.511,0,0,1,23.01,8.145H19.469v4.171h-.315a10.571,10.571,0,0,0-2.754.354V6.453a1.578,1.578,0,0,1,.472-1.1ZM29.227,18.768H40.362v1.849H29.9A9.382,9.382,0,0,0,29.227,18.768Zm-.315,9.837h11.45v1.849H27.692a13.63,13.63,0,0,0,1.22-1.849Zm1.3-4.918H40.362v1.849H30.014A9.844,9.844,0,0,0,30.211,23.687Z" transform="translate(-9.947 0)" fill="#bf944f"/>
    <path id="Path_14401" data-name="Path 14401" d="M30.888,20.3l-6.138.944L26.8,23.29l-2.479,2.754-3.148-2.636a.946.946,0,0,0-1.18,0l-4.368,3.226a14.064,14.064,0,0,1,1.456,1.22L20.539,25.3l3.266,2.754a.894.894,0,0,0,1.3-.079l2.99-3.345,1.81,1.81.984-6.138ZM8.538,36.472c-1.81-.63-3.03-1.456-3.03-3.108a3.033,3.033,0,0,1,2.479-2.951.426.426,0,0,0,.315-.433v-.315a.508.508,0,0,1,.472-.472h.787a.508.508,0,0,1,.472.472v.157a.4.4,0,0,0,.393.433,4.658,4.658,0,0,1,1.692.393.409.409,0,0,1,.236.512l-.275,1.062a.529.529,0,0,1-.236.275.376.376,0,0,1-.354,0A4.937,4.937,0,0,0,9.522,32.1c-1.1,0-1.456.472-1.456.984,0,.551.59.9,2.046,1.456,2.007.708,2.794,1.653,2.794,3.187A3.148,3.148,0,0,1,10.27,40.8a.426.426,0,0,0-.315.433v.472a.508.508,0,0,1-.472.472H8.7a.508.508,0,0,1-.472-.472V41.39A.394.394,0,0,0,7.83,41a6.7,6.7,0,0,1-2.164-.551.429.429,0,0,1-.236-.512l.275-1.141a.416.416,0,0,1,.236-.275.546.546,0,0,1,.354,0,5.934,5.934,0,0,0,2.322.512c.984,0,1.613-.393,1.613-1.062.118-.63-.433-1.062-1.692-1.5Zm.669-10.034A9.207,9.207,0,1,1,0,35.685,9.219,9.219,0,0,1,9.207,26.438Z" transform="translate(0 -12.313)" fill="#105e9b" fill-rule="evenodd"/>
  </g>
</svg>
