<svg xmlns="http://www.w3.org/2000/svg" width="40.939" height="40.939" viewBox="0 0 40.939 40.939">
  <g id="icon-currency-donut" transform="translate(-0.2 -0.2)">
    <path id="Path_14402" data-name="Path 14402" d="M.2,21.941A20.493,20.493,0,0,0,34.165,36.052l-6.194-6.194A11.728,11.728,0,0,1,9.02,21.941Zm33.965-16.7A20.24,20.24,0,0,0,21.982.2V9.02a11.477,11.477,0,0,1,5.989,2.461Zm1.887,28.92a20.457,20.457,0,0,0,5.087-13.537,19.012,19.012,0,0,0-.656-5.087l-8.327,2.707a11.42,11.42,0,0,1,.246,2.379,11.689,11.689,0,0,1-2.543,7.3Z" fill="#bf944f" fill-rule="evenodd"/>
    <path id="Path_14403" data-name="Path 14403" d="M19.316.2A20.491,20.491,0,0,0,.2,19.316H9.02a11.725,11.725,0,0,1,10.3-10.3V.2ZM39.7,13.04a21.123,21.123,0,0,0-3.651-5.948l-6.235,6.235a10.739,10.739,0,0,1,1.518,2.461ZM20.1,21.531c-1.928-.656-3.241-1.559-3.241-3.323a3.251,3.251,0,0,1,2.666-3.159.5.5,0,0,0,.328-.492v-.328a.529.529,0,0,1,.492-.492h.82a.529.529,0,0,1,.492.492v.164a.449.449,0,0,0,.41.451,8.308,8.308,0,0,1,1.846.41.5.5,0,0,1,.287.533l-.287,1.149a.434.434,0,0,1-.246.287.392.392,0,0,1-.369,0,5.436,5.436,0,0,0-2.133-.41c-1.19,0-1.559.533-1.559,1.026,0,.574.656.985,2.174,1.559,2.133.779,2.995,1.764,2.995,3.446a3.371,3.371,0,0,1-2.83,3.282.445.445,0,0,0-.328.451v.492a.529.529,0,0,1-.492.492H20.3a.529.529,0,0,1-.492-.492v-.287a.485.485,0,0,0-.451-.451,8.164,8.164,0,0,1-2.3-.574.427.427,0,0,1-.246-.533l.328-1.231a.434.434,0,0,1,.246-.287.392.392,0,0,1,.369,0,5.917,5.917,0,0,0,2.5.574c1.026,0,1.764-.41,1.764-1.149C22.023,22.433,21.449,21.982,20.1,21.531Z" fill="#105e9b" fill-rule="evenodd"/>
  </g>
</svg>
