<svg id="IN_Stock" data-name="IN Stock" xmlns="http://www.w3.org/2000/svg" width="38.162" height="34.535" viewBox="0 0 38.162 34.535">
  <path id="Path_327" data-name="Path 327" d="M48.672,29.142l-.073-3.2a1.6,1.6,0,0,0-1.912-1.533l-3.29.654a1.6,1.6,0,0,0-.688,2.819l.33.265-.651.774A16.007,16.007,0,0,0,26.478,14.093h-.146a15.949,15.949,0,0,0-5.071,31.024l-.627.63a1.636,1.636,0,0,0,1.259,2.881,2.394,2.394,0,0,0,.91-.151H45.464a.7.7,0,0,0,.7-.7V30.639a1.6,1.6,0,0,0,2.52-1.308A1.5,1.5,0,0,0,48.672,29.142Zm-7.662.077-4.649.042a23.761,23.761,0,0,0-1.408-7.436,17.122,17.122,0,0,0,2.541-1.261A14.491,14.491,0,0,1,41.01,29.219Zm-.046,1.4-5.636,6.708a23.946,23.946,0,0,0,1.036-6.667ZM27.233,36.486l-.052-5.745,7.785-.07a22.2,22.2,0,0,1-1.154,6.806L31.791,36.37a1.811,1.811,0,0,0-2.084.277Q28.5,36.51,27.233,36.486Zm1.188,1.448L27.257,39.1l-.011-1.228C27.641,37.882,28.032,37.9,28.421,37.934Zm-1.252-8.59-.053-5.927A24.266,24.266,0,0,0,33.624,22.3a22.312,22.312,0,0,1,1.34,6.97Zm9.336-9.819a15.943,15.943,0,0,1-2.087,1.011,13.827,13.827,0,0,0-2.781-4.092A14.638,14.638,0,0,1,36.505,19.525ZM33.08,21.013A22.885,22.885,0,0,1,27.1,22.019l-.058-6.481C29.47,15.857,31.628,17.929,33.08,21.013ZM25.871,40.492l-2.8,2.812a11.521,11.521,0,0,1-3.274-4.387,22.87,22.87,0,0,1,6.053-1.032Zm-.036-4a24.249,24.249,0,0,0-6.572,1.135,22.421,22.421,0,0,1-1.276-6.8l7.8-.07Zm-.064-7.132-7.8.07a22.3,22.3,0,0,1,1.213-6.993,23.971,23.971,0,0,0,6.529.988Zm-.124-13.8.058,6.476a23.007,23.007,0,0,1-5.994-.9C21.1,18.036,23.219,15.933,25.647,15.556Zm-4.457.931A14.082,14.082,0,0,0,18.407,20.7a15.9,15.9,0,0,1-2.158-.994A14.593,14.593,0,0,1,21.19,16.487Zm-5.9,4.262a17.117,17.117,0,0,0,2.6,1.24,23.4,23.4,0,0,0-1.311,7.449l-4.647.042A14.493,14.493,0,0,1,15.288,20.749ZM11.944,30.879l4.647-.042A23.85,23.85,0,0,0,17.939,38.1a16.942,16.942,0,0,0-2.588,1.3A14.487,14.487,0,0,1,11.944,30.879Zm4.377,9.573A15.815,15.815,0,0,1,18.462,39.4a13.939,13.939,0,0,0,2.853,4.253A14.638,14.638,0,0,1,16.321,40.452Zm28.444,6.627H24.334l6.919-6.943,3.081,1.687a1.82,1.82,0,0,0,2.218-.417l8.214-9.776V47.079Zm2.184-17.59-.788-.632a.7.7,0,0,0-.972.1L35.481,40.507A.393.393,0,0,1,35,40.6l-3.54-1.939a.7.7,0,0,0-.831.12L22.24,47.2a2.845,2.845,0,0,1-.673,0,.383.383,0,0,1,.057-.47l9.042-9.072a.391.391,0,0,1,.455-.065L34.6,39.5a.7.7,0,0,0,.871-.164L44.572,28.5a.7.7,0,0,0-.1-.995l-.888-.711a.2.2,0,0,1-.07-.208.2.2,0,0,1,.156-.15L47,25.776a.2.2,0,0,1,.125.043.2.2,0,0,1,.077.155l.074,3.238a1.132,1.132,0,0,0,.01.119A.215.215,0,0,1,46.95,29.489Z" transform="translate(-10.521 -14.093)" fill="#105e9b"/>
</svg>
