<svg id="next" xmlns="http://www.w3.org/2000/svg" width="70" height="70" viewBox="0 0 70 70">
  <path id="Path_14153" data-name="Path 14153" d="M53.987,70H16.013A16.013,16.013,0,0,1,0,53.987V16.013A16.013,16.013,0,0,1,16.012,0H53.987A16.012,16.012,0,0,1,70,16.012V53.987A16.013,16.013,0,0,1,53.987,70ZM16.013,3.566A12.447,12.447,0,0,0,3.566,16.013V53.987A12.447,12.447,0,0,0,16.013,66.434H53.987A12.447,12.447,0,0,0,66.434,53.987V16.013A12.447,12.447,0,0,0,53.987,3.566Z" fill="#105e9b"/>
  <path id="Path_14154" data-name="Path 14154" d="M12.956,34.8A4.156,4.156,0,0,1,8.8,30.643V14.587a4.156,4.156,0,0,1,6.016-3.719L30.872,18.9a4.156,4.156,0,0,1,0,7.416L14.816,34.34A4.178,4.178,0,0,1,12.956,34.8Zm0-20.8a.591.591,0,0,0-.591.591V30.643a.569.569,0,0,0,.853.5l16.056-8.028a.591.591,0,0,0,0-1.05L13.219,14.04Zm25.55,19.884a1.772,1.772,0,0,1-1.772-1.772V13.122a1.783,1.783,0,1,1,3.566,0V32.109a1.772,1.772,0,0,1-1.794,1.772Z" transform="translate(10.45 12.385)" fill="#105e9b"/>
</svg>
