<svg id="Investments" xmlns="http://www.w3.org/2000/svg" width="23.697" height="18.934" viewBox="0 0 23.697 18.934">
  <path id="_33-investments" data-name="33-investments" d="M22.5,10.461a1.183,1.183,0,0,0-1.183-.994H16.581a1.183,1.183,0,0,0,1.183-1.373L16.581.994A1.183,1.183,0,0,0,15.4,0H8.3A1.183,1.183,0,0,0,7.115.994l-1.183,7.1A1.187,1.187,0,0,0,7.115,9.467H2.381a1.183,1.183,0,0,0-1.183.994l-1.183,7.1A1.187,1.187,0,0,0,1.2,18.933h9.467a1.187,1.187,0,0,0,1.172-1.373l-1.183-7.1a1.183,1.183,0,0,0-1.171-.994h4.733a1.183,1.183,0,0,0-1.183.994l-1.183,7.1a1.187,1.187,0,0,0,1.183,1.373h3.55a1.183,1.183,0,1,0,0-2.367H14.428l.793-4.733h5.088l.793,4.733h-.97a1.183,1.183,0,1,0,0,2.367H22.5a1.183,1.183,0,0,0,1.183-1.373Zm-19.9,6.106.793-4.733H8.476l.793,4.733ZM8.511,7.1,9.3,2.367h5.088L15.185,7.1Z" transform="translate(0 0)" fill="#fff"/>
</svg>
