<svg id="b0189bb6-647d-4cd1-8257-5d117b852592" data-name="Layer 1" xmlns="http://www.w3.org/2000/svg" xmlns:xlink="http://www.w3.org/1999/xlink" viewBox="0 0 475.14 300.57"><defs><style>.eb48db11-b5a6-4656-909a-b8474e4649cf{fill:#c09335;}.e8c332a2-da80-4197-ab85-73df5e2ae076,.e8d20def-41a8-496f-8099-574b243efebe,.eb48db11-b5a6-4656-909a-b8474e4649cf,.fb4970a9-ce66-4a3c-9183-8bd5ad0d4803,.ff6c6cf3-b6d5-4636-bbf7-0ef07c3006b3{fill-rule:evenodd;}.e8d20def-41a8-496f-8099-574b243efebe{fill:url(#fa89fa88-9899-40da-b5ad-d85cb2b4e021);}.e8c332a2-da80-4197-ab85-73df5e2ae076{fill:#fff;}.fb4970a9-ce66-4a3c-9183-8bd5ad0d4803{fill:url(#ab91166a-898b-4e19-baa4-8a18b29b7744);}.ff6c6cf3-b6d5-4636-bbf7-0ef07c3006b3{fill:#c00808;}</style><radialGradient id="fa89fa88-9899-40da-b5ad-d85cb2b4e021" cx="390.1" cy="491.81" r="125.52" gradientUnits="userSpaceOnUse"><stop offset="0" stop-color="#fed27a"/><stop offset="1" stop-color="#b28e44"/></radialGradient><linearGradient id="ab91166a-898b-4e19-baa4-8a18b29b7744" x1="287.58" y1="526.29" x2="287.58" y2="315.6" gradientUnits="userSpaceOnUse"><stop offset="0" stop-color="#1c3465"/><stop offset="1" stop-color="#005ca9"/></linearGradient></defs><polygon class="eb48db11-b5a6-4656-909a-b8474e4649cf" points="109.92 96.42 121.23 96.42 115.55 0 109.92 96.42"/><polygon class="eb48db11-b5a6-4656-909a-b8474e4649cf" points="109.92 204.16 121.23 204.16 115.55 300.57 109.92 204.16"/><path class="eb48db11-b5a6-4656-909a-b8474e4649cf" d="M170.42,315.6a105.21,105.21,0,0,1,85.37,43.61h-1.11c-14.8-20.49-36.84-33.49-61.44-33.49-43.12,0-78.33,39.89-80.58,90.1l-47.56,2.8a105.34,105.34,0,0,1,105.32-103ZM112.66,426.07c2.25,50.21,37.47,90.1,80.58,90.1,24.6,0,46.63-13,61.43-33.49h1.12A105.35,105.35,0,0,1,65.1,423.29Z" transform="translate(-60.07 -270.66)"/><path class="e8d20def-41a8-496f-8099-574b243efebe" d="M265.1,480.74h11v3.06h-7v6.35h6.7v3.06h-6.7v9.67h-4V480.74Zm38.26,0h4v22.14h-4V480.74Zm31.28,0h4.64l7.55,17.17V480.74h3.48v22.14h-4.7l-7.49-17.11v17.11h-3.48V480.74Zm43,0h4.25l4.45,17.55,4.86-17.55h3.92l-6.74,22.14h-4.24l-6.5-22.14Zm44.77,0h11.43v3.06h-7.44V490h7v3.06h-7v6.77h7.79v3.06H422.38V480.74Zm50.46.35-.19,3.38a12.46,12.46,0,0,0-2.06-.69,7.93,7.93,0,0,0-1.8-.23,3.74,3.74,0,0,0-2.41.67,2.29,2.29,0,0,0-.84,1.91,2.57,2.57,0,0,0,.61,1.67,13.11,13.11,0,0,0,2.78,2.1l.32.2c3.12,2,4.68,4.13,4.68,6.45a6.3,6.3,0,0,1-2,4.84,7.35,7.35,0,0,1-5.21,1.84,12.24,12.24,0,0,1-2.63-.28,12.63,12.63,0,0,1-2.39-.77l.3-3.41a10.68,10.68,0,0,0,2.3,1,7.88,7.88,0,0,0,2.23.33,3.71,3.71,0,0,0,2.49-.77,2.55,2.55,0,0,0,.92-2.06q0-2-3.39-4.13l-.75-.46a11.81,11.81,0,0,1-3.43-2.94,6.12,6.12,0,0,1,1-7.66,7.57,7.57,0,0,1,5.16-1.66,13.42,13.42,0,0,1,2.17.18,13.58,13.58,0,0,1,2.16.52Zm28.38-.35H515.1v3.19h-4.94v18.95h-4V483.93h-4.92Z" transform="translate(-60.07 -270.66)"/><path class="e8c332a2-da80-4197-ab85-73df5e2ae076" d="M526.72,347.52a8.6,8.6,0,0,1,4.19,1.1,7.82,7.82,0,0,1,3.15,3.12,8.52,8.52,0,0,1,0,8.5,8.07,8.07,0,0,1-3.14,3.13,8.46,8.46,0,0,1-8.45,0,8,8,0,0,1-3.14-3.13,8.53,8.53,0,0,1-1.12-4.23,8.62,8.62,0,0,1,1.14-4.27,7.9,7.9,0,0,1,3.16-3.12,8.59,8.59,0,0,1,4.18-1.1Zm0,1.68a6.86,6.86,0,0,0-3.36.88,6.3,6.3,0,0,0-2.53,2.51,6.84,6.84,0,0,0,0,6.82,6.36,6.36,0,0,0,2.52,2.52,6.77,6.77,0,0,0,6.78,0,6.45,6.45,0,0,0,2.53-2.52,6.84,6.84,0,0,0,0-6.82,6.26,6.26,0,0,0-2.54-2.51,6.86,6.86,0,0,0-3.36-.88Zm-3.84,11.35h1.84v-3.7h.47a2.05,2.05,0,0,1,1.26.38,6.12,6.12,0,0,1,1.24,1.85l.75,1.47h2.27l-1.06-1.81c-.38-.65-.59-1-.66-1.1a4.31,4.31,0,0,0-.61-.69,2.29,2.29,0,0,0-.63-.33,3,3,0,0,0,1.78-.86,2.39,2.39,0,0,0,.63-1.67,2.52,2.52,0,0,0-.33-1.28,2.35,2.35,0,0,0-.84-.87,3.71,3.71,0,0,0-1.41-.35q-.32,0-2.88,0h-1.82v9Zm1.84-5.13h.74a9,9,0,0,0,1.95-.12,1.11,1.11,0,0,0,.82-1.11,1.13,1.13,0,0,0-.21-.66,1.17,1.17,0,0,0-.61-.41,8.35,8.35,0,0,0-1.95-.13h-.74Z" transform="translate(-60.07 -270.66)"/><path class="fb4970a9-ce66-4a3c-9183-8bd5ad0d4803" d="M515,376.61l.09,72.52A15.82,15.82,0,0,1,499,465.28q-12.59,0-16.56-14.58l-13.59-49.84.06,64.44H450.54V394.72c0-5.31,1.23-9.59,3.69-12.76,2.73-3.53,6.72-5.29,11.87-5.35h.45q13.1.12,16.82,14.06l13.38,50.23,0-64.29ZM310.77,431.4a4.51,4.51,0,0,0-3.53,1.85,7.8,7.8,0,0,0,0,9.25,4.47,4.47,0,0,0,3.53,1.83h41.46v21H310.77q-9.48,0-16.09-8.07a29.63,29.63,0,0,1-6.61-19.34q0-10.1,4.84-16.94-4.83-6.85-4.84-16.92a29.54,29.54,0,0,1,6.61-19.34q6.6-8.06,16.09-8.07h41.46v20.93H310.77a4.48,4.48,0,0,0-3.53,1.85,7.77,7.77,0,0,0,0,9.23,4.48,4.48,0,0,0,3.53,1.85h41.46V431.4Zm-57.5-54.79h30.11v20.93H253.27c-4.42,0-8.28,2.26-11.52,6.77s-4.88,10.07-4.88,16.63,1.63,12.1,4.88,16.62,7.1,6.77,11.52,6.77h30.11v21H253.27q-14.18,0-24.11-13.08t-9.94-31.27q0-18.22,9.94-31.28t24.11-13.05ZM178,465.29q-15.24,0-25.92-13t-10.66-31.32q0-18.29,10.66-31.32t25.92-13q15.24,0,25.91,13t10.68,31.32q0,18.29-10.68,31.32t-25.91,13Zm0-21c5.19,0,9.63-2.25,13.35-6.79a27.51,27.51,0,0,0,0-33.19q-5.58-6.81-13.35-6.81t-13.34,6.81a27.47,27.47,0,0,0,0,33.19c3.72,4.54,8.16,6.79,13.34,6.79ZM165.39,315.6A105.33,105.33,0,0,0,60.07,418.92l47.54-2.8c2.13-50.35,37.4-90.4,80.59-90.4,24.61,0,46.64,13,61.44,33.49h1.11a105.19,105.19,0,0,0-85.36-43.61ZM107.61,425.77,60.07,423a105.35,105.35,0,0,0,190.69,59.69h-1.12c-14.8,20.49-36.83,33.49-61.44,33.49C145,516.17,109.74,476.12,107.61,425.77Z" transform="translate(-60.07 -270.66)"/><path class="ff6c6cf3-b6d5-4636-bbf7-0ef07c3006b3" d="M357.39,457.16l39.33-79.24c2-4.09,7.65-3.91,9.8.44l38.72,78.36c1.09,2.21.86,7.23-1.72,7.23H409.16V450.37h16.23l-23.92-50-23.92,50H393.7V464H359.42C356.92,464,356.39,459.17,357.39,457.16Z" transform="translate(-60.07 -270.66)"/><path class="eb48db11-b5a6-4656-909a-b8474e4649cf" d="M521.76,353.69a8.42,8.42,0,0,1,4.11,1.08,7.71,7.71,0,0,1,3.09,3.06,8.36,8.36,0,0,1,0,8.34,8,8,0,0,1-3.08,3.08,8.38,8.38,0,0,1-8.3,0,8,8,0,0,1-3.08-3.08,8.36,8.36,0,0,1,0-8.34,7.71,7.71,0,0,1,3.09-3.06,8.42,8.42,0,0,1,4.11-1.08Zm0,1.65a6.83,6.83,0,0,0-3.3.86,6.18,6.18,0,0,0-2.48,2.46,6.68,6.68,0,0,0,0,6.7,6.24,6.24,0,0,0,2.47,2.47,6.67,6.67,0,0,0,6.66,0,6.31,6.31,0,0,0,2.47-2.47,6.68,6.68,0,0,0,0-6.7,6.18,6.18,0,0,0-2.48-2.46,6.89,6.89,0,0,0-3.3-.86ZM518,366.47h1.8v-3.62h.46a2,2,0,0,1,1.24.37,6,6,0,0,1,1.22,1.82l.73,1.43h2.23l-1-1.77c-.37-.63-.58-1-.65-1.08a3.61,3.61,0,0,0-.6-.67,2.08,2.08,0,0,0-.62-.33,2.88,2.88,0,0,0,1.75-.85,2.29,2.29,0,0,0,.62-1.63,2.47,2.47,0,0,0-.33-1.26A2.17,2.17,0,0,0,524,358a3.55,3.55,0,0,0-1.38-.35c-.2,0-1.15,0-2.83,0H518v8.81Zm1.8-5h.72a8.87,8.87,0,0,0,1.93-.12,1.12,1.12,0,0,0,.59-.41,1.13,1.13,0,0,0,.21-.67,1.07,1.07,0,0,0-.21-.65,1.14,1.14,0,0,0-.6-.41,8.89,8.89,0,0,0-1.92-.12h-.72Z" transform="translate(-60.07 -270.66)"/></svg>