<svg id="aebb3c70-8aa0-461d-a576-752904e8df3b" data-name="Layer 1" xmlns="http://www.w3.org/2000/svg" viewBox="0 0 475.14 300.57"><defs><style>.f78d43bb-04bc-411f-b403-f3a33141ef0a{fill:#fff;fill-rule:evenodd;}</style></defs><polygon class="f78d43bb-04bc-411f-b403-f3a33141ef0a" points="109.92 96.42 121.23 96.42 115.55 0 109.92 96.42"/><polygon class="f78d43bb-04bc-411f-b403-f3a33141ef0a" points="109.92 204.16 121.23 204.16 115.55 300.57 109.92 204.16"/><path class="f78d43bb-04bc-411f-b403-f3a33141ef0a" d="M1356.44,213.52a105.19,105.19,0,0,1,85.36,43.61h-1.11c-14.8-20.49-36.83-33.49-61.44-33.49-43.11,0-78.32,39.89-80.58,90.11l-47.55,2.8a105.34,105.34,0,0,1,105.32-103ZM1298.67,324c2.26,50.21,37.47,90.1,80.58,90.1,24.61,0,46.64-13,61.44-33.49h1.12a105.35,105.35,0,0,1-190.69-59.39Z" transform="translate(-1246.08 -168.58)"/><path class="f78d43bb-04bc-411f-b403-f3a33141ef0a" d="M1451.11,378.66h11v3.06h-7v6.35h6.7v3.07h-6.7v9.66h-4V378.66Zm38.27,0h4V400.8h-4V378.66Zm31.28,0h4.63l7.56,17.17V378.66h3.48V400.8h-4.7l-7.49-17.11V400.8h-3.48V378.66Zm43,0h4.25l4.46,17.55,4.85-17.55h3.93l-6.75,22.14h-4.23l-6.51-22.14Zm44.78,0h11.42v3.06h-7.43v6.19h7V391h-7v6.76h7.78v3.06H1608.4V378.66Zm50.45.35-.18,3.38a15.09,15.09,0,0,0-2.06-.69,7.93,7.93,0,0,0-1.8-.23,3.79,3.79,0,0,0-2.42.67,2.3,2.3,0,0,0-.84,1.91,2.58,2.58,0,0,0,.62,1.67,12.52,12.52,0,0,0,2.78,2.1l.32.21c3.12,2,4.67,4.13,4.67,6.45a6.27,6.27,0,0,1-2,4.83,7.39,7.39,0,0,1-5.22,1.85,12.16,12.16,0,0,1-2.62-.29,11.34,11.34,0,0,1-2.39-.77l.3-3.41a11.19,11.19,0,0,0,2.29,1,8.32,8.32,0,0,0,2.24.33,3.8,3.8,0,0,0,2.49-.77,2.59,2.59,0,0,0,.92-2.07c0-1.35-1.14-2.73-3.4-4.12l-.74-.47a11.67,11.67,0,0,1-3.43-2.94,6.12,6.12,0,0,1,1-7.66,7.54,7.54,0,0,1,5.15-1.66,13.24,13.24,0,0,1,2.17.18,14.17,14.17,0,0,1,2.16.52Zm28.39-.35h13.88v3.19h-4.95V400.8h-4V381.85h-4.91Z" transform="translate(-1246.08 -168.58)"/><path class="f78d43bb-04bc-411f-b403-f3a33141ef0a" d="M1712.74,245.45a8.62,8.62,0,0,1,4.19,1.09,7.84,7.84,0,0,1,3.15,3.13,8.47,8.47,0,0,1,0,8.49,8,8,0,0,1-3.13,3.13,8.48,8.48,0,0,1-8.46,0,8,8,0,0,1-3.13-3.13,8.54,8.54,0,0,1,0-8.49,7.9,7.9,0,0,1,3.15-3.13,8.62,8.62,0,0,1,4.19-1.09Zm0,1.68a7,7,0,0,0-3.36.87,6.36,6.36,0,0,0-2.53,2.51,6.78,6.78,0,0,0,0,6.82,6.36,6.36,0,0,0,2.52,2.52,6.77,6.77,0,0,0,6.78,0,6.36,6.36,0,0,0,2.52-2.52,6.78,6.78,0,0,0,0-6.82,6.3,6.3,0,0,0-2.53-2.51,7,7,0,0,0-3.36-.87Zm-3.84,11.34h1.83v-3.7h.48a2,2,0,0,1,1.25.38,6.14,6.14,0,0,1,1.25,1.86l.74,1.46h2.27l-1-1.81c-.38-.64-.6-1-.67-1.1a4.77,4.77,0,0,0-.61-.69,2.15,2.15,0,0,0-.63-.33,2.92,2.92,0,0,0,1.78-.86,2.33,2.33,0,0,0,.64-1.66,2.49,2.49,0,0,0-.34-1.29,2.11,2.11,0,0,0-.84-.86,3.43,3.43,0,0,0-1.41-.36c-.2,0-1.16,0-2.87,0h-1.82v9Zm1.83-5.13h.74a9.1,9.1,0,0,0,2-.12,1.18,1.18,0,0,0,.6-.42,1.11,1.11,0,0,0,.22-.68,1,1,0,0,0-.22-.66,1.09,1.09,0,0,0-.61-.42,8.85,8.85,0,0,0-2-.13h-.74Z" transform="translate(-1246.08 -168.58)"/><path class="f78d43bb-04bc-411f-b403-f3a33141ef0a" d="M1701,274.54l.1,72.52A15.82,15.82,0,0,1,1685,363.2q-12.59,0-16.57-14.58l-13.58-49.83.06,64.43h-18.34V292.64c0-5.3,1.23-9.59,3.69-12.76,2.74-3.53,6.73-5.29,11.88-5.34h.45q13.08.1,16.81,14l13.38,50.23,0-64.28Zm-204.24,54.79a4.48,4.48,0,0,0-3.53,1.85,7.82,7.82,0,0,0,0,9.24,4.46,4.46,0,0,0,3.53,1.83h41.47v21h-41.47c-6.31,0-11.69-2.7-16.08-8.07a29.58,29.58,0,0,1-6.62-19.34q0-10.1,4.84-16.94-4.83-6.84-4.84-16.92a29.54,29.54,0,0,1,6.62-19.34q6.6-8.06,16.08-8.07h41.47v20.94h-41.47a4.5,4.5,0,0,0-3.53,1.84,7.81,7.81,0,0,0,0,9.23,4.48,4.48,0,0,0,3.53,1.85h41.47v20.94Zm-57.49-54.8h30.11v20.94h-30.11q-6.64,0-11.53,6.76t-4.87,16.63c0,6.58,1.63,12.1,4.87,16.62s7.1,6.77,11.53,6.77h30.11v21h-30.11q-14.19,0-24.12-13.07t-9.93-31.28q0-18.23,9.93-31.28t24.12-13.05ZM1364,363.21q-15.24,0-25.92-13t-10.66-31.32q0-18.28,10.66-31.32t25.92-13q15.24,0,25.9,13t10.68,31.32q0,18.28-10.68,31.32t-25.9,13Zm0-21c5.18,0,9.63-2.25,13.35-6.79a27.53,27.53,0,0,0,0-33.18q-5.58-6.81-13.35-6.81t-13.35,6.81a27.45,27.45,0,0,0,0,33.18c3.72,4.54,8.17,6.79,13.35,6.79ZM1351.4,213.52a105.34,105.34,0,0,0-105.32,103.32l47.55-2.8c2.13-50.35,37.39-90.4,80.59-90.4,24.61,0,46.64,13,61.44,33.49h1.11a105.2,105.2,0,0,0-85.37-43.61ZM1293.63,323.7l-47.55-2.78a105.34,105.34,0,0,0,190.69,59.68h-1.12c-14.8,20.49-36.83,33.49-61.43,33.49C1331,414.09,1295.76,374.05,1293.63,323.7Z" transform="translate(-1246.08 -168.58)"/><path class="f78d43bb-04bc-411f-b403-f3a33141ef0a" d="M1543.4,355.08l39.34-79.24c2-4.09,7.65-3.91,9.8.44l38.71,78.36c1.09,2.21.86,7.24-1.72,7.24h-34.36V348.29h16.23l-23.92-50-23.92,50h16.16v13.59h-34.29C1542.94,361.88,1542.41,357.09,1543.4,355.08Z" transform="translate(-1246.08 -168.58)"/></svg>