<svg id="next" xmlns="http://www.w3.org/2000/svg" width="70" height="70" viewBox="0 0 70 70">
  <path id="Path_14153" data-name="Path 14153" d="M16.013,70H53.987A16.013,16.013,0,0,0,70,53.987V16.013A16.013,16.013,0,0,0,53.988,0H16.013A16.012,16.012,0,0,0,0,16.012V53.987A16.013,16.013,0,0,0,16.013,70ZM53.987,3.566A12.447,12.447,0,0,1,66.434,16.013V53.987A12.447,12.447,0,0,1,53.987,66.434H16.013A12.447,12.447,0,0,1,3.566,53.987V16.013A12.447,12.447,0,0,1,16.013,3.566Z" fill="#105e9b"/>
  <path id="Path_14154" data-name="Path 14154" d="M36.144,34.8A4.156,4.156,0,0,0,40.3,30.643V14.587a4.156,4.156,0,0,0-6.016-3.719L18.228,18.9a4.156,4.156,0,0,0,0,7.416L34.284,34.34A4.178,4.178,0,0,0,36.144,34.8Zm0-20.8a.591.591,0,0,1,.591.591V30.643a.569.569,0,0,1-.853.5L19.825,23.118a.591.591,0,0,1,0-1.05L35.881,14.04ZM10.594,33.881a1.772,1.772,0,0,0,1.772-1.772V13.122a1.783,1.783,0,1,0-3.566,0V32.109a1.772,1.772,0,0,0,1.794,1.772Z" transform="translate(10.45 12.385)" fill="#105e9b"/>
</svg>
