<svg xmlns="http://www.w3.org/2000/svg" width="90.168" height="64.056" viewBox="0 0 90.168 64.056">
  <path id="quote_1_" data-name="quote (1)" d="M71.345,9.272a19.41,19.41,0,0,0-2.649,38.7c-2.141,5.635-8.087,10.581-11.68,13.173a6.687,6.687,0,0,0-1.846,8.791,7.039,7.039,0,0,0,4.438,3.255,6.809,6.809,0,0,0,1.409.127,6.569,6.569,0,0,0,3.832-1.2,87.147,87.147,0,0,0,12.285-10.2A46.339,46.339,0,0,0,90.168,29.433C90.168,18.627,81.715,9.611,71.345,9.272Zm-51.368,0a19.41,19.41,0,0,0-2.635,38.7C15.2,53.61,9.256,58.555,5.664,61.147a6.734,6.734,0,0,0-2.761,5.4,6.468,6.468,0,0,0,.944,3.4,6.878,6.878,0,0,0,4.41,3.255,6.906,6.906,0,0,0,1.437.127,6.484,6.484,0,0,0,3.8-1.2,87.147,87.147,0,0,0,12.285-10.2,46.511,46.511,0,0,0,12.99-32.489C38.8,18.627,30.375,9.611,19.978,9.272Z" transform="translate(0 -9.264)" fill="#105e9b" opacity="0.35"/>
</svg>
