<svg id="Graph" xmlns="http://www.w3.org/2000/svg" width="21.3" height="21.3" viewBox="0 0 21.3 21.3">
  <g id="_49-graph" data-name="49-graph" transform="translate(0 0)">
    <path id="Vector" d="M15.821,6.52A3.538,3.538,0,1,0,14.2,3.55a3.467,3.467,0,0,0,.177,1.065L12.543,6.473a3.55,3.55,0,0,0-4.426.509L7.029,6.627a3.443,3.443,0,0,0,.071-.71A3.55,3.55,0,1,0,5.739,8.7l1.361.45a2.935,2.935,0,0,0,0,.319,3.55,3.55,0,0,0,7.1,0,3.846,3.846,0,0,0-.189-1.112ZM17.75,2.367a1.183,1.183,0,1,1-.837.347,1.183,1.183,0,0,1,.837-.347ZM2.367,5.917a1.183,1.183,0,1,1,.347.837,1.183,1.183,0,0,1-.347-.837ZM10.65,10.65a1.183,1.183,0,1,1,.837-.347A1.183,1.183,0,0,1,10.65,10.65Z" transform="translate(0 0)" fill="#fff"/>
    <path id="Vector-2" data-name="Vector" d="M4.733,2.367H1.183A1.183,1.183,0,0,0,0,3.55v8.283a1.183,1.183,0,0,0,1.183,1.183h3.55a1.183,1.183,0,0,0,1.183-1.183V3.55A1.183,1.183,0,0,0,4.733,2.367ZM3.55,10.65H2.367V4.733H3.55ZM18.933,0h-3.55A1.183,1.183,0,0,0,14.2,1.183v10.65a1.183,1.183,0,0,0,1.183,1.183h3.55a1.183,1.183,0,0,0,1.183-1.183V8.283a1.183,1.183,0,1,0-2.367,0V10.65H16.567V2.367H17.75V4.733a1.183,1.183,0,1,0,2.367,0V1.183A1.183,1.183,0,0,0,18.933,0Zm-7.1,5.917H8.283A1.183,1.183,0,0,0,7.1,7.1v4.733a1.183,1.183,0,0,0,1.183,1.183h3.55a1.183,1.183,0,0,0,1.183-1.183V7.1a1.183,1.183,0,0,0-1.183-1.183ZM10.65,10.65H9.467V8.283H10.65Z" transform="translate(1.183 8.283)" fill="#fff"/>
  </g>
</svg>
