<svg xmlns="http://www.w3.org/2000/svg" xmlns:xlink="http://www.w3.org/1999/xlink" width="91.214" height="99.649" viewBox="0 0 91.214 99.649">
  <defs>
    <filter id="Path_14387" x="0" y="0" width="91.214" height="54.625" filterUnits="userSpaceOnUse">
      <feOffset dy="3" input="SourceAlpha"/>
      <feGaussianBlur stdDeviation="3" result="blur"/>
      <feFlood flood-opacity="0.161"/>
      <feComposite operator="in" in2="blur"/>
      <feComposite in="SourceGraphic"/>
    </filter>
    <filter id="Path_14388" x="14.074" y="22.53" width="57.466" height="62.997" filterUnits="userSpaceOnUse">
      <feOffset dy="3" input="SourceAlpha"/>
      <feGaussianBlur stdDeviation="3" result="blur-2"/>
      <feFlood flood-opacity="0.161"/>
      <feComposite operator="in" in2="blur-2"/>
      <feComposite in="SourceGraphic"/>
    </filter>
    <filter id="Path_14389" x="16.893" y="71.793" width="51.797" height="27.855" filterUnits="userSpaceOnUse">
      <feOffset dy="3" input="SourceAlpha"/>
      <feGaussianBlur stdDeviation="3" result="blur-3"/>
      <feFlood flood-opacity="0.161"/>
      <feComposite operator="in" in2="blur-3"/>
      <feComposite in="SourceGraphic"/>
    </filter>
  </defs>
  <g id="Group_16074" data-name="Group 16074" transform="translate(-90.923 -82.641)">
    <g transform="matrix(1, 0, 0, 1, 90.92, 82.64)" filter="url(#Path_14387)">
      <path id="Path_14387-2" data-name="Path 14387" d="M105.588,99.947v13.994a5.956,5.956,0,0,1,3.952,1.693,5.888,5.888,0,0,1,1.67,3.952h26.726a36.013,36.013,0,0,1-.077,4.615c-.054.408-1.036.712-1.615,1.021-.161.086-.4.019-.609.019h-33.7c-1.606,0-2.011-.411-2.011-2.037q0-16.275,0-32.55c0-1.609.409-2.013,2.034-2.013h69.159c1.612,0,2.021.409,2.021,2.027q0,16.275,0,32.55c0,1.612-.411,2.022-2.027,2.022q-6.247,0-12.494,0H157.7v-5.583h4.1c.386-3.445,2.258-5.347,5.664-5.737V99.964c-3.541-.546-5.1-2.1-5.655-5.649H111.263C110.615,97.934,109.036,99.508,105.588,99.947Z" transform="translate(-90.92 -82.64)" fill="#fff"/>
    </g>
    <g transform="matrix(1, 0, 0, 1, 90.92, 82.64)" filter="url(#Path_14388)">
      <path id="Path_14388-2" data-name="Path 14388" d="M193.6,229.493H165.441c0-1.091-.079-2.2.017-3.29a7.5,7.5,0,0,0-1.735-5.679,19.075,19.075,0,0,1-3.908-11.892c-.023-1.9,0-3.807,0-5.776h17.552c-.13.246-.24.471-.365.688a11.894,11.894,0,0,0-1.695,6.194,1.9,1.9,0,0,0,2.029,2.046,1.947,1.947,0,0,0,2.187-1.984c.287-4.564,2.868-7.517,7.348-8.328a1.148,1.148,0,0,0,1.114-1.35c-.03-3.283-.043-6.567,0-9.851a5.71,5.71,0,0,1,5.729-5.776,5.536,5.536,0,0,1,5.493,5.332c.06,6.6.131,13.2-.035,19.788a20.121,20.121,0,0,1-5.079,12.646,2.133,2.133,0,0,0-.466,1.232C193.573,225.479,193.6,227.465,193.6,229.493Z" transform="translate(-136.73 -155.97)" fill="#fff"/>
    </g>
    <g transform="matrix(1, 0, 0, 1, 90.92, 82.64)" filter="url(#Path_14389)">
      <path id="Path_14389-2" data-name="Path 14389" d="M188.609,403.948q-7.435,0-14.871,0c-1.5,0-1.935-.439-1.937-1.934,0-2.053-.006-4.106,0-6.158,0-1.264.494-1.758,1.757-1.759q15.135-.005,30.269,0c1.264,0,1.756.495,1.761,1.755q.011,3.167,0,6.334c0,1.262-.5,1.759-1.758,1.76Q196.22,403.954,188.609,403.948Z" transform="translate(-145.9 -316.3)" fill="#fff"/>
    </g>
  </g>
</svg>
