<svg xmlns="http://www.w3.org/2000/svg" xmlns:xlink="http://www.w3.org/1999/xlink" width="87.068" height="110.101" viewBox="0 0 87.068 110.101">
  <defs>
    <filter id="Path_14384" x="0" y="16.474" width="87.068" height="93.628" filterUnits="userSpaceOnUse">
      <feOffset dy="3" input="SourceAlpha"/>
      <feGaussianBlur stdDeviation="3" result="blur"/>
      <feFlood flood-opacity="0.161"/>
      <feComposite operator="in" in2="blur"/>
      <feComposite in="SourceGraphic"/>
    </filter>
    <filter id="Path_14385" x="13.91" y="0" width="59.237" height="41.107" filterUnits="userSpaceOnUse">
      <feOffset dy="3" input="SourceAlpha"/>
      <feGaussianBlur stdDeviation="3" result="blur-2"/>
      <feFlood flood-opacity="0.161"/>
      <feComposite operator="in" in2="blur-2"/>
      <feComposite in="SourceGraphic"/>
    </filter>
    <filter id="Path_14386" x="32.711" y="66.571" width="21.668" height="22.113" filterUnits="userSpaceOnUse">
      <feOffset dy="3" input="SourceAlpha"/>
      <feGaussianBlur stdDeviation="3" result="blur-3"/>
      <feFlood flood-opacity="0.161"/>
      <feComposite operator="in" in2="blur-3"/>
      <feComposite in="SourceGraphic"/>
    </filter>
  </defs>
  <g id="Group_16073" data-name="Group 16073" transform="translate(-102.907 -58.626)">
    <g transform="matrix(1, 0, 0, 1, 102.91, 58.63)" filter="url(#Path_14384)">
      <path id="Path_14384-2" data-name="Path 14384" d="M125.4,208.827a31.641,31.641,0,0,1-4.538-1.33,14.465,14.465,0,0,1-8.585-11.6c-1.016-6.421.17-12.587,2.271-18.619,3.287-9.442,8.477-17.809,14.675-25.587a1.321,1.321,0,0,1,.9-.4c1.5-.041,3-.012,4.5-.021,1.212-.007,1.937-.629,1.94-1.638s-.7-1.622-1.935-1.627c-2.1-.009-4.2,0-6.295,0a7.069,7.069,0,0,1-.987-.042,2.546,2.546,0,0,1-2.282-2.571,2.517,2.517,0,0,1,2.5-2.35c.3-.018.6-.007.9-.007q17.491,0,34.982.015a3.7,3.7,0,0,0,2.328-.754,9.651,9.651,0,0,0,4.077-7.184c.011-.119.013-.24.032-.358a1.658,1.658,0,0,1,1.766-1.546,1.632,1.632,0,0,1,1.5,1.876,12.4,12.4,0,0,1-4.445,9c-.312.269-.632.529-1.064.891l1.114.356a11.668,11.668,0,0,1,7.413,6.592c.516,1.148.225,2.107-.718,2.5-.926.388-1.757-.044-2.263-1.158a8.277,8.277,0,0,0-8.048-5.268c-6.654-.015-13.309,0-19.964.008-1.312,0-2.007.59-1.99,1.654.017,1.041.733,1.613,2.049,1.613,5.785,0,11.571-.008,17.356.022a1.62,1.62,0,0,1,1.131.472,87.785,87.785,0,0,1,14.45,25,41.928,41.928,0,0,1,2.8,15.195c-.086,3.788-.671,7.465-2.968,10.645a14.39,14.39,0,0,1-10,6.067,3.439,3.439,0,0,0-.508.153Zm29.271-14.94a5.142,5.142,0,0,0-.209-.672q-3.218-7.259-6.448-14.514a1.674,1.674,0,0,0-3.13-.007q-3.225,7.257-6.446,14.515a1.644,1.644,0,1,0,3,1.322c.484-1.028.963-2.061,1.385-3.115a.964.964,0,0,1,1.064-.707q2.561.052,5.123,0a.965.965,0,0,1,1.07.7c.444,1.11.936,2.2,1.458,3.279a1.557,1.557,0,0,0,1.845.934A1.686,1.686,0,0,0,154.67,193.886Zm9.866-4.294c1.152,1.727,2.242,3.37,3.341,5.007.723,1.077,1.622,1.358,2.486.791s.971-1.523.26-2.6c-1.189-1.8-2.366-3.605-3.6-5.372a1.146,1.146,0,0,1-.023-1.568c1.264-1.781,2.453-3.618,3.658-5.44a1.665,1.665,0,1,0-2.713-1.854c-.255.369-.5.745-.751,1.119l-2.657,3.984c-1.172-1.758-2.262-3.4-3.364-5.043-.713-1.06-1.64-1.324-2.5-.734-.833.572-.937,1.5-.255,2.527,1.222,1.848,2.433,3.7,3.7,5.519a1.048,1.048,0,0,1-.023,1.416q-1.939,2.808-3.792,5.676a1.635,1.635,0,0,0,1.064,2.621,1.768,1.768,0,0,0,1.781-.971C162.257,193.006,163.37,191.344,164.537,189.592Zm-34.528-8.7c.49,0,.871,0,1.251,0,1.258-.009,2.52.029,3.774-.047a1.542,1.542,0,0,0,1.526-1.577,1.637,1.637,0,0,0-1.539-1.679,4.066,4.066,0,0,0-.539-.02q-6.115,0-12.23,0a3.842,3.842,0,0,0-.716.045,1.6,1.6,0,0,0-1.382,1.628,1.513,1.513,0,0,0,1.409,1.583c.951.092,1.915.055,2.873.065.734.008,1.468,0,2.257,0,0,.506,0,.862,0,1.218,0,3.9-.009,7.792.007,11.688a1.664,1.664,0,1,0,3.3.025c.011-.239,0-.48,0-.719V180.889Z" transform="translate(-102.91 -110.73)" fill="#fff"/>
    </g>
    <g transform="matrix(1, 0, 0, 1, 102.91, 58.63)" filter="url(#Path_14385)">
      <path id="Path_14385-2" data-name="Path 14385" d="M190.382,87.662c-4.347,0-8.694-.011-13.041.013a1.243,1.243,0,0,1-1.229-.651q-2.763-4.419-5.6-8.794a3.34,3.34,0,0,1-.294-3.642,3.232,3.232,0,0,1,3.219-1.71c.955.039,2.114-.269,2.807.17.648.41.814,1.6,1.171,2.449,1.052,2.512,2.089,5.03,3.14,7.542.419,1,1.079,1.445,1.9,1.306a1.666,1.666,0,0,0,1.161-2.5c-1.517-3.68-3.054-7.351-4.582-11.026-.241-.58-.5-1.154-.71-1.746a3.242,3.242,0,0,1,3.028-4.418q9.084-.053,18.168,0a3.266,3.266,0,0,1,2.9,4.757c-1.675,4.067-3.384,8.121-5.072,12.183a3.82,3.82,0,0,0-.29.938,1.553,1.553,0,0,0,1.1,1.741,1.585,1.585,0,0,0,1.923-.752,12.807,12.807,0,0,0,.58-1.313c1.2-2.872,2.41-5.739,3.578-8.623.212-.523.459-.753,1.038-.717.806.05,1.618,0,2.428.016A3.25,3.25,0,0,1,210.471,78c-1.507,2.449-3.218,4.782-4.577,7.307a4.048,4.048,0,0,1-4.363,2.407C197.825,87.512,194.1,87.662,190.382,87.662Z" transform="translate(-146.9 -58.63)" fill="#fff"/>
    </g>
    <g transform="matrix(1, 0, 0, 1, 102.91, 58.63)" filter="url(#Path_14386)">
      <path id="Path_14386-2" data-name="Path 14386" d="M251.736,345.841h-3.668l1.819-4.113Z" transform="translate(-206.36 -269.16)" fill="#fff"/>
    </g>
  </g>
</svg>
