<svg id="US_Stocks" data-name="US Stocks" xmlns="http://www.w3.org/2000/svg" width="38" height="36.823" viewBox="0 0 38 36.823">
  <g id="Group_16" data-name="Group 16">
    <path id="Path_322" data-name="Path 322" d="M36.7,71.1a.693.693,0,0,0-.693.693v1.388a.693.693,0,1,0,1.387,0V71.789A.693.693,0,0,0,36.7,71.1Z" transform="translate(-23.616 -44.565)" fill="#105e9b"/>
    <path id="Path_323" data-name="Path 323" d="M36.7,60.08a.693.693,0,0,0-.693.693v1.388a.693.693,0,1,0,1.387,0V60.773A.693.693,0,0,0,36.7,60.08Z" transform="translate(-23.616 -38.641)" fill="#105e9b"/>
    <path id="Path_324" data-name="Path 324" d="M23.943,72.9a.693.693,0,0,0-.693.693v1.161a.693.693,0,1,0,1.387,0V73.593A.694.694,0,0,0,23.943,72.9Z" transform="translate(-16.757 -45.536)" fill="#105e9b"/>
    <path id="Path_325" data-name="Path 325" d="M40.193,31.188V20.777l.131.105A1.782,1.782,0,0,0,43.219,19.5a1.865,1.865,0,0,0-.012-.217l-.088-3.849a1.771,1.771,0,0,0-.665-1.345A1.789,1.789,0,0,0,41,13.73l-3.949.786a1.776,1.776,0,0,0-.764,3.127l.514.412L26.684,30.09l-3.674-2.012a2.029,2.029,0,0,0-2.366.34L9.787,39.312a1.979,1.979,0,0,0-.061,2.743v4.65c0,.383.208.693.464.693h19.72a.334.334,0,0,0,.179-.054,9.872,9.872,0,1,0,10.1-16.157ZM28.014,37.361a.685.685,0,0,0-.908.656v1.161a.691.691,0,0,0,.38.615c-.024.279-.043.56-.043.846a10.092,10.092,0,0,0,.052,1.015.691.691,0,0,0-.389.62v.693a.684.684,0,0,0,.81.682,9.838,9.838,0,0,0,1.127,2.362H22.977a.693.693,0,1,0-1.387,0H17.082a.693.693,0,1,0-1.387,0H11.112V42.7c.028,0,.055.008.083.008a1.98,1.98,0,0,0,1.41-.585l3.161-3.172a.692.692,0,0,0,1.317-.3v-.693a.689.689,0,0,0-.056-.273l4.937-4.954a.682.682,0,0,0,.882-.207L26.2,34.369a2,2,0,0,0,.9.241v.311a.693.693,0,0,0,1.387,0v-.693a.712.712,0,0,0-.013-.13,1.932,1.932,0,0,0,.2-.2l5.129-6.1a.691.691,0,0,0,1.064-.584v-.683l3.929-4.676v9.028a9.767,9.767,0,0,0-10.792,6.477Zm-17.246,2.93L21.626,29.4a.606.606,0,0,1,.719-.1l4.171,2.285a.692.692,0,0,0,.864-.162L38.315,18.4a.692.692,0,0,0-.1-.987l-1.067-.856a.389.389,0,0,1,.167-.685l3.947-.786a.4.4,0,0,1,.321.078.385.385,0,0,1,.145.295l.089,3.888a.712.712,0,0,0,.008.089.393.393,0,0,1-.393.446.388.388,0,0,1-.243-.086l-.948-.759a.693.693,0,0,0-.965.1l-.4.482a.245.245,0,0,0-.037.044L27.623,33.011a.621.621,0,0,1-.754.142l-4.251-2.329c-.006,0-.012,0-.018-.006a.686.686,0,0,0-.187-.066l-.026,0a.683.683,0,0,0-.1-.01.631.631,0,0,0-.073.007l-.039,0a.677.677,0,0,0-.183.057l-.031.017a.691.691,0,0,0-.165.119h0L11.623,41.149a.62.62,0,0,1-.856,0,.6.6,0,0,1,0-.857Zm26.555,8.841a8.493,8.493,0,1,1,8.493-8.493A8.5,8.5,0,0,1,37.323,49.133Z" transform="translate(-9.203 -13.696)" fill="#105e9b"/>
    <path id="Path_326" data-name="Path 326" d="M67.505,64.089l-1.57-.518c-.241-.077-1.221-.426-1.116-1.395a1.046,1.046,0,0,1,.443-.848,1.624,1.624,0,0,1,.9-.232,1.469,1.469,0,0,1,1.284.45,1.23,1.23,0,0,1,.236.7.666.666,0,0,0,.735.574.747.747,0,0,0,.807-.645,2.64,2.64,0,0,0-.52-1.637,2.584,2.584,0,0,0-1.617-.954v-.712a.693.693,0,1,0-1.387,0v.675a2.583,2.583,0,0,0-1.832.982,2.9,2.9,0,0,0-.347,3.051c.534,1.4,3.084,1.849,3.084,1.849.476.116,1.386.3,1.388,1.4,0,.426-.262,1.252-1.62,1.252a1.378,1.378,0,0,1-1.531-1.425s.011-.6-.735-.6a.72.72,0,0,0-.8.6,2.718,2.718,0,0,0,.505,1.811A2.91,2.91,0,0,0,65.7,69.617v.635a.693.693,0,0,0,1.387,0v-.64a3.029,3.029,0,0,0,2.446-3A2.569,2.569,0,0,0,67.505,64.089Z" transform="translate(-38.269 -37.617)" fill="#105e9b"/>
  </g>
</svg>
