<svg id="Wealth_management" xmlns="http://www.w3.org/2000/svg" width="82.404" height="83.756" viewBox="0 0 82.404 83.756">
  <g id="Group_28" data-name="Group 28">
    <path id="Path_346" data-name="Path 346" d="M44.126,27.623c-.017.017-.033,0-.033.017a7.345,7.345,0,0,1-1.206.117H19.137a7,7,0,0,1-1.206-.117c-.017-.017-.033,0-.05-.017C8.284,34.741,1.4,48.96,1.4,61.857c0,15.392,9.7,22.879,29.612,22.879A53.255,53.255,0,0,0,42.92,83.546a7.912,7.912,0,0,1-5.075-2.211l-4.036-4.053a7.8,7.8,0,0,1-1.44-8.994,7.793,7.793,0,0,1-5.36-7.4V55.208a7.814,7.814,0,0,1,5.36-7.4,7.8,7.8,0,0,1,1.44-9.011l4.036-4.02a7.834,7.834,0,0,1,5.51-2.244,7.993,7.993,0,0,1,3.534.821,8.2,8.2,0,0,1,1.189-2.278A31.508,31.508,0,0,0,44.126,27.623Zm-1.239-8.358H19.137a2.429,2.429,0,0,0,0,4.857h23.75a2.429,2.429,0,0,0,0-4.857ZM45.684,2.9c-2.01-5.058-10.4,1.474-13.968,2.194a13.141,13.141,0,0,1-8.743-1.574C20.695,2.265,17.78.674,16.457,2.65,15.084,4.677,18,10.505,22.872,15.614H39.721C44.059,10.824,46.672,5.33,45.684,2.9Z" transform="translate(-1.4 -0.996)" fill="#bf944f"/>
    <g id="Group_27" data-name="Group 27" transform="translate(28.959 30.311)">
      <path id="Path_347" data-name="Path 347" d="M67.713,38.556a1.045,1.045,0,0,1-1-.687c-.485-1.309-1.063-1.985-.4-2.646a4.446,4.446,0,0,0,.017-6.281l-4.02-4.02a4.566,4.566,0,0,0-6.264,0c-.685.723-1.342.017-2.6-.352a1.15,1.15,0,0,1-.754-1.055,4.417,4.417,0,0,0-4.422-4.422H42.574a4.475,4.475,0,0,0-4.422,4.438c0,.886-.844,1.05-2.127,1.574a1.057,1.057,0,0,1-1.206-.167.878.878,0,0,0-.184-.168,4.545,4.545,0,0,0-6.1.151l-4.02,4.02a4.433,4.433,0,0,0-.017,6.247c.709.709.08,1.42-.352,2.629a1.113,1.113,0,0,1-1.039.737,4.432,4.432,0,0,0-4.422,4.438v5.678a4.439,4.439,0,0,0,4.455,4.438,1.069,1.069,0,0,1,1,.7c.4,1.07,1.093,1.947.368,2.63a4.438,4.438,0,0,0,0,6.264l4.02,4.036a4.537,4.537,0,0,0,6.281-.017,1.159,1.159,0,0,1,1.239-.2c1.419.631,1.548.578,1.809.871.66.72-.2,2.1,1.608,3.869a4.415,4.415,0,0,0,3.1,1.273h5.694a4.417,4.417,0,0,0,4.422-4.422,1.091,1.091,0,0,1,.737-1.022c1.536-.549,1.91-1.079,2.63-.335a4.561,4.561,0,0,0,6.247-.017l4.036-4.053a4.458,4.458,0,0,0-.034-6.281c-.674-.638-.06-1.451.352-2.563a1.118,1.118,0,0,1,1.055-.737,4.432,4.432,0,0,0,4.422-4.438V42.994A4.432,4.432,0,0,0,67.713,38.556ZM45.421,55.891A10.074,10.074,0,1,1,55.487,45.808,10.071,10.071,0,0,1,45.421,55.891Z" transform="translate(-18.69 -19.094)" fill="#bf944f"/>
    </g>
  </g>
</svg>
