<svg xmlns="http://www.w3.org/2000/svg" xmlns:xlink="http://www.w3.org/1999/xlink" width="89.73" height="95.239" viewBox="0 0 89.73 95.239">
  <defs>
    <filter id="Path_14390" x="0" y="0" width="75.883" height="95.239" filterUnits="userSpaceOnUse">
      <feOffset dy="3" input="SourceAlpha"/>
      <feGaussianBlur stdDeviation="3" result="blur"/>
      <feFlood flood-opacity="0.161"/>
      <feComposite operator="in" in2="blur"/>
      <feComposite in="SourceGraphic"/>
    </filter>
    <filter id="Path_14391" x="49.662" y="27.584" width="34.561" height="48.305" filterUnits="userSpaceOnUse">
      <feOffset dy="3" input="SourceAlpha"/>
      <feGaussianBlur stdDeviation="3" result="blur-2"/>
      <feFlood flood-opacity="0.161"/>
      <feComposite operator="in" in2="blur-2"/>
      <feComposite in="SourceGraphic"/>
    </filter>
    <filter id="Path_14392" x="44.139" y="60.684" width="45.592" height="23.462" filterUnits="userSpaceOnUse">
      <feOffset dy="3" input="SourceAlpha"/>
      <feGaussianBlur stdDeviation="3" result="blur-3"/>
      <feFlood flood-opacity="0.161"/>
      <feComposite operator="in" in2="blur-3"/>
      <feComposite in="SourceGraphic"/>
    </filter>
    <filter id="Path_14393" x="46.939" y="69.006" width="39.961" height="20.652" filterUnits="userSpaceOnUse">
      <feOffset dy="3" input="SourceAlpha"/>
      <feGaussianBlur stdDeviation="3" result="blur-4"/>
      <feFlood flood-opacity="0.161"/>
      <feComposite operator="in" in2="blur-4"/>
      <feComposite in="SourceGraphic"/>
    </filter>
  </defs>
  <g id="Group_16075" data-name="Group 16075" transform="translate(-90.924 -82.64)">
    <g transform="matrix(1, 0, 0, 1, 90.92, 82.64)" filter="url(#Path_14390)">
      <path id="Path_14390-2" data-name="Path 14390" d="M146.825,88.64c0,2.273,0,4.425,0,6.576a4.161,4.161,0,0,0,4.477,4.457c2.15.006,4.3,0,6.5,0v13.5a33.993,33.993,0,0,0-5.012,1.585,10.83,10.83,0,0,0-4.091,15.819,11.385,11.385,0,0,1,2.261,7.492,1.81,1.81,0,0,0,0,.344,8.29,8.29,0,0,1-2,6.627,11.976,11.976,0,0,0-.922,1.523c-.7,0-1.47,0-2.244,0a4.161,4.161,0,0,0-4.488,4.444q-.008,2.37,0,4.741c0,1.405.442,1.839,1.859,1.848.257,0,.515,0,.9,0,0,1.252,0,2.475,0,3.7,0,1.356.457,1.816,1.8,1.817q5.474.006,10.948,0h.937a2.6,2.6,0,0,1-2.387,2.743c-.285.029-.574.015-.861.015H104.679c-3.144,0-4.756-1.621-4.756-4.783q0-33.829,0-67.658c0-3.216,1.59-4.795,4.828-4.795h42.073Zm-27.542,44.137a13.791,13.791,0,1,0,13.747,13.79A13.8,13.8,0,0,0,119.282,132.777Zm-13.8-11.093H144v-2.66H105.483Zm38.543,2.875H105.511v2.655h38.515Zm-13.765-15.182c.187-.031.271-.046.355-.058a4.144,4.144,0,0,0-.616-8.265c-.833,0-1.667.024-2.5-.013a1.368,1.368,0,1,1,.023-2.737c.717-.032,1.438.027,2.154-.018,1.046-.065,1.81.244,2.018,1.327h2.952a18.049,18.049,0,0,0-1.175-2.5,4.111,4.111,0,0,0-3.212-1.622V94.2h-2.714l-.069,1.292c-.14.023-.225.038-.309.05a4.145,4.145,0,0,0,.614,8.266c.8,0,1.609-.018,2.413.008a1.375,1.375,0,1,1-.023,2.745c-.689.023-1.381-.028-2.068.014-1.044.064-1.812-.241-2.014-1.326h-2.949a17.678,17.678,0,0,0,1.118,2.434,4.145,4.145,0,0,0,3.264,1.69v1.285h2.736Zm16.522,4.146h-33v2.66h33Zm-19.227,19.2h16.453V130.08H127.555Zm6.9,2.839v2.677h10.935v-2.677Zm-28.972-19.4h5.41v-2.653h-5.41Zm5.411,16.579V130.06h-5.4v2.683Zm7.01-31.652v2.668h2.653v-2.668Zm21.964,2.684v-2.652h-2.65v2.652Z" transform="translate(-90.92 -82.64)" fill="#fff"/>
    </g>
    <g transform="matrix(1, 0, 0, 1, 90.92, 82.64)" filter="url(#Path_14391)">
      <path id="Path_14391-2" data-name="Path 14391" d="M330.446,238.731H317.288c.424-.647.787-1.218,1.166-1.777a7.144,7.144,0,0,0,1.271-4.214c-.025-1.607.05-3.221-.066-4.821a13.051,13.051,0,0,0-2.6-6.55,8.268,8.268,0,1,1,13.774-.266c-1.161,1.766-2.347,3.546-2.556,5.668a49.1,49.1,0,0,0-.165,7.123,8.459,8.459,0,0,0,1.1,2.938A16.9,16.9,0,0,0,330.446,238.731Z" transform="translate(-256.93 -174.84)" fill="#fff"/>
    </g>
    <g transform="matrix(1, 0, 0, 1, 90.92, 82.64)" filter="url(#Path_14392)">
      <path id="Path_14392-2" data-name="Path 14392" d="M291.6,357.625c0-1.381-.02-2.7.007-4.015a1.368,1.368,0,0,1,1.473-1.443c.172-.008.345,0,.517,0h23.6c1.587,0,1.989.4,1.989,1.973q0,1.636-.011,3.272a1.07,1.07,0,0,1-.059.215Z" transform="translate(-238.46 -285.48)" fill="#fff"/>
    </g>
    <g transform="matrix(1, 0, 0, 1, 90.92, 82.64)" filter="url(#Path_14393)">
      <path id="Path_14393-2" data-name="Path 14393" d="M303.764,390.956V388.3h21.962v2.653Z" transform="translate(-247.82 -313.3)" fill="#fff"/>
    </g>
    <path id="Path_14394" data-name="Path 14394" d="M315.582,98.116l6.075,6.06c-1.635,0-3.314.066-4.983-.03-.731-.042-1.092-.676-1.092-1.434C315.581,101.19,315.582,99.668,315.582,98.116Z" transform="translate(-165.997 -7.294)" fill="#fff"/>
    <path id="Path_14395" data-name="Path 14395" d="M157.941,303.286a11.034,11.034,0,1,1-10.955-11.005A11.047,11.047,0,0,1,157.941,303.286Zm-17.515,1.028c1.291,1.287,2.546,2.543,3.807,3.793,1,.99,1.606.985,2.621-.028q3.689-3.68,7.37-7.368c.176-.176.333-.372.5-.557l-1.931-1.975-7.395,7.44-2.978-3.179Z" transform="translate(-27.671 -156.747)" fill="#fff"/>
  </g>
</svg>
